<?xml version="1.0" encoding="UTF-8"?>
<svg version="1.1" xmlns="http://www.w3.org/2000/svg" width="251" height="385">
<path d="M0 0 C0.33 0 0.66 0 1 0 C0.9278125 0.69222656 0.855625 1.38445312 0.78125 2.09765625 C-1.96700758 31.06887152 4.97861053 51.68932225 18 77 C25.75177373 92.15307835 32.92385262 107.28373358 38.375 123.4375 C38.70886719 124.41976562 39.04273438 125.40203125 39.38671875 126.4140625 C45.02785833 143.61605604 47.55018688 164.18957889 39.55859375 181.0390625 C30.96441012 196.79174248 19.03849801 206.59591544 2 212 C-9.62697215 214.98761805 -22.02664038 213.42622909 -33 209 C-33.73476562 208.71125 -34.46953125 208.4225 -35.2265625 208.125 C-48.63277987 202.14294285 -58.42295651 190.30885379 -64 177 C-64.3196875 176.29101562 -64.639375 175.58203125 -64.96875 174.8515625 C-73.70150909 151.80678158 -62.18144046 123.07758568 -53 102 C-46.88371974 88.75359954 -40.15555225 75.78745617 -32.97338867 63.08886719 C-21.54139013 42.873156 -10.33014248 22.27272485 -1 1 C-0.67 0.67 -0.34 0.34 0 0 Z " fill="#FBE15C" transform="translate(118,148)"/>
<path d="M0 0 C0.99 0.33 1.98 0.66 3 1 C3.70895389 23.29266108 -0.50048554 42.29839392 -11 62 C-11.495 62.99 -11.495 62.99 -12 64 C-11.40574219 63.61328125 -10.81148438 63.2265625 -10.19921875 62.828125 C1.97612757 55.17829621 14.23410043 51.60167763 28.5625 51.875 C29.47580078 51.88402344 30.38910156 51.89304688 31.33007812 51.90234375 C33.55367319 51.92562747 35.77668677 51.9583229 38 52 C36.44476383 59.83228156 27.20697512 66.34704575 20.9375 70.875 C13.67834709 75.67225319 6.5469695 79.25895066 -2 81 C-1.47792969 81.25652344 -0.95585937 81.51304688 -0.41796875 81.77734375 C7.40397014 85.84584786 16.27393717 91.34753403 21 99 C21 99.99 21 100.98 21 102 C8.11926388 102.35706353 -2.43161273 102.362613 -14 96 C-14.66 95.67 -15.32 95.34 -16 95 C-15.83628906 95.54140625 -15.67257813 96.0828125 -15.50390625 96.640625 C-14.91409413 99.40222593 -14.90390692 101.92818139 -14.9375 104.75 C-14.94652344 105.73484375 -14.95554687 106.7196875 -14.96484375 107.734375 C-14.97644531 108.48203125 -14.98804688 109.2296875 -15 110 C-20.54461357 107.50253397 -23.83925307 103.64906661 -26.2734375 98.09375 C-27.2480673 95.41178998 -28.16157705 92.72734055 -29 90 C-32.28402139 93.64891266 -33.32385434 97.63173609 -34.625 102.25 C-34.8415625 102.97574219 -35.058125 103.70148438 -35.28125 104.44921875 C-44.14322636 135.13791465 -31.78100862 169.22467292 -17.125 196.125 C-15.10841759 199.76454136 -13.0634493 203.38684954 -11 207 C-10.60554688 207.69335449 -10.21109375 208.38670898 -9.8046875 209.10107422 C-6.28949695 215.23527141 -2.57682124 221.19145921 1.421875 227.0234375 C8.48523432 237.32819502 14.82144951 247.18642099 19 259 C19.24041016 259.66386719 19.48082031 260.32773437 19.72851562 261.01171875 C27.79680042 283.84648704 28.04644363 306.48022888 17.76171875 328.671875 C9.22721766 344.48210121 -7.1887511 355.64635741 -24 361 C-35.99936068 364.09975857 -46.90941279 364.60399692 -59.125 362.75 C-59.87765137 362.64091309 -60.63030273 362.53182617 -61.40576172 362.41943359 C-66.88522703 361.50278548 -71.12933161 359.67279309 -76 357 C-76 356.67 -76 356.34 -76 356 C-75.26998779 356.01571045 -74.53997559 356.0314209 -73.7878418 356.04760742 C-70.42114274 356.11067814 -67.05456863 356.14921714 -63.6875 356.1875 C-62.53958984 356.21263672 -61.39167969 356.23777344 -60.20898438 356.26367188 C-43.74912136 356.4035574 -30.80387872 350.5215185 -18.18798828 340.25170898 C-14.18234103 337 -14.18234103 337 -12 337 C-11.67 336.01 -11.34 335.02 -11 334 C-10.34 334 -9.68 334 -9 334 C-8.67 333.01 -8.34 332.02 -8 331 C-7.34 331 -6.68 331 -6 331 C-5.73832031 330.2678125 -5.47664063 329.535625 -5.20703125 328.78125 C-3.98334623 325.96162627 -2.56047903 323.92532096 -0.6875 321.5 C8.42915752 308.80519715 10.41096326 294.57745749 8.5625 279.41015625 C4.59171359 260.03189134 -6.63275071 242.10403767 -16.39086914 225.14892578 C-36.15300744 190.6744043 -51.35161928 146.47507768 -42 106.4609375 C-40.2858043 100.52821331 -38.2430488 94.75390779 -36 89 C-36.33 88.67 -36.66 88.34 -37 88 C-37.495 88.45375 -37.99 88.9075 -38.5 89.375 C-44.78175857 93.45814307 -51.77073221 93.26665332 -59 93 C-57.55218207 89.55571735 -55.72305391 87.63869038 -52.875 85.25 C-52.15054688 84.63640625 -51.42609375 84.0228125 -50.6796875 83.390625 C-49.84824219 82.70226562 -49.84824219 82.70226562 -49 82 C-49.76183594 81.84144531 -50.52367188 81.68289062 -51.30859375 81.51953125 C-60.99987832 79.32961551 -68.75486943 75.87358541 -76 69 C-76 68.34 -76 67.68 -76 67 C-76.99 66.67 -77.98 66.34 -79 66 C-79 65.34 -79 64.68 -79 64 C-79.66 64 -80.32 64 -81 64 C-81 63.01 -81 62.02 -81 61 C-71.44618953 58.75942531 -61.43140658 59.58033202 -52 62 C-50.87464844 62.28037109 -50.87464844 62.28037109 -49.7265625 62.56640625 C-49.15679687 62.70949219 -48.58703125 62.85257813 -48 63 C-48.37511719 62.52433594 -48.75023437 62.04867187 -49.13671875 61.55859375 C-59.62046147 47.21936883 -61.51664311 29.27884193 -61 12 C-49.7168982 17.01471191 -39.7457581 30.69285434 -35.21728516 41.94482422 C-33.64646851 46.24767135 -32.28709145 50.60490892 -31 55 C-30.72027344 53.79085937 -30.44054687 52.58171875 -30.15234375 51.3359375 C-25.0110573 29.98942123 -14.78873871 15.8217756 0 0 Z " fill="#367E84" transform="translate(169,9)"/>
<path d="M0 0 C1.32 0.33 2.64 0.66 4 1 C3 4 3 4 1.6015625 5.671875 C-0.66424161 8.96558048 -1.5481904 12.4279906 -2.625 16.25 C-2.8415625 16.97574219 -3.058125 17.70148438 -3.28125 18.44921875 C-12.14322636 49.13791465 0.21899138 83.22467292 14.875 110.125 C16.89158241 113.76454136 18.9365507 117.38684954 21 121 C21.39445312 121.69335449 21.78890625 122.38670898 22.1953125 123.10107422 C25.71050305 129.23527141 29.42317876 135.19145921 33.421875 141.0234375 C40.48523432 151.32819502 46.82144951 161.18642099 51 173 C51.24041016 173.66386719 51.48082031 174.32773437 51.72851562 175.01171875 C59.79680042 197.84648704 60.04644363 220.48022888 49.76171875 242.671875 C41.22721766 258.48210121 24.8112489 269.64635741 8 275 C-3.99936068 278.09975857 -14.90941279 278.60399692 -27.125 276.75 C-27.87765137 276.64091309 -28.63030273 276.53182617 -29.40576172 276.41943359 C-34.88522703 275.50278548 -39.12933161 273.67279309 -44 271 C-44 270.67 -44 270.34 -44 270 C-43.26998779 270.01571045 -42.53997559 270.0314209 -41.7878418 270.04760742 C-38.42114274 270.11067814 -35.05456863 270.14921714 -31.6875 270.1875 C-30.53958984 270.21263672 -29.39167969 270.23777344 -28.20898438 270.26367188 C-11.74912136 270.4035574 1.19612128 264.5215185 13.81201172 254.25170898 C17.81765897 251 17.81765897 251 20 251 C20.33 250.01 20.66 249.02 21 248 C21.66 248 22.32 248 23 248 C23.33 247.01 23.66 246.02 24 245 C24.66 245 25.32 245 26 245 C26.26167969 244.2678125 26.52335937 243.535625 26.79296875 242.78125 C28.01665377 239.96162627 29.43952097 237.92532096 31.3125 235.5 C40.42915752 222.80519715 42.41096326 208.57745749 40.5625 193.41015625 C36.59171359 174.03189134 25.36724929 156.10403767 15.60913086 139.14892578 C-4.15300744 104.6744043 -19.35161928 60.47507768 -10 20.4609375 C-8.2858043 14.52821331 -6.2430488 8.75390779 -4 3 C-3.34 3.33 -2.68 3.66 -2 4 C-1.34 2.68 -0.68 1.36 0 0 Z " fill="#3B8287" transform="translate(137,95)"/>
<path d="M0 0 C0.33 0 0.66 0 1 0 C0.9278125 0.69222656 0.855625 1.38445312 0.78125 2.09765625 C-1.82150703 29.53505322 3.88000822 49.53059059 16.30078125 73.609375 C18.64580504 78.28864087 20.20624073 82.07800912 20.625 87.3125 C20.73714844 88.63701172 20.73714844 88.63701172 20.8515625 89.98828125 C20.90054688 90.65214844 20.94953125 91.31601563 21 92 C21.66 92 22.32 92 23 92 C24.1604673 94.32699449 25.30316604 96.66029746 26.4375 99 C26.92573242 99.97259766 26.92573242 99.97259766 27.42382812 100.96484375 C29.69605744 105.69670273 30.58512444 109.76438733 31 115 C29.61832642 114.78065796 29.61832642 114.78065796 28.20874023 114.55688477 C24.71490352 114.00552562 21.22022277 113.4602267 17.72485352 112.91870117 C16.22644118 112.68535892 14.72837732 112.44976526 13.23071289 112.21166992 C4.23948462 110.78405966 -4.62030728 109.68157993 -13.72143555 109.23242188 C-16.95956876 109.00286623 -20.06088122 108.53353381 -23.25 107.9375 C-33.52439369 105.96131977 -33.52439369 105.96131977 -43 109 C-43.042721 107.33388095 -43.04063832 105.66617115 -43 104 C-42.505 103.505 -42.505 103.505 -42 103 C-41.58282721 100.58462162 -41.58282721 100.58462162 -42 98 C-42.66 97.54625 -43.32 97.0925 -44 96.625 C-46 95 -46 95 -46.453125 92.05859375 C-46.27908774 86.58484132 -43.33558493 82.12332792 -40.75 77.4375 C-40.21004395 76.43243408 -39.67008789 75.42736816 -39.11376953 74.3918457 C-37.42312496 71.25344273 -35.71258444 68.12647372 -34 65 C-32.95988134 63.07869639 -31.92078441 61.15683923 -30.8828125 59.234375 C-27.06199807 52.17762133 -23.21316839 45.13741504 -19.26953125 38.1484375 C-13.09994165 27.20328191 -7.69587195 16.12501317 -2.625 4.625 C-1 1 -1 1 0 0 Z " fill="#F4C224" transform="translate(118,148)"/>
<path d="M0 0 C3.67484358 4.15273803 5.85617512 8.50513457 8.125 13.5 C8.64513672 14.61955078 8.64513672 14.61955078 9.17578125 15.76171875 C9.84375157 17.20770814 10.50272442 18.6578958 11.15161133 20.11254883 C11.80359655 21.56305178 12.49674856 22.99510473 13.20703125 24.41796875 C15.48624501 31.83944804 15.85015703 42.6690858 12.78515625 49.84375 C11.00526892 51.95448698 9.26237869 53.41954397 7 55 C5.75476563 55.97839844 5.75476563 55.97839844 4.484375 56.9765625 C-3.20673387 62.75640779 -3.20673387 62.75640779 -8 63 C-9.62109375 61.8203125 -9.62109375 61.8203125 -11 60 C-11.50660156 59.33742188 -12.01320312 58.67484375 -12.53515625 57.9921875 C-13.55674816 56.57606776 -14.57757681 55.15939711 -15.59765625 53.7421875 C-16.90028941 51.87638366 -16.90028941 51.87638366 -19 51 C-19 50.01 -19 49.02 -19 48 C-19.66 48 -20.32 48 -21 48 C-21 47.34 -21 46.68 -21 46 C-21.94875 45.690625 -22.8975 45.38125 -23.875 45.0625 C-27 44 -27 44 -29 43 C-29 42.34 -29 41.68 -29 41 C-30.32 40.67 -31.64 40.34 -33 40 C-33 39.34 -33 38.68 -33 38 C-39.03091135 37.52469109 -39.03091135 37.52469109 -44.5625 39.5 C-45.036875 39.995 -45.51125 40.49 -46 41 C-46 40.34 -46 39.68 -46 39 C-48.06271639 39.3110685 -50.12516466 39.62391516 -52.1875 39.9375 C-53.33605469 40.11152344 -54.48460938 40.28554688 -55.66796875 40.46484375 C-62.07632296 41.47861587 -62.07632296 41.47861587 -68 44 C-68.09375462 39.49977831 -68.09862068 35.24418575 -67.25 30.8125 C-66.60287001 26.93534605 -66.60287001 26.93534605 -69 24.0625 C-71.46128506 20.29365726 -71.26199699 18.49768462 -70.5625 14.19140625 C-69.79593981 11.20501551 -68.56164228 8.64800213 -67 6 C-65 9 -65 9 -65 11 C-64.01 11.6496875 -64.01 11.6496875 -63 12.3125 C-61 14 -61 14 -60.75 16.4375 C-60.87375 17.7059375 -60.87375 17.7059375 -61 19 C-61 20.32 -61 21.64 -61 23 C-60.67 22.67 -60.34 22.34 -60 22 C-53.38042752 21.4659632 -47.13991737 22.23599216 -40.6484375 23.4375 C-36.04860744 24.14668151 -31.44987591 24.50299388 -26.8125 24.875 C-14.43090522 25.89245774 -2.2361778 27.89052594 10 30 C8.99965715 24.84264541 7.94215008 20.26388524 5.375 15.625 C3 11.30057803 3 11.30057803 3 8 C2.34 8 1.68 8 1 8 C0.505 4.04 0.505 4.04 0 0 Z " fill="#F8D33E" transform="translate(138,232)"/>
<path d="M0 0 C0.33 0 0.66 0 1 0 C0.9278125 0.69222656 0.855625 1.38445312 0.78125 2.09765625 C-0.82450034 19.0249411 -0.96366085 35.93554597 6.1484375 51.70703125 C7.62472115 55.682162 7.82091955 59.79160945 8 64 C4.27074721 66.77710314 0.59241643 69.2888316 -3.5 71.5 C-11.74099437 75.74498662 -11.74099437 75.74498662 -17 83 C-17.43054688 83.41765625 -17.86109375 83.8353125 -18.3046875 84.265625 C-21.29927257 87.32920972 -23.48995324 91.04969484 -25.8671875 94.6015625 C-28.30874011 97.34719125 -29.4027903 97.75330141 -33 98 C-34.9996441 98.03772913 -37.00054061 98.04649906 -39 98 C-36.83836487 91.06001352 -34.1063786 84.56882431 -31 78 C-31.66 78 -32.32 78 -33 78 C-33 78.66 -33 79.32 -33 80 C-33.763125 80.2475 -34.52625 80.495 -35.3125 80.75 C-38.2364045 82.10995558 -39.30004356 83.31585826 -41 86 C-41.33 85.67 -41.66 85.34 -42 85 C-41.79715027 78.16765234 -38.68475108 73.15794359 -35.375 67.3125 C-34.19054423 65.17365423 -33.00698791 63.03431017 -31.82421875 60.89453125 C-31.2007959 59.77385254 -30.57737305 58.65317383 -29.93505859 57.49853516 C-26.63255862 51.52770186 -23.40794973 45.51537884 -20.1875 39.5 C-19.8682254 38.90429199 -19.54895081 38.30858398 -19.22000122 37.69482422 C-12.75642581 25.62789122 -6.49973408 13.53939371 -1 1 C-0.67 0.67 -0.34 0.34 0 0 Z " fill="#F1B315" transform="translate(118,148)"/>
<path d="M0 0 C1.13512246 4.39741711 1.79822272 8.83551709 2.5 13.3203125 C2.86517857 15.95999666 2.86517857 15.95999666 4 18 C4.10667653 19.86766545 4.15547406 21.73877571 4.17578125 23.609375 C3.95514078 43.65869658 3.95514078 43.65869658 11 62 C12.670625 61.505 12.670625 61.505 14.375 61 C19.26454223 59.75570789 23.98577615 59.81504912 29 60 C29 60.66 29 61.32 29 62 C29.99 61.67 30.98 61.34 32 61 C33.7890625 61.85546875 33.7890625 61.85546875 35.625 63.1875 C36.23601562 63.61417969 36.84703125 64.04085937 37.4765625 64.48046875 C39.40900925 66.40796051 39.93203189 67.25214634 40 70 C38.453125 72.98046875 38.453125 72.98046875 36.25 76.1875 C35.53328125 77.25355469 34.8165625 78.31960938 34.078125 79.41796875 C32 82 32 82 29 83 C29.34933594 83.53109375 29.69867188 84.0621875 30.05859375 84.609375 C30.74115234 85.66898438 30.74115234 85.66898438 31.4375 86.75 C32.11619141 87.79414063 32.11619141 87.79414063 32.80859375 88.859375 C33.96642847 90.93968132 34.42800954 92.71203818 35 95 C35.99 95.99 35.99 95.99 37 97 C26.10324594 98.23826751 16.19815073 91.50146386 8 85 C4.61446898 82.16720874 3.23805936 80.9705497 2.1875 76.6875 C2.125625 75.800625 2.06375 74.91375 2 74 C1.34 74 0.68 74 0 74 C-0.83739781 71.8765984 -1.66980283 69.7512272 -2.5 67.625 C-2.9640625 66.44164062 -3.428125 65.25828125 -3.90625 64.0390625 C-5 61 -5 61 -5 59 C-5.66 59 -6.32 59 -7 59 C-8.32 56.69 -9.64 54.38 -11 52 C-11 56.62 -11 61.24 -11 66 C-11.99 65.67 -12.98 65.34 -14 65 C-15.1426493 41.35985567 -8.70367248 21.79190178 0 0 Z " fill="#FBE97E" transform="translate(65,250)"/>
<path d="M0 0 C5.00318116 7.50477173 3.05224378 22.65199396 1.61328125 31.33300781 C0.63057014 35.206855 -0.97387801 38.5735456 -3 42 C-3.51949219 42.88171875 -4.03898437 43.7634375 -4.57421875 44.671875 C-10.35049254 53.55845007 -17.19993751 60.3860439 -26.5 65.4375 C-27.10457031 65.76766113 -27.70914063 66.09782227 -28.33203125 66.43798828 C-36.11780875 70.42048849 -43.84981453 71.32155671 -52.5 71.1875 C-53.29019531 71.18685547 -54.08039063 71.18621094 -54.89453125 71.18554688 C-69.83706833 71.07549546 -79.87979074 67.39220866 -91 57 C-97.82874762 49.69288127 -103.70573993 40.86531832 -106 31 C-105.77376953 29.95199219 -105.77376953 29.95199219 -105.54296875 28.8828125 C-104.80531016 24.96632302 -104.89418843 21.16216939 -104.9375 17.1875 C-104.94201172 16.39923828 -104.94652344 15.61097656 -104.95117188 14.79882812 C-104.96288688 12.86585239 -104.98082002 10.93291607 -105 9 C-104.67 9 -104.34 9 -104 9 C-103.71125 10.051875 -103.4225 11.10375 -103.125 12.1875 C-102.22774807 15.22818711 -101.23576581 18.08712344 -100 21 C-99.34 21 -98.68 21 -98 21 C-97.16260219 23.1234016 -96.33019717 25.2487728 -95.5 27.375 C-95.0359375 28.55835938 -94.571875 29.74171875 -94.09375 30.9609375 C-93 34 -93 34 -93 36 C-92.34 36 -91.68 36 -91 36 C-90.67 37.010625 -90.34 38.02125 -90 39.0625 C-87.89720812 43.98562411 -84.15777168 46.79739208 -80 50 C-78.6696875 51.051875 -78.6696875 51.051875 -77.3125 52.125 C-62.9082486 60.27834985 -47.45198022 61.47909721 -31.375 57.5 C-22.39484991 54.45277881 -11.69931286 48.66845361 -7 40 C-6.28220067 37.23134545 -6.10125347 34.88572376 -6 32 C-7.05574219 32.97839844 -7.05574219 32.97839844 -8.1328125 33.9765625 C-17.75301718 42.49157395 -27.64941913 49.02409855 -41.0859375 48.2109375 C-41.71757813 48.14132812 -42.34921875 48.07171875 -43 48 C-39.33074897 43.84058184 -35.90533592 41.88315181 -30.75 40.125 C-19.42854095 35.87533096 -12.58923312 29.92222633 -7 19 C-6.22018691 16.84559038 -6.22018691 16.84559038 -5.75 14.875 C-5.37875 13.451875 -5.37875 13.451875 -5 12 C-4.01 11.67 -3.02 11.34 -2 11 C-0.85185003 8.70370006 -0.69230191 6.92301914 -0.4375 4.375 C-0.31181641 3.14910156 -0.31181641 3.14910156 -0.18359375 1.8984375 C-0.12300781 1.27195312 -0.06242187 0.64546875 0 0 Z " fill="#F1B518" transform="translate(158,288)"/>
<path d="M0 0 C2.11398611 2.11398611 2.55008106 3.1819456 3.4375 5.96484375 C3.69192871 6.75882568 3.94635742 7.55280762 4.20849609 8.37084961 C10.01660777 27.2051118 14.41616503 48.36374961 5.55859375 67.0390625 C-3.03558988 82.79174248 -14.96150199 92.59591544 -32 98 C-36.427233 99.16352074 -40.82442396 99.18352222 -45.375 99.1875 C-46.10460937 99.19974609 -46.83421875 99.21199219 -47.5859375 99.22460938 C-52.43297115 99.2375925 -56.40001066 98.53535264 -61 97 C-61 96.67 -61 96.34 -61 96 C-60.3201001 96.01047363 -59.6402002 96.02094727 -58.93969727 96.03173828 C-55.81400351 96.07370103 -52.68836934 96.09945291 -49.5625 96.125 C-47.95858398 96.15013672 -47.95858398 96.15013672 -46.32226562 96.17578125 C-31.28535014 96.26775015 -18.54190241 91.70187709 -7.5 81.25 C3.53166928 69.30055457 7.53155709 57.37881182 7.1875 41.4375 C7.17396484 40.23802734 7.16042969 39.03855469 7.14648438 37.80273438 C7.111408 34.86801121 7.06225427 31.93425118 7 29 C6.34 31.64 5.68 34.28 5 37 C3.68 37.33 2.36 37.66 1 38 C0.835 39.258125 0.67 40.51625 0.5 41.8125 C-1.63960803 51.24757708 -8.37598484 58.48469037 -16.37109375 63.5625 C-24.9449643 68.25073828 -32.25713104 69.61211742 -42 69 C-40.700625 67.5459375 -40.700625 67.5459375 -39.375 66.0625 C-32.2937987 57.6922857 -27 49.38694811 -27 38 C-27.99 37.505 -27.99 37.505 -29 37 C-27.27473958 36.28385417 -25.54947917 35.56770833 -23.82421875 34.8515625 C-21.73466068 33.93193308 -21.73466068 33.93193308 -19 32 C-18.32324219 31.56042969 -17.64648438 31.12085938 -16.94921875 30.66796875 C-7.85091167 24.99783651 -7.85091167 24.99783651 -1 17 C-0.49693986 14.09070975 -0.39804385 11.19759668 -0.3125 8.25 C-0.27833984 7.45722656 -0.24417969 6.66445313 -0.20898438 5.84765625 C-0.12680896 3.89892496 -0.06171955 1.94948638 0 0 Z " fill="#FCE753" transform="translate(152,262)"/>
<path d="M0 0 C0.33 0 0.66 0 1 0 C1.28875 1.051875 1.5775 2.10375 1.875 3.1875 C2.77225193 6.22818711 3.76423419 9.08712344 5 12 C5.66 12 6.32 12 7 12 C7.83739781 14.1234016 8.66980283 16.2487728 9.5 18.375 C9.9640625 19.55835938 10.428125 20.74171875 10.90625 21.9609375 C12 25 12 25 12 27 C12.66 27 13.32 27 14 27 C14.33 28.010625 14.66 29.02125 15 30.0625 C18.03464049 37.16729811 26.09826978 42.82098285 32.97875977 45.87963867 C35.0989118 46.70819537 37.22951146 47.48957368 39.375 48.25 C40.11105469 48.518125 40.84710938 48.78625 41.60546875 49.0625 C43.40107475 49.71544764 45.20018805 50.35873683 47 51 C47 51.66 47 52.32 47 53 C47.99 53.33 48.98 53.66 50 54 C50 54.33 50 54.66 50 55 C37.61325434 54.69855265 28.32029399 49.85595905 19 42 C18.01 41.34 17.02 40.68 16 40 C20.34062391 45.53357684 24.87685766 49.60738676 30.765625 53.45703125 C32.7609063 54.83489159 34.35909592 56.22590565 36 58 C35.505 58.99 35.505 58.99 35 60 C35.99 60.33 36.98 60.66 38 61 C26.3738175 59.83738175 16.94091189 51.81270237 9.6875 43.125 C4.94458727 36.89693278 0.78695653 29.68391307 -1 22 C-0.77376953 20.95199219 -0.77376953 20.95199219 -0.54296875 19.8828125 C0.19468984 15.96632302 0.10581157 12.16216939 0.0625 8.1875 C0.05798828 7.39923828 0.05347656 6.61097656 0.04882812 5.79882812 C0.03711312 3.86585239 0.01917998 1.93291607 0 0 Z " fill="#EBAC24" transform="translate(53,297)"/>
<path d="M0 0 C1.22396338 2.44792677 1.19677702 4.26512659 0.74609375 6.94140625 C-2.29839434 15.34164303 -11.35028397 21.22405321 -19 25 C-27.43203776 28.24604643 -35.00089115 29.48643832 -44 29 C-45.32 25.37 -46.64 21.74 -48 18 C-46.68 17.34 -45.36 16.68 -44 16 C-43.51917969 15.47792969 -43.03835937 14.95585937 -42.54296875 14.41796875 C-40.49658712 12.53736993 -39.05113402 12.51095174 -36.3125 12.3125 C-35.10013672 12.21388672 -35.10013672 12.21388672 -33.86328125 12.11328125 C-33.24839844 12.07589844 -32.63351563 12.03851563 -32 12 C-33.32 13.32 -34.64 14.64 -36 16 C-25.76616996 17.27333369 -16.48374312 13.56989515 -8.4375 7.375 C-5.53309092 5.01710599 -2.74409401 2.54306148 0 0 Z " fill="#F7DB40" transform="translate(152,319)"/>
<path d="M0 0 C2.49058559 0.36127248 3.67114511 0.576422 5.24511719 2.60375977 C5.59219727 3.29268311 5.93927734 3.98160645 6.296875 4.69140625 C6.69414795 5.46339355 7.0914209 6.23538086 7.50073242 7.03076172 C7.91299072 7.86623535 8.32524902 8.70170898 8.75 9.5625 C9.18610596 10.41859863 9.62221191 11.27469727 10.0715332 12.15673828 C11.39552644 14.76415739 12.70004666 17.38052628 14 20 C14.72746971 21.45462463 15.45530647 22.90906578 16.18359375 24.36328125 C17.17787479 26.35255898 18.17121735 28.34228379 19.16210938 30.33325195 C21.31825642 34.6603668 23.5043616 38.96850682 25.75 43.25 C26.28109375 44.26578125 26.8121875 45.2815625 27.359375 46.328125 C28.98568873 48.97669308 30.79603588 50.83436569 33 53 C33 53.66 33 54.32 33 55 C29.29649348 53.68058498 26.50861956 52.07121349 23.4375 49.625 C22.69371094 49.03976562 21.94992188 48.45453125 21.18359375 47.8515625 C16.69303246 44.04382359 14.54974746 42.04722203 14 36 C13.34 36 12.68 36 12 36 C11.16260219 33.8765984 10.33019717 31.7512272 9.5 29.625 C9.0359375 28.44164062 8.571875 27.25828125 8.09375 26.0390625 C7 23 7 23 7 21 C6.34 21 5.68 21 5 21 C3.68 18.69 2.36 16.38 1 14 C1 18.62 1 23.24 1 28 C0.01 27.67 -0.98 27.34 -2 27 C-2.05865035 23.81257885 -2.09381259 20.62529882 -2.125 17.4375 C-2.14175781 16.54224609 -2.15851562 15.64699219 -2.17578125 14.72460938 C-2.21479596 9.39910095 -1.75475782 5.03629311 0 0 Z " fill="#F5C951" transform="translate(53,288)"/>
<path d="M0 0 C1.8984375 0.25390625 1.8984375 0.25390625 4 1 C4.9140625 2.65234375 4.9140625 2.65234375 5.625 4.9375 C7.9175314 11.33981329 11.26831558 17.05369772 14.64697266 22.92944336 C15.29351807 24.06265015 15.29351807 24.06265015 15.953125 25.21875 C16.34661133 25.89873047 16.74009766 26.57871094 17.14550781 27.27929688 C18 29 18 29 18 31 C19.11375 31.309375 19.11375 31.309375 20.25 31.625 C23.2670849 33.13354245 23.89965109 34.39795144 25.5625 37.2109375 C28.27570824 40.58770211 32.00239562 42.8193514 35.5390625 45.265625 C38.88636155 47.62467385 40.5944974 49.83846995 42.5625 53.375 C42.99691406 54.14585937 43.43132812 54.91671875 43.87890625 55.7109375 C45 58 45 58 45.52734375 60.1640625 C45.89410665 62.23309589 45.89410665 62.23309589 48 64 C41.46782525 64.71001899 36.42027337 62.68620124 31 59 C30.67 58.01 30.34 57.02 30 56 C29.38479492 55.39639648 28.76958984 54.79279297 28.13574219 54.17089844 C25.7115198 51.70677115 24.39788235 49.34124851 22.828125 46.265625 C22.2496582 45.14091797 21.67119141 44.01621094 21.07519531 42.85742188 C20.46661394 41.65504049 19.85821875 40.45256486 19.25 39.25 C18.62399786 38.02637252 17.99736761 36.80306619 17.37011719 35.58007812 C13.63065485 28.2747427 9.92414376 20.9510324 6.30957031 13.58300781 C4.99775969 10.91900015 3.65204013 8.4780602 2 6 C1.01 5.67 0.02 5.34 -1 5 C-0.67 3.35 -0.34 1.7 0 0 Z " fill="#F7E078" transform="translate(54,283)"/>
<path d="M0 0 C0.33 0 0.66 0 1 0 C1.26554687 0.97582031 1.53109375 1.95164062 1.8046875 2.95703125 C2.16117593 4.24226586 2.51796239 5.52741784 2.875 6.8125 C3.22304687 8.07707031 3.57109375 9.34164063 3.9296875 10.64453125 C4.85700295 14.08408713 4.85700295 14.08408713 7 17 C8.11375 16.67 9.2275 16.34 10.375 16 C15.26454223 14.75570789 19.98577615 14.81504912 25 15 C25 15.66 25 16.32 25 17 C25.99 16.67 26.98 16.34 28 16 C29.7890625 16.85546875 29.7890625 16.85546875 31.625 18.1875 C32.23601562 18.61417969 32.84703125 19.04085938 33.4765625 19.48046875 C35.41336786 21.41230794 35.9465222 22.24346226 36 25 C34.34765625 28.015625 34.34765625 28.015625 32.0625 31.25 C31.31097656 32.32765625 30.55945313 33.4053125 29.78515625 34.515625 C29.19605469 35.33546875 28.60695313 36.1553125 28 37 C23.21831338 36.51736247 20.12051697 34.24851612 16.4375 31.375 C15.87353516 30.96121094 15.30957031 30.54742187 14.72851562 30.12109375 C10.53133465 26.89098254 8.4187807 23.70348264 6 19 C4.73635462 16.95093967 3.44538713 14.92256395 2.1484375 12.89453125 C-0.79267217 8.04270067 -1.10515468 5.74680435 0 0 Z " fill="#FDEC72" transform="translate(69,295)"/>
<path d="M0 0 C0.9075 0.845625 1.815 1.69125 2.75 2.5625 C11.60465287 10.09609579 22.15137711 16 34 16 C33.34 15.67 32.68 15.34 32 15 C32 14.34 32 13.68 32 13 C42.34394904 12.08280255 42.34394904 12.08280255 46.28515625 14.265625 C47.99559665 15.76180641 49.51426325 17.28295094 51 19 C51.66 19.66 52.32 20.32 53 21 C47.74669604 24.22168641 43.58940964 24.42972503 37.625 24.3125 C36.40683594 24.31733398 36.40683594 24.31733398 35.1640625 24.32226562 C29.8038128 24.27501983 25.14950952 23.48566309 20 22 C20 21.01 20 20.02 20 19 C18.27176747 17.54461103 18.27176747 17.54461103 16 16.25 C9.91199829 12.3897844 4.03809359 8.06952718 0 2 C0 1.34 0 0.68 0 0 Z " fill="#ECA610" transform="translate(68,335)"/>
<path d="M0 0 C0.86151566 2.40574185 1.12825384 3.62715276 0.28515625 6.078125 C-5.67234952 16.660787 -12.9090746 22.19648196 -24 27 C-24.825 27.3815625 -25.65 27.763125 -26.5 28.15625 C-29.40732952 29.13747371 -31.7527555 29.19872878 -34.8125 29.125 C-36.27623047 29.09792969 -36.27623047 29.09792969 -37.76953125 29.0703125 C-38.50558594 29.04710937 -39.24164063 29.02390625 -40 29 C-36.33174758 24.84171386 -32.90595928 22.87990152 -27.75 21.125 C-18.8465301 17.83411639 -12.53220613 12.88529836 -6 6 C-4.89847171 4.89320124 -3.79423747 3.78908986 -2.6875 2.6875 C-1.800625 1.800625 -0.91375 0.91375 0 0 Z " fill="#F0AE13" transform="translate(155,307)"/>
<path d="M0 0 C1.32 0.33 2.64 0.66 4 1 C3 4 3 4 1.6015625 5.671875 C-0.66424161 8.96558048 -1.5481904 12.4279906 -2.625 16.25 C-2.94984375 17.33861328 -2.94984375 17.33861328 -3.28125 18.44921875 C-7.33187089 32.47636885 -6.2776413 45.96654398 -3.65625 60.12890625 C-3 64 -3 64 -3 68 C-3.66 68 -4.32 68 -5 68 C-5.67047742 63.89644637 -6.33572962 59.7920626 -7 55.6875 C-7.28617188 53.93663086 -7.28617188 53.93663086 -7.578125 52.15039062 C-7.75859375 51.03212891 -7.9390625 49.91386719 -8.125 48.76171875 C-8.29257813 47.73006592 -8.46015625 46.69841309 -8.6328125 45.63549805 C-9 43 -9 43 -9 40 C-9.66 40 -10.32 40 -11 40 C-11 44.95 -11 49.9 -11 55 C-11.33 55 -11.66 55 -12 55 C-12.47645852 36.2519679 -10.84024931 20.5467265 -4 3 C-3.34 3.33 -2.68 3.66 -2 4 C-1.34 2.68 -0.68 1.36 0 0 Z " fill="#A8C5C7" transform="translate(137,95)"/>
<path d="M0 0 C0.33 0 0.66 0 1 0 C3.18133071 18.8655629 0.88044951 38.4190826 -11 54 C-25.72724548 71.03392248 -44.3645633 79.85421126 -66.609375 82.28515625 C-72.16046421 82.50528565 -77.65043004 81.58089218 -83.125 80.75 C-84.25397705 80.58636963 -84.25397705 80.58636963 -85.40576172 80.41943359 C-90.88522703 79.50278548 -95.12933161 77.67279309 -100 75 C-100 74.67 -100 74.34 -100 74 C-91.75 74.33 -83.5 74.66 -75 75 C-75 75.33 -75 75.66 -75 76 C-79.95 76.33 -84.9 76.66 -90 77 C-69.22884817 81.68082295 -48.27668066 79.21367233 -30 68 C-14.67075918 57.60033168 -4.61539532 43.18391498 -1 25 C-0.55127112 20.60425457 -0.40304739 16.22862556 -0.3125 11.8125 C-0.27833984 10.66974609 -0.24417969 9.52699219 -0.20898438 8.34960938 C-0.12747085 5.56650462 -0.0580133 2.78367664 0 0 Z " fill="#F2F4F4" transform="translate(193,291)"/>
<path d="M0 0 C-1.32 0.99 -2.64 1.98 -4 3 C-2.35 3.33 -0.7 3.66 1 4 C0.01 5.485 0.01 5.485 -1 7 C0.92576115 9.43929746 2.80090595 11.80090595 5 14 C-0.71835109 16.47280047 -5.87429131 16.14940753 -12 16 C-13.32 12.37 -14.64 8.74 -16 5 C-14.68 4.34 -13.36 3.68 -12 3 C-11.54625 2.484375 -11.0925 1.96875 -10.625 1.4375 C-7.42727573 -1.39125608 -3.87176684 -1.29058895 0 0 Z " fill="#F5CF47" transform="translate(120,332)"/>
<path d="M0 0 C3.18412761 4.77619141 2.36878647 9.88296838 2.375 15.5 C2.39949219 16.634375 2.42398438 17.76875 2.44921875 18.9375 C2.47598995 26.71899566 1.17081631 32.89305987 -2 40 C-2.495 38.515 -2.495 38.515 -3 37 C-3.66 37 -4.32 37 -5 37 C-5.33 37.66 -5.66 38.32 -6 39 C-7.34209166 36.31581667 -6.63233676 34.88064523 -6 32 C-6 31.01 -6 30.02 -6 29 C-5 27 -4 25 -3 23 C-3 22.01 -3 21.02 -3 20 C-5.31 21.98 -7.62 23.96 -10 26 C-9.731875 25.360625 -9.46375 24.72125 -9.1875 24.0625 C-8.50250495 22.29593382 -7.85280352 20.51292852 -7.3046875 18.69921875 C-7.05976563 17.89097656 -6.81484375 17.08273437 -6.5625 16.25 C-6.33691406 15.47140625 -6.11132812 14.6928125 -5.87890625 13.890625 C-5.44384766 12.95476562 -5.44384766 12.95476562 -5 12 C-4.01 11.67 -3.02 11.34 -2 11 C-0.85185003 8.70370006 -0.69230191 6.92301914 -0.4375 4.375 C-0.35371094 3.55773437 -0.26992187 2.74046875 -0.18359375 1.8984375 C-0.12300781 1.27195312 -0.06242188 0.64546875 0 0 Z " fill="#F4C32A" transform="translate(158,288)"/>
<path d="M0 0 C3.29573544 1.03538591 4.06046362 2.10187359 5.859375 5.1328125 C6.50155156 6.45780757 7.13099894 7.78902083 7.75 9.125 C8.45287579 10.58475544 9.15600792 12.04438747 9.859375 13.50390625 C10.21451172 14.25172363 10.56964844 14.99954102 10.93554688 15.77001953 C12.58294655 19.22124628 14.28809591 22.64291249 16 26.0625 C16.32677734 26.71524902 16.65355469 27.36799805 16.99023438 28.04052734 C19.37797089 32.79371797 21.78846899 37.53457183 24.25 42.25 C24.56710938 42.87011963 24.88421875 43.49023926 25.2109375 44.12915039 C27.08037216 47.6711596 29.13202062 50.23354201 32 53 C32 53.66 32 54.32 32 55 C26.19235358 53.1747397 23.03634459 49.82712596 20.05883789 44.57763672 C19.43617415 43.28336816 18.82458854 41.9837269 18.22265625 40.6796875 C17.88882431 39.98038116 17.55499237 39.28107483 17.21104431 38.56057739 C16.15147037 36.33665876 15.10635267 34.10633483 14.0625 31.875 C12.68301907 28.95351955 11.2971327 26.0351152 9.91015625 23.1171875 C9.57787018 22.41333923 9.24558411 21.70949097 8.90322876 20.98431396 C6.49749144 15.92541158 3.87242409 11.03294396 1.02905273 6.20361328 C0 4 0 4 0 0 Z " fill="#F5D35E" transform="translate(54,288)"/>
<path d="M0 0 C0.33 0 0.66 0 1 0 C1.52017235 19.49683019 -0.13282546 33.89344713 -13.3125 49.3125 C-23.01802579 59.52539729 -35.67644461 66.56221609 -49.9609375 67.16796875 C-51.43225823 67.17983424 -52.90363199 67.18621384 -54.375 67.1875 C-55.10460937 67.19974609 -55.83421875 67.21199219 -56.5859375 67.22460938 C-61.43297115 67.2375925 -65.40001066 66.53535264 -70 65 C-70 64.67 -70 64.34 -70 64 C-69.3201001 64.01047363 -68.6402002 64.02094727 -67.93969727 64.03173828 C-64.81400351 64.07370103 -61.68836934 64.09945291 -58.5625 64.125 C-56.95858398 64.15013672 -56.95858398 64.15013672 -55.32226562 64.17578125 C-40.28535014 64.26775015 -27.54190241 59.70187709 -16.5 49.25 C-5.64852684 37.49574205 -1.19020938 24.32164411 -0.4375 8.6875 C-0.37272461 7.43356445 -0.37272461 7.43356445 -0.30664062 6.15429688 C-0.20114693 4.10303065 -0.10012685 2.0515352 0 0 Z " fill="#F7F6F4" transform="translate(161,294)"/>
<path d="M0 0 C1.02083333 0.875 2.04166667 1.75 3.0625 2.625 C3.701875 3.1715625 4.34125 3.718125 5 4.28125 C6.27680576 5.37850495 7.54823498 6.48206869 8.8125 7.59375 C9.39 8.0990625 9.9675 8.604375 10.5625 9.125 C11.07941406 9.58132813 11.59632812 10.03765625 12.12890625 10.5078125 C17.23955267 14.58352634 22.27663339 17.08855361 28.375 19.25 C29.11105469 19.518125 29.84710938 19.78625 30.60546875 20.0625 C32.40107475 20.71544764 34.20018805 21.35873683 36 22 C36 22.66 36 23.32 36 24 C36.99 24.33 37.98 24.66 39 25 C39 25.33 39 25.66 39 26 C26.06952965 25.68532041 15.09216064 20.41245176 6.18359375 11.1015625 C0 4.03885542 0 4.03885542 0 0 Z " fill="#B78727" transform="translate(64,326)"/>
<path d="M0 0 C2.16950448 2.16950448 2.58469735 3.33323079 3.47265625 6.2109375 C3.73240234 7.04367187 3.99214844 7.87640625 4.25976562 8.734375 C4.52466797 9.60578125 4.78957031 10.4771875 5.0625 11.375 C5.33126953 12.23867188 5.60003906 13.10234375 5.87695312 13.9921875 C6.59861187 16.32453099 7.3157274 18.65641257 8 21 C8.19062012 21.63147949 8.38124023 22.26295898 8.57763672 22.91357422 C9.12067103 25.59610092 9.11161856 28.12276222 9.09765625 30.859375 C9.09443359 31.97441406 9.09121094 33.08945312 9.08789062 34.23828125 C9.07951172 35.39714844 9.07113281 36.55601562 9.0625 37.75 C9.05798828 38.92433594 9.05347656 40.09867187 9.04882812 41.30859375 C9.03705094 44.20578072 9.02060326 47.10286454 9 50 C8.67 50 8.34 50 8 50 C7.97494385 49.36908447 7.9498877 48.73816895 7.92407227 48.08813477 C7.80845863 45.24603175 7.68557684 42.40428917 7.5625 39.5625 C7.52318359 38.56927734 7.48386719 37.57605469 7.44335938 36.55273438 C7.40146484 35.60849609 7.35957031 34.66425781 7.31640625 33.69140625 C7.27974854 32.81685791 7.24309082 31.94230957 7.20532227 31.04125977 C7.21818934 29.0072598 7.21818934 29.0072598 6 28 C5.67 28.66 5.34 29.32 5 30 C4.01 30 3.02 30 2 30 C0.64932025 19.93020011 -0.31860272 10.17758697 0 0 Z " fill="#F3E39C" transform="translate(152,262)"/>
<path d="M0 0 C0 0.33 0 0.66 0 1 C-1.051875 1.268125 -2.10375 1.53625 -3.1875 1.8125 C-6.57519246 2.8676829 -9.07089567 4.04726378 -12 6 C-11.01 9.63 -10.02 13.26 -9 17 C-12.63 17 -16.26 17 -20 17 C-19.01 16.34 -18.02 15.68 -17 15 C-17.42152344 14.15695312 -17.84304687 13.31390625 -18.27734375 12.4453125 C-20.18489583 8.63020833 -22.09244792 4.81510417 -24 1 C-22.91332031 1.14308594 -22.91332031 1.14308594 -21.8046875 1.2890625 C-13.98138312 2.18613474 -7.69557557 -0.30782302 0 0 Z " fill="#F6D45B" transform="translate(117,331)"/>
<path d="M0 0 C1.05574219 0.00580078 1.05574219 0.00580078 2.1328125 0.01171875 C7.11262916 0.09471569 11.41607427 0.68035809 16.125 2.25 C16.125 2.91 16.125 3.57 16.125 4.25 C14.93261719 4.21519531 13.74023438 4.18039062 12.51171875 4.14453125 C10.94532658 4.11639247 9.37891919 4.0890924 7.8125 4.0625 C7.02681641 4.03736328 6.24113281 4.01222656 5.43164062 3.98632812 C4.67431641 3.97666016 3.91699219 3.96699219 3.13671875 3.95703125 C2.44022217 3.9413208 1.74372559 3.92561035 1.02612305 3.90942383 C-1.43281981 4.34993048 -2.19298512 5.46452956 -3.875 7.25 C-5.86485949 7.63932033 -7.86699544 7.96887936 -9.875 8.25 C-12.62756244 9.09979475 -12.62756244 9.09979475 -14.875 10.25 C-15.205 10.91 -15.535 11.57 -15.875 12.25 C-15 4.5 -15 4.5 -13.875 2.25 C-9.26675944 0.26103295 -4.95103908 -0.06563878 0 0 Z " fill="#F6CA38" transform="translate(86.875,256.75)"/>
<path d="M0 0 C0.54085112 2.10577279 1.0267049 4.16468022 1.375 6.3125 C1.9576683 9.18735098 1.9576683 9.18735098 3.5 12.4375 C5.67928496 17.61330178 6.44633059 21.53608443 5 27 C4.67 26.34 4.34 25.68 4 25 C3.34 25 2.68 25 2 25 C1.566875 24.030625 1.13375 23.06125 0.6875 22.0625 C-0.7014861 18.72268235 -0.7014861 18.72268235 -4 18 C-4 18.66 -4 19.32 -4 20 C-4.66 20 -5.32 20 -6 20 C-4.38808348 13.14078075 -2.64031672 6.53792711 0 0 Z " fill="#FDF49C" transform="translate(60,263)"/>
<path d="M0 0 C0.66 0 1.32 0 2 0 C1.22533525 6.68595272 -3.26931954 10.56011099 -8 15 C-13.37104891 19.05885031 -18.22550812 21.70545687 -25 22 C-21.66719942 18.45889939 -18.17598587 15.5576058 -14.26171875 12.6796875 C-11.68272546 10.76437296 -9.14833401 8.80058134 -6.625 6.8125 C-5.37589844 5.83216797 -5.37589844 5.83216797 -4.1015625 4.83203125 C-1.80477829 2.99174818 -1.80477829 2.99174818 0 0 Z " fill="#EEA503" transform="translate(152,312)"/>
<path d="M0 0 C1.3293457 0.00483398 1.3293457 0.00483398 2.68554688 0.00976562 C4.05356445 0.02233398 4.05356445 0.02233398 5.44921875 0.03515625 C6.38056641 0.03966797 7.31191406 0.04417969 8.27148438 0.04882812 C10.55996248 0.06056391 12.84830683 0.07698262 15.13671875 0.09765625 C13.58148258 7.92993781 4.34369387 14.444702 -1.92578125 18.97265625 C-10.16640031 24.40574579 -18.25219282 27.85019641 -27.86328125 30.09765625 C-27.86328125 29.43765625 -27.86328125 28.77765625 -27.86328125 28.09765625 C-26.83589844 27.74574219 -25.80851563 27.39382812 -24.75 27.03125 C-11.57877013 22.39683978 6.4786135 14.41386674 13.13671875 1.09765625 C5.54671875 1.42765625 -2.04328125 1.75765625 -9.86328125 2.09765625 C-9.86328125 1.76765625 -9.86328125 1.43765625 -9.86328125 1.09765625 C-6.51236354 0.34402573 -3.43218313 -0.02214312 0 0 Z " fill="#F4F6F6" transform="translate(191.86328125,60.90234375)"/>
<path d="M0 0 C1.21776733 2.43553467 1.18809106 4.25464401 0.7734375 6.921875 C-1.09649203 11.9461301 -5.61537197 16.66971528 -10.26171875 19.26171875 C-11.12216797 19.62716797 -11.12216797 19.62716797 -12 20 C-11.45276317 16.62537285 -10.9451 14.91765 -9 12 C-8.87753906 11.19175781 -8.75507813 10.38351562 -8.62890625 9.55078125 C-7.82534716 6.29162544 -6.51784168 5.27634802 -3.9375 3.1875 C-3.20402344 2.58292969 -2.47054687 1.97835938 -1.71484375 1.35546875 C-1.14894531 0.90816406 -0.58304688 0.46085937 0 0 Z M-11 9 C-9 10 -9 10 -9 10 Z " fill="#F7CF34" transform="translate(152,319)"/>
<path d="M0 0 C0.46148437 0.35191406 0.92296875 0.70382812 1.3984375 1.06640625 C6.83765655 5.18344359 12.39245772 9.11608752 18 13 C17.67 13.99 17.34 14.98 17 16 C17.99 16.33 18.98 16.66 20 17 C12.21670168 16.22167017 6.04821006 12.99474944 1 7 C1 6.34 1 5.68 1 5 C0.68197057 3.33034549 0.35015049 1.66321482 0 0 Z " fill="#E1AF4B" transform="translate(71,341)"/>
<path d="M0 0 C13.86 0.99 13.86 0.99 28 2 C28.33 1.34 28.66 0.68 29 0 C31 2 31 2 31 5 C9.25514642 5.60278342 9.25514642 5.60278342 2 2 C1.34 1.34 0.68 0.68 0 0 Z " fill="#9FBFC1" transform="translate(159,106)"/>
<path d="M0 0 C3 1 3 1 4.39453125 3.31323242 C4.86246094 4.31717041 5.33039062 5.3211084 5.8125 6.35546875 C6.33070312 7.45310547 6.84890625 8.55074219 7.3828125 9.68164062 C8.18332031 11.41704102 8.18332031 11.41704102 9 13.1875 C10.06228958 15.45192164 11.12478323 17.71624756 12.1875 19.98046875 C12.65542969 20.99004639 13.12335938 21.99962402 13.60546875 23.03979492 C14.58580339 25.12077488 15.63726014 27.16899644 16.73828125 29.1887207 C18 32 18 32 17 35 C14.47740939 33.02579865 14.0070192 32.03254358 13.3125 28.8125 C13.1578125 27.4203125 13.1578125 27.4203125 13 26 C12.34 26 11.68 26 11 26 C10.16260219 23.8765984 9.33019717 21.7512272 8.5 19.625 C8.0359375 18.44164062 7.571875 17.25828125 7.09375 16.0390625 C6 13 6 13 6 11 C5.34 11 4.68 11 4 11 C0 4.5 0 4.5 0 0 Z " fill="#F2C037" transform="translate(54,298)"/>
<path d="M0 0 C2.875 0.6875 2.875 0.6875 6 2 C7.1875 4.3125 7.1875 4.3125 8 7 C8.7734375 8.2684375 8.7734375 8.2684375 9.5625 9.5625 C10.88604347 11.80676936 11.39894323 13.50990765 12 16 C12.66 16.66 13.32 17.32 14 18 C7.375 18.25 7.375 18.25 4 16 C4.99 15.67 5.98 15.34 7 15 C6.4946875 14.00097656 5.989375 13.00195312 5.46875 11.97265625 C4.81239538 10.66932351 4.15615107 9.36593523 3.5 8.0625 C3.16613281 7.40314453 2.83226563 6.74378906 2.48828125 6.06445312 C0 1.11328125 0 1.11328125 0 0 Z " fill="#F6DB6F" transform="translate(88,329)"/>
<path d="M0 0 C0.33 0 0.66 0 1 0 C1 7.26 1 14.52 1 22 C0.67 21.01 0.34 20.02 0 19 C-0.66 19 -1.32 19 -2 19 C-2 23.95 -2 28.9 -2 34 C-2.33 34 -2.66 34 -3 34 C-3.05864392 30.33340185 -3.09381108 26.66692636 -3.125 23 C-3.14175781 21.97003906 -3.15851563 20.94007813 -3.17578125 19.87890625 C-3.22179344 12.65499218 -2.28602215 6.85806644 0 0 Z " fill="#70A5A9" transform="translate(128,116)"/>
<path d="M0 0 C0.33 0 0.66 0 1 0 C1 1.65 1 3.3 1 5 C1.99 5 2.98 5 4 5 C5.01085428 8.34386398 5.11543463 11.3748118 5.09765625 14.859375 C5.09443359 15.97441406 5.09121094 17.08945312 5.08789062 18.23828125 C5.07951172 19.39714844 5.07113281 20.55601562 5.0625 21.75 C5.05798828 22.92433594 5.05347656 24.09867187 5.04882812 25.30859375 C5.03705094 28.20578072 5.02060326 31.10286454 5 34 C4.67 34 4.34 34 4 34 C3.97494385 33.36908447 3.9498877 32.73816895 3.92407227 32.08813477 C3.80845863 29.24603175 3.68557684 26.40428917 3.5625 23.5625 C3.52318359 22.56927734 3.48386719 21.57605469 3.44335938 20.55273438 C3.40146484 19.60849609 3.35957031 18.66425781 3.31640625 17.69140625 C3.27974854 16.81685791 3.24309082 15.94230957 3.20532227 15.04125977 C3.21818934 13.0072598 3.21818934 13.0072598 2 12 C1.67 12.66 1.34 13.32 1 14 C0.01 14 -0.98 14 -2 14 C-2 12.02 -2 10.04 -2 8 C-1.34 8 -0.68 8 0 8 C0 5.36 0 2.72 0 0 Z " fill="#E6CF87" transform="translate(156,278)"/>
<path d="M0 0 C3.67484358 4.15273803 5.85617512 8.50513457 8.125 13.5 C8.64513672 14.61955078 8.64513672 14.61955078 9.17578125 15.76171875 C10.13321759 17.83432998 11.06931792 19.91527214 12 22 C12.43054688 22.9384375 12.86109375 23.876875 13.3046875 24.84375 C14 27 14 27 13 30 C11.32326863 26.90116855 9.6603866 23.79511545 8 20.6875 C7.52304688 19.80642578 7.04609375 18.92535156 6.5546875 18.01757812 C5.87792969 16.74624023 5.87792969 16.74624023 5.1875 15.44921875 C4.55908203 14.27879028 4.55908203 14.27879028 3.91796875 13.0847168 C3 11 3 11 3 8 C2.34 8 1.68 8 1 8 C0.67 5.36 0.34 2.72 0 0 Z " fill="#F3E7AD" transform="translate(138,232)"/>
<path d="M0 0 C1.5 1.375 1.5 1.375 3 3 C3 3.66 3 4.32 3 5 C3.66 5 4.32 5 5 5 C5.83739781 7.1234016 6.66980283 9.2487728 7.5 11.375 C7.9640625 12.55835938 8.428125 13.74171875 8.90625 14.9609375 C10 18 10 18 10 20 C10.66 20 11.32 20 12 20 C12.33 21.65 12.66 23.3 13 25 C6.38315062 18.93455473 2.78384525 11.46999726 0 3 C0 2.01 0 1.02 0 0 Z " fill="#F1B625" transform="translate(55,304)"/>
<path d="M0 0 C0.66 0.33 1.32 0.66 2 1 C-1.2689246 5.32651785 -3.73921013 8.14325064 -9 10 C-13.31824744 10.51720454 -16.2699189 10.48672073 -20 8 C-19.05898437 7.75765625 -18.11796875 7.5153125 -17.1484375 7.265625 C-15.28058594 6.76289063 -15.28058594 6.76289063 -13.375 6.25 C-12.14523438 5.92515625 -10.91546875 5.6003125 -9.6484375 5.265625 C-5.79754862 3.92977061 -3.25949155 2.38695074 0 0 Z " fill="#F3C21F" transform="translate(139,339)"/>
<path d="M0 0 C1.28442235 4.9542005 2.17794877 9.95025672 3 15 C2.01 14.67 1.02 14.34 0 14 C0.33 14.53625 0.66 15.0725 1 15.625 C2.22699204 18.5391061 2.14233286 20.86867708 2 24 C1.731875 23.443125 1.46375 22.88625 1.1875 22.3125 C0.04054712 19.93958574 0.04054712 19.93958574 -1.62109375 17.73828125 C-3.35584677 14.29334678 -3.01783755 12.61118513 -2.25 8.875 C-2.04890625 7.84117187 -1.8478125 6.80734375 -1.640625 5.7421875 C-1 3 -1 3 0 0 Z " fill="#FCED87" transform="translate(63,255)"/>
<path d="M0 0 C0.33 0 0.66 0 1 0 C0.9278125 0.62261719 0.855625 1.24523437 0.78125 1.88671875 C-0.25913048 12.24717437 -0.09500704 22.59892113 0 33 C-0.33 33 -0.66 33 -1 33 C-2.29235715 28.08497242 -2.11135517 23.22709898 -2.0625 18.1875 C-2.05798828 17.30384766 -2.05347656 16.42019531 -2.04882812 15.50976562 C-2.03709866 13.33981441 -2.01916495 11.16989828 -2 9 C-2.66 9 -3.32 9 -4 9 C-2.25 2.25 -2.25 2.25 0 0 Z " fill="#EEE5CC" transform="translate(118,148)"/>
<path d="M0 0 C4.83290538 4.049191 6.3833652 7.96719209 8 14 C5.39445677 13.64789956 3.48398695 13.35614134 1.34375 11.78125 C-0.47665317 9.36815742 -0.30382384 7.79814534 -0.1875 4.8125 C-0.16042969 3.91144531 -0.13335937 3.01039063 -0.10546875 2.08203125 C-0.07066406 1.39496094 -0.03585938 0.70789063 0 0 Z " fill="#E4A931" transform="translate(66,334)"/>
<path d="M0 0 C0.33 1.32 0.66 2.64 1 4 C2.32 4.33 3.64 4.66 5 5 C5 5.66 5 6.32 5 7 C5.66 7 6.32 7 7 7 C6.25 11.75 6.25 11.75 4 14 C0.53111289 11.13816813 -0.91014246 9.88359915 -1.375 5.3125 C-1 2 -1 2 0 0 Z " fill="#F5C636" transform="translate(73,234)"/>
<path d="M0 0 C4.72065967 1.54269924 9.41664092 3.07794619 14 5 C14 5.66 14 6.32 14 7 C14.99 7.33 15.98 7.66 17 8 C17 8.33 17 8.66 17 9 C13.7 8.67 10.4 8.34 7 8 C7 7.34 7 6.68 7 6 C6.030625 5.566875 5.06125 5.13375 4.0625 4.6875 C1 3 1 3 0 0 Z " fill="#C7952C" transform="translate(86,343)"/>
<path d="M0 0 C1.32 0 2.64 0 4 0 C4 0.66 4 1.32 4 2 C4.99 1.67 5.98 1.34 7 1 C7.66 1.33 8.32 1.66 9 2 C9 2.66 9 3.32 9 4 C11.64 4.33 14.28 4.66 17 5 C17 5.66 17 6.32 17 7 C19.475 7.495 19.475 7.495 22 8 C15.33498048 10.20666187 8.47042935 5.89908117 2.53125 2.96484375 C1 2 1 2 0 0 Z " fill="#FCE76E" transform="translate(77,293)"/>
<path d="M0 0 C1.93681161 -0.08107583 3.8745934 -0.13922475 5.8125 -0.1875 C6.89144531 -0.22230469 7.97039062 -0.25710938 9.08203125 -0.29296875 C12 0 12 0 13.88671875 1.51171875 C14.25410156 2.00285156 14.62148437 2.49398438 15 3 C13.27026886 4.72973114 10.97483037 4.17208117 8.625 4.1875 C7.64789063 4.20167969 6.67078125 4.21585937 5.6640625 4.23046875 C3 4 3 4 0 2 C0 1.34 0 0.68 0 0 Z " fill="#E6AB29" transform="translate(100,348)"/>
<path d="M0 0 C-1.65 1.65 -3.3 3.3 -5 5 C-4.67 5.66 -4.34 6.32 -4 7 C-7.63 7 -11.26 7 -15 7 C-11.60673958 3.07654264 -5.51038576 -2.75519288 0 0 Z " fill="#F3BB28" transform="translate(130,329)"/>
<path d="M0 0 C0.33 1.32 0.66 2.64 1 4 C-5.69620516 7.48202669 -11.66117837 10.16235292 -19.25 10.0625 C-20.14203125 10.05347656 -21.0340625 10.04445313 -21.953125 10.03515625 C-22.62859375 10.02355469 -23.3040625 10.01195313 -24 10 C-23.67 9.01 -23.34 8.02 -23 7 C-21.83984375 7.06960937 -21.83984375 7.06960937 -20.65625 7.140625 C-13.82362308 7.3773992 -8.65074271 7.071258 -3 3 C-1.97696787 2.02357526 -0.9700795 1.0290509 0 0 Z " fill="#E9EDED" transform="translate(134,92)"/>
<path d="M0 0 C1.375 0.91666667 2.75 1.83333333 4.125 2.75 C4.95257813 3.29785156 5.78015625 3.84570312 6.6328125 4.41015625 C8.44894447 5.62990165 10.23230662 6.89855691 12 8.1875 C15.8202246 10.49555236 19.73510538 11.74896424 24 13 C24 13.33 24 13.66 24 14 C15.33711809 13.83340612 8.04103195 9.60615269 1.640625 3.89453125 C0 2 0 2 0 0 Z " fill="#AA7E24" transform="translate(71,336)"/>
<path d="M0 0 C2.97 0.495 2.97 0.495 6 1 C6 1.66 6 2.32 6 3 C7.98 3 9.96 3 12 3 C12 3.66 12 4.32 12 5 C15.3 5.33 18.6 5.66 22 6 C21.67 6.99 21.34 7.98 21 9 C14.1246008 7.30363982 7.18817408 5.55460232 1 2 C0.67 1.34 0.34 0.68 0 0 Z " fill="#B7CED0" transform="translate(101,83)"/>
<path d="M0 0 C1.42122196 4.26366589 -0.45966206 6.9404554 -2.25 10.8125 C-2.56324219 11.51181641 -2.87648437 12.21113281 -3.19921875 12.93164062 C-5.03583816 17.00497288 -6.97534826 21.01619995 -9 25 C-9.33 25.66 -9.66 26.32 -10 27 C-10.99 27 -11.98 27 -13 27 C-11.70949346 23.53214592 -10.18242149 20.54831425 -8.1875 17.4375 C-4.77969521 11.88621112 -2.35322196 6.06006717 0 0 Z " fill="#F2F4F4" transform="translate(166,49)"/>
<path d="M0 0 C2 3 2 3 2 5 C2.99 5.6496875 2.99 5.6496875 4 6.3125 C6 8 6 8 6.25 10.6875 C6.1675 11.450625 6.085 12.21375 6 13 C5.67 12.34 5.34 11.68 5 11 C4.175 10.835 3.35 10.67 2.5 10.5 C1.675 10.335 0.85 10.17 0 10 C-1.36952673 7.26094655 -1.12621361 5.02912668 -1 2 C-0.67 1.34 -0.34 0.68 0 0 Z " fill="#F6CE48" transform="translate(71,238)"/>
<path d="M0 0 C3.54243452 1.36591169 6.92627929 2.90931484 10.3125 4.625 C11.63701172 5.29402344 11.63701172 5.29402344 12.98828125 5.9765625 C13.65214844 6.31429688 14.31601563 6.65203125 15 7 C14.67 7.66 14.34 8.32 14 9 C9.80500604 8.46351765 7.45751442 7.14637983 4.1875 4.5 C3.39730469 3.8709375 2.60710937 3.241875 1.79296875 2.59375 C1.20128906 2.0678125 0.60960938 1.541875 0 1 C0 0.67 0 0.34 0 0 Z " fill="#FDF697" transform="translate(83,323)"/>
<path d="M0 0 C0 1.65 0 3.3 0 5 C-0.556875 5.2475 -1.11375 5.495 -1.6875 5.75 C-4.39971127 7.21606015 -6.63587365 9.02989471 -9 11 C-4.91428571 0 -4.91428571 0 0 0 Z " fill="#F2B824" transform="translate(157,303)"/>
<path d="M0 0 C2.88437779 1.29299694 4.87219421 2.65941363 7 5 C5.35 6.32 3.7 7.64 2 9 C-0.29013653 5.5647952 -0.17842973 4.014669 0 0 Z " fill="#F9D754" transform="translate(69,289)"/>
<path d="M0 0 C4.35486002 5.22583202 6.31408515 8.09012671 6 15 C3 11.375 3 11.375 3 8 C2.34 8 1.68 8 1 8 C0.67 5.36 0.34 2.72 0 0 Z " fill="#F2DF91" transform="translate(138,232)"/>
<path d="M0 0 C2.29158942 2.89818662 4.07862366 5.83140544 5.75 9.125 C6.19859375 9.99382812 6.6471875 10.86265625 7.109375 11.7578125 C7.40328125 12.49773437 7.6971875 13.23765625 8 14 C7.67 14.66 7.34 15.32 7 16 C4 14 4 14 3.3125 11.375 C3.209375 10.59125 3.10625 9.8075 3 9 C2.34 9 1.68 9 1 9 C0.67 6.03 0.34 3.06 0 0 Z " fill="#F0DEAB" transform="translate(125,205)"/>
<path d="M0 0 C0.33 0 0.66 0 1 0 C1.25 6.625 1.25 6.625 -1 10 C-1.66 10 -2.32 10 -3 10 C-3 7.36 -3 4.72 -3 2 C-2.01 2 -1.02 2 0 2 C0 1.34 0 0.68 0 0 Z " fill="#F5CE4F" transform="translate(157,290)"/>
<path d="M0 0 C2.90039305 2.46700099 3.97011276 4.9468802 5.25 8.5 C5.78367188 9.93859375 5.78367188 9.93859375 6.328125 11.40625 C7 14 7 14 6 17 C3.59185923 13.48812804 2.63370592 11.27343092 3 7 C2.34 7 1.68 7 1 7 C0.67 4.69 0.34 2.38 0 0 Z " fill="#ABC5C7" transform="translate(130,46)"/>
<path d="M0 0 C0.33 0 0.66 0 1 0 C1.53251766 1.91345327 2.05059483 3.8309295 2.5625 5.75 C2.85253906 6.81734375 3.14257812 7.8846875 3.44140625 8.984375 C3.97098494 11.84335927 3.98370862 13.31597383 3 16 C-0.40208828 12.59791172 -0.05433827 8.22821408 -0.0625 3.625 C-0.041875 2.42875 -0.02125 1.2325 0 0 Z " fill="#EBCF92" transform="translate(118,183)"/>
<path d="M0 0 C0.99 0.33 1.98 0.66 3 1 C1.68 1.99 0.36 2.98 -1 4 C0.65 4.33 2.3 4.66 4 5 C4 5.33 4 5.66 4 6 C1.03 6 -1.94 6 -5 6 C-3 2 -3 2 0 0 Z " fill="#F4C63A" transform="translate(117,331)"/>
<path d="M0 0 C3.44165321 0.35299007 5.06872538 1.04581692 8 3 C5.23749964 4.38125018 3.05268901 4.19079306 0 4 C-0.66 3.34 -1.32 2.68 -2 2 C-1.34 1.34 -0.68 0.68 0 0 Z " fill="#FAE479" transform="translate(98,330)"/>
<path d="M0 0 C2.32590854 3.63423209 2.16265833 6.77088331 2 11 C1.34 11 0.68 11 0 11 C-1.16461426 7.50615721 -1.13568319 4.66344611 -1 1 C-0.67 0.67 -0.34 0.34 0 0 Z " fill="#FDF697" transform="translate(154,275)"/>
<path d="M0 0 C2.47186455 2.96346786 3.66248361 5.54041689 4.6875 9.25 C4.93886719 10.14203125 5.19023437 11.0340625 5.44921875 11.953125 C5.72185547 12.96632813 5.72185547 12.96632813 6 14 C2.81318137 11.06312793 1.5010482 8.07427367 0 4 C0 2.68 0 1.36 0 0 Z " fill="#ADC6C8" transform="translate(182,256)"/>
<path d="M0 0 C2.95749791 3.46741134 5.07848152 6.86873527 7 11 C6.01 11 5.02 11 4 11 C3.32591692 9.73308493 2.66099503 8.46129251 2 7.1875 C1.62875 6.47980469 1.2575 5.77210938 0.875 5.04296875 C0 3 0 3 0 0 Z " fill="#EFCB58" transform="translate(73,327)"/>
<path d="M0 0 C2.3129482 2.3129482 2.49580975 3.47904875 3.125 6.625 C3.29257813 7.44226563 3.46015625 8.25953125 3.6328125 9.1015625 C3.81457031 10.04128906 3.81457031 10.04128906 4 11 C2 10 2 10 0 8 C-0.36933645 5.24627091 -0.18336678 2.79634339 0 0 Z " fill="#F1E8C0" transform="translate(152,262)"/>
<path d="M0 0 C0.33 1.32 0.66 2.64 1 4 C-0.65 5.32 -2.3 6.64 -4 8 C-4.33 7.34 -4.66 6.68 -5 6 C-4.67 5.01 -4.34 4.02 -4 3 C-3.01 2.67 -2.02 2.34 -1 2 C-0.67 1.34 -0.34 0.68 0 0 Z " fill="#F3C43B" transform="translate(157,297)"/>
<path d="M0 0 C0.33 0 0.66 0 1 0 C0.67 3.96 0.34 7.92 0 12 C-0.33 12 -0.66 12 -1 12 C-1.22162329 10.37675914 -1.42689803 8.751279 -1.625 7.125 C-1.74101563 6.22007812 -1.85703125 5.31515625 -1.9765625 4.3828125 C-1.98429687 3.59648437 -1.99203125 2.81015625 -2 2 C-1.34 1.34 -0.68 0.68 0 0 Z " fill="#F9F6EE" transform="translate(118,148)"/>
<path d="M0 0 C0.66 0 1.32 0 2 0 C3.16063604 4.25566547 2.76173392 7.6835078 2 12 C1.67 12 1.34 12 1 12 C0.67 8.04 0.34 4.08 0 0 Z " fill="#27757B" transform="translate(126,135)"/>
<path d="M0 0 C2.31 0.66 4.62 1.32 7 2 C7 2.66 7 3.32 7 4 C4.36 3.67 1.72 3.34 -1 3 C-0.67 2.01 -0.34 1.02 0 0 Z " fill="#E1A526" transform="translate(89,354)"/>
<path d="M0 0 C2.875 0.3125 2.875 0.3125 6 1 C6.66 1.99 7.32 2.98 8 4 C4.28400809 4.20086443 3.22791555 4.1519437 0 2 C0 1.34 0 0.68 0 0 Z " fill="#D8A029" transform="translate(100,348)"/>
<path d="M0 0 C0.66 0.33 1.32 0.66 2 1 C0.35 2.65 -1.3 4.3 -3 6 C-3.99 5.67 -4.98 5.34 -6 5 C-2.25 1.125 -2.25 1.125 0 0 Z " fill="#F1B51F" transform="translate(128,328)"/>
<path d="M0 0 C0.99 0 1.98 0 3 0 C3 1.98 3 3.96 3 6 C2.01 6 1.02 6 0 6 C0 4.02 0 2.04 0 0 Z " fill="#F9E074" transform="translate(154,286)"/>
<path d="M0 0 C3.44216672 2.6598561 3.99504674 5.90288286 5 10 C4.34 9.67 3.68 9.34 3 9 C3 8.34 3 7.68 3 7 C2.34 7 1.68 7 1 7 C0.67 4.69 0.34 2.38 0 0 Z " fill="#EFE2B5" transform="translate(133,222)"/>
<path d="M0 0 C0.33 0 0.66 0 1 0 C1 1.98 1 3.96 1 6 C-0.875 5.6875 -0.875 5.6875 -3 5 C-3.66 4.01 -4.32 3.02 -5 2 C-3.68 2 -2.36 2 -1 2 C-0.67 1.34 -0.34 0.68 0 0 Z " fill="#76A4A8" transform="translate(152,111)"/>
<path d="M0 0 C2.31 0 4.62 0 7 0 C7 0.66 7 1.32 7 2 C5.02 2.99 5.02 2.99 3 4 C2.01 3.34 1.02 2.68 0 2 C0 1.34 0 0.68 0 0 Z " fill="#FDEA65" transform="translate(99,304)"/>
<path d="M0 0 C2.26185454 2.26185454 3.03921617 3.96983561 4 7 C3.67 7.99 3.34 8.98 3 10 C-0.22265625 4.82421875 -0.22265625 4.82421875 -1 3 C-0.67 2.01 -0.34 1.02 0 0 Z " fill="#F1ECCE" transform="translate(148,252)"/>
<path d="M0 0 C3.875 1.75 3.875 1.75 5 4 C3.35 3.67 1.7 3.34 0 3 C0 2.01 0 1.02 0 0 Z " fill="#FDFDFD" transform="translate(88,361)"/>
</svg>
