<?xml version="1.0" encoding="UTF-8"?>
<svg version="1.1" xmlns="http://www.w3.org/2000/svg" width="209" height="262">
<path d="M0 0 C3.52420652 0.64955963 5.85266311 1.23250457 8.8671875 3.2421875 C9.0734375 4.17289063 9.2796875 5.10359375 9.4921875 6.0625 C11.57927346 10.88888628 15.25409417 11.97047453 19.8671875 14.1171875 C27.30980225 17.79856296 33.66451236 21.66568718 39.8671875 27.2421875 C40.86685547 28.03109375 40.86685547 28.03109375 41.88671875 28.8359375 C59.50250984 43.01195873 69.90295645 66.25291633 72.8671875 88.2421875 C74.32100759 107.52054796 72.43127592 125.76240586 63.8671875 143.2421875 C63.43792969 144.139375 63.00867188 145.0365625 62.56640625 145.9609375 C53.08947101 164.54106968 38.15211733 178.49470652 19.8671875 188.2421875 C19.2071875 188.2421875 18.5471875 188.2421875 17.8671875 188.2421875 C17.6815625 188.9021875 17.4959375 189.5621875 17.3046875 190.2421875 C12.50581843 200.25721861 3.28411317 206.66127765 -6.8359375 210.48046875 C-15.27756131 213.27998685 -27.48123048 214.33276066 -35.8203125 210.8046875 C-37.28201402 209.9926311 -38.71591445 209.13011028 -40.1328125 208.2421875 C-41.3498194 207.54123568 -42.56876175 206.84363914 -43.7890625 206.1484375 C-58.56618719 197.5989308 -58.56618719 197.5989308 -63.125 191.63671875 C-65.55419771 188.73964055 -67.86778704 187.57568781 -71.2578125 185.9296875 C-93.59205013 174.32683941 -109.31746574 153.88375521 -117.1328125 130.2421875 C-124.87005205 103.31887791 -121.63295914 76.22950287 -108.35229492 51.6472168 C-104.93529461 45.60601083 -100.81457932 40.36385187 -96.1328125 35.2421875 C-95.38515625 34.40171875 -94.6375 33.56125 -93.8671875 32.6953125 C-79.84198369 17.74128724 -58.75624357 6.13498916 -38.1328125 4.2421875 C-31.33102594 4.0687963 -24.53130939 4.1394668 -17.73217773 4.38891602 C-16.43610596 4.42299561 -15.14003418 4.4570752 -13.8046875 4.4921875 C-12.6403418 4.53859375 -11.47599609 4.585 -10.27636719 4.6328125 C-5.85220454 4.08305635 -4.08797591 0.46420239 0 0 Z M-65.1328125 14.2421875 C-66.03 14.67144531 -66.9271875 15.10070313 -67.8515625 15.54296875 C-90.59046469 27.1411157 -106.68964626 47.0393077 -115.4453125 70.8046875 C-123.11967121 95.63349508 -121.26769274 121.71229177 -109.21435547 144.80371094 C-99.60402512 162.42788185 -85.80872882 176.70682948 -68.1328125 186.2421875 C-67.4728125 186.2421875 -66.8128125 186.2421875 -66.1328125 186.2421875 C-66.82708668 181.33195852 -67.78659268 177.49288347 -71.5 174.04296875 C-74.33780948 172.04235237 -77.22199304 170.13462109 -80.1328125 168.2421875 C-97.80319955 155.13397311 -107.15905238 133.96499951 -110.71484375 112.7734375 C-113.46898608 89.50479574 -107.82982741 65.84162628 -93.3828125 47.1796875 C-79.06917096 30.11134513 -62.55162018 19.19872658 -40.42578125 15.078125 C-38.00308303 14.44367587 -38.00308303 14.44367587 -36.80859375 12.34375 C-35.97975063 10.13411543 -35.97975063 10.13411543 -36.1328125 7.2421875 C-25.35167557 7.45320619 -25.35167557 7.45320619 -21.8203125 10.8046875 C-19.31650537 13.56594713 -19.31650537 13.56594713 -15.7578125 13.5546875 C-14.8915625 13.4515625 -14.0253125 13.3484375 -13.1328125 13.2421875 C-11.8128125 10.9321875 -10.4928125 8.6221875 -9.1328125 6.2421875 C-26.99122713 1.18883093 -48.89489249 6.28653991 -65.1328125 14.2421875 Z M10.8671875 12.2421875 C10.5371875 14.5521875 10.2071875 16.8621875 9.8671875 19.2421875 C10.96675781 19.85964844 12.06632813 20.47710937 13.19921875 21.11328125 C36.664993 34.47481276 53.08959428 51.46446509 60.6171875 78.1171875 C66.55733479 100.70356148 63.22324041 124.93060447 52.02636719 145.28320312 C45.69960247 155.9752756 37.33458341 165.32062129 26.9921875 172.1796875 C23.1097353 174.88075729 21.19743992 176.56345514 20.1796875 181.2421875 C19.89799264 183.44657824 19.89799264 183.44657824 19.8671875 185.2421875 C37.33541001 180.22554039 52.30388094 161.57722967 60.8671875 146.2421875 C72.80886876 122.90045631 75.49109625 96.25958481 67.6484375 71.21875 C62.51850906 55.96527159 54.25869135 43.50368845 42.8671875 32.2421875 C42.07699219 31.44167969 41.28679687 30.64117187 40.47265625 29.81640625 C35.76335604 25.29454087 30.7347622 21.68951228 25.1796875 18.3046875 C24.5619043 17.92675049 23.94412109 17.54881348 23.30761719 17.15942383 C19.24928214 14.78374694 15.43529513 13.36222416 10.8671875 12.2421875 Z M-86.1953125 39.8046875 C-102.6747263 56.93908595 -111.34707972 79.50363461 -111.1328125 103.2421875 C-109.93988321 129.43476549 -98.34841857 150.36584768 -79.2578125 167.8046875 C-76.3880799 170.34161841 -73.4566503 172.33706096 -70.1328125 174.2421875 C-69.48780893 170.40799961 -69.32633442 167.06182599 -70.1328125 163.2421875 C-73.01296992 159.67465523 -76.54626313 157.07145958 -80.1328125 154.2421875 C-94.46022478 140.36781592 -100.73857162 120.54535177 -101.4453125 100.9921875 C-100.92818468 78.82033205 -92.53144105 59.18372962 -76.66699219 43.64697266 C-65.60019575 33.51356293 -52.36550626 28.29250894 -38.1328125 24.2421875 C-38.1328125 21.2721875 -38.1328125 18.3021875 -38.1328125 15.2421875 C-55.2435897 15.2421875 -74.39586385 28.73698761 -86.1953125 39.8046875 Z M9.8671875 21.2421875 C9.8244665 22.90830655 9.82654918 24.57601635 9.8671875 26.2421875 C11.67834706 28.05334706 14.47996977 27.62418198 16.9296875 27.8046875 C18.58677734 27.93037109 18.58677734 27.93037109 20.27734375 28.05859375 C21.13199219 28.11917969 21.98664063 28.17976563 22.8671875 28.2421875 C17.05898761 23.17960104 17.05898761 23.17960104 9.8671875 21.2421875 Z M-83.3203125 51.8046875 C-97.47789748 69.54105788 -101.97394493 89.88968913 -100.1328125 112.2421875 C-97.64968721 131.99941532 -85.60020954 150.19280901 -70.1328125 162.2421875 C-69.8028125 162.2421875 -69.4728125 162.2421875 -69.1328125 162.2421875 C-68.92527344 161.28441406 -68.71773437 160.32664063 -68.50390625 159.33984375 C-63.16296814 135.78639656 -51.16284133 115.04393969 -39.5703125 94.0546875 C-39.17739014 93.34320557 -38.78446777 92.63172363 -38.37963867 91.89868164 C-36.65329302 88.81327402 -34.88337705 85.83879913 -32.85546875 82.94140625 C-30.86382244 80.354389 -30.86382244 80.354389 -31.1328125 77.2421875 C-30.4728125 77.2421875 -29.8128125 77.2421875 -29.1328125 77.2421875 C-28.90999376 75.32715076 -28.70510174 73.41002244 -28.5078125 71.4921875 C-28.33378906 69.89117187 -28.33378906 69.89117187 -28.15625 68.2578125 C-28.12234856 63.895827 -29.35977215 62.08343729 -32.2578125 58.9296875 C-34.54600366 56.7907262 -36.87023164 54.76548672 -39.2578125 52.7421875 C-45.05829843 47.64081852 -46.4514646 43.88382106 -47.01953125 36.25390625 C-47.07560547 35.25810547 -47.07560547 35.25810547 -47.1328125 34.2421875 C-46.22595703 34.01982422 -46.22595703 34.01982422 -45.30078125 33.79296875 C-42.73641127 33.14148016 -40.4930605 32.45420674 -38.1328125 31.2421875 C-37.15547593 29.25442874 -37.15547593 29.25442874 -37.1328125 27.2421875 C-38.15595867 26.00531566 -38.15595867 26.00531566 -40.3125 26.046875 C-56.58687145 27.17390903 -72.96736249 40.13783099 -83.3203125 51.8046875 Z M25.8671875 30.2421875 C26.0528125 31.3146875 26.2384375 32.3871875 26.4296875 33.4921875 C26.8671875 37.2421875 26.8671875 37.2421875 26.1796875 39.4296875 C26.0765625 40.0278125 25.9734375 40.6259375 25.8671875 41.2421875 C27.59656579 43.55496867 27.59656579 43.55496867 29.8671875 45.2421875 C30.5271875 45.2421875 31.1871875 45.2421875 31.8671875 45.2421875 C32.12113281 45.81324219 32.37507812 46.38429688 32.63671875 46.97265625 C34.01027668 49.50610754 35.65265703 51.39108113 37.5546875 53.5546875 C50.76678965 69.84160615 54.35660413 90.80042787 52.8671875 111.2421875 C52.08275552 116.73897078 50.57359503 121.96891424 48.8671875 127.2421875 C48.5784375 128.16257812 48.2896875 129.08296875 47.9921875 130.03125 C43.91848015 141.48855191 35.52136126 153.81489397 25.3671875 160.6796875 C22.42785984 163.69249835 22.503547 164.49934539 22.4921875 168.5546875 C22.58811635 170.1192414 22.70372524 171.68324191 22.8671875 173.2421875 C39.55571502 165.08335182 51.00999606 148.02042187 57.8671875 131.2421875 C65.45357186 108.84004073 64.82839767 85.79462405 54.8671875 64.2421875 C47.95376808 50.55149914 39.37070475 39.2849098 26.8671875 30.2421875 C26.5371875 30.2421875 26.2071875 30.2421875 25.8671875 30.2421875 Z M24.8671875 42.2421875 C23.63883745 43.69681256 22.41255797 45.15361375 21.21875 46.63671875 C19.8671875 48.2421875 19.8671875 48.2421875 18.203125 49.56640625 C16.19915733 52.08015518 16.68209014 54.0955323 16.8671875 57.2421875 C17.19473092 62.81042571 17.19473092 62.81042571 15.4921875 65.0546875 C12.26104552 67.41590664 9.82626894 67.42110092 5.8671875 67.6171875 C-3.76588546 68.08470817 -3.76588546 68.08470817 -12.1328125 72.2421875 C-13.80433017 91.63179244 -2.44230114 110.64523376 7.90478516 126.17480469 C15.2623058 137.25663096 19.94501559 148.28299034 22.8671875 161.2421875 C39.2715077 147.97912011 49.51808464 131.33450012 52.55078125 110.296875 C54.8029481 88.55373334 48.46594373 68.13491414 34.8671875 51.2421875 C32.00634427 48.08251579 29.09474475 45.03027825 25.8671875 42.2421875 C25.5371875 42.2421875 25.2071875 42.2421875 24.8671875 42.2421875 Z " fill="#267277" transform="translate(128.1328125,13.7578125)"/>
<path d="M0 0 C0.66 0 1.32 0 2 0 C1.9685791 0.55236328 1.9371582 1.10472656 1.90478516 1.67382812 C1.0474271 19.13933309 4.43797995 30.92863412 12.88110352 45.98120117 C21.22238846 61.1941256 26.90822105 77.53700611 25 95 C23.85304423 98.79412967 22.2735386 101.7719729 20 105 C19.443125 105.9075 18.88625 106.815 18.3125 107.75 C11.59311886 114.28777625 3.85230702 117.45811972 -5.375 118.3125 C-15.46855875 117.44236563 -23.39349188 113.40100404 -30.38671875 106.09765625 C-36.24951021 98.4746078 -37.00488839 89.27670647 -36 80 C-32.73526198 60.86560829 -22.43867144 43.54634026 -13.22924805 26.73168945 C-9.87003164 20.58093139 -6.7544848 14.44206533 -4 8 C-2.70540528 5.31091899 -1.35418893 2.66001397 0 0 Z " fill="#F5D952" transform="translate(97,91)"/>
<path d="M0 0 C4.87612674 0.55089065 8.78262853 2.07088559 13.0625 4.375 C13.71226807 4.7244165 14.36203613 5.07383301 15.03149414 5.43383789 C35.93249928 17.14378933 50.28458469 36.98309891 56.75 59.875 C62.69108987 82.46495798 59.354807 106.69109975 48.15478516 127.04541016 C44.95553876 132.46045595 41.12084481 137.2645865 37 142 C36.29230469 142.81984375 35.58460938 143.6396875 34.85546875 144.484375 C27.03812837 152.89635537 17.12275161 158.44806767 7 163.625 C1.65620358 166.41420106 -1.49045708 169.12563483 -5 174 C-5.33 174.33 -5.66 174.66 -6 175 C-4.35 175 -2.7 175 -1 175 C-3.90643721 176.9376248 -5.79438921 177.59773061 -9.125 178.4375 C-12.60700706 179.32729581 -15.86488171 180.33028405 -19.1875 181.6875 C-26.87569783 184.31036893 -37.38280215 184.35135748 -45 181.5 C-46.485 180.7575 -46.485 180.7575 -48 180 C-48 179.01 -48 178.02 -48 177 C-47.03320312 176.91363281 -46.06640625 176.82726562 -45.0703125 176.73828125 C-32.93888204 175.42904767 -24.32853071 172.73487087 -16.3125 162.9375 C-14.93628503 161.06121249 -14.93628503 161.06121249 -14.20703125 158.95703125 C-13 157 -13 157 -10.8359375 156.171875 C-9.61777344 155.96304688 -9.61777344 155.96304688 -8.375 155.75 C-7.14910156 155.52570313 -7.14910156 155.52570313 -5.8984375 155.296875 C-5.27195313 155.19890625 -4.64546875 155.1009375 -4 155 C0.33959107 135.99187381 -7.65293654 122.20827379 -16.59667969 106.0534668 C-27.85484387 85.6749207 -35.19477754 62.93605446 -30.1640625 39.4140625 C-29.58785156 37.72410156 -29.58785156 37.72410156 -29 36 C-27.515 35.505 -27.515 35.505 -26 35 C-26.2475 36.7634375 -26.2475 36.7634375 -26.5 38.5625 C-29.36295403 65.91012056 -19.32729088 86.4313973 -5 109 C3.26007855 122.23992014 7.09344103 133.34992941 8 149 C25.77680169 138.92533289 38.17187868 123.5870587 44 104 C49.33247852 83.59841216 47.50804788 62.72533242 36.99072266 44.22460938 C29.99825149 32.79812279 21.18522949 24.26222624 10 17 C10.66 16.67 11.32 16.34 12 16 C13.37804791 16.89113765 14.75226487 17.78819992 16.125 18.6875 C16.89070313 19.18636719 17.65640625 19.68523438 18.4453125 20.19921875 C35.23645067 32.03517394 44.5369924 49.88144468 48.55078125 69.72265625 C50.39855412 83.20336437 49.17006686 96.11333506 45 109 C44.71125 109.92039062 44.4225 110.84078125 44.125 111.7890625 C39.97204658 123.46924399 31.33231563 135.7090677 21.25 142.984375 C18.80293477 144.77492176 18.80293477 144.77492176 18.51171875 147.359375 C18.56972656 148.14828125 18.62773437 148.9371875 18.6875 149.75 C18.75517578 150.94882812 18.75517578 150.94882812 18.82421875 152.171875 C18.88222656 152.77515625 18.94023437 153.3784375 19 154 C21.69869479 152.04057532 24.35510075 150.03139169 27 148 C27.64710938 147.51660156 28.29421875 147.03320312 28.9609375 146.53515625 C45.39478352 133.35454097 54.61956127 111.4582989 57 91 C58.16023128 68.86635721 52.96059767 46.67057976 38.70703125 29.1875 C37.32145299 27.65723303 35.9117218 26.14814615 34.46875 24.671875 C33 23 33 23 33 21 C32.40960938 20.73445313 31.81921875 20.46890625 31.2109375 20.1953125 C28.94283948 18.96909696 27.46647902 17.66648412 25.625 15.875 C18.23104948 9.24402749 9.12376939 4.76573412 0 1 C0 0.67 0 0.34 0 0 Z " fill="#267176" transform="translate(133,32)"/>
<path d="M0 0 C4.10958767 1.45044271 7.43258745 3.51110752 11 6 C10.45912682 9.78611227 8.88277668 11.55400767 6 14 C5.34 14 4.68 14 4 14 C4.04640625 14.96421875 4.0928125 15.9284375 4.140625 16.921875 C4.19476563 18.81679687 4.19476563 18.81679687 4.25 20.75 C4.29640625 22.00296875 4.3428125 23.2559375 4.390625 24.546875 C4 28 4 28 2.109375 30.390625 C-1.38492222 33.05664436 -3.64218646 33.1591649 -8 33.375 C-14.02429281 33.78376736 -19.33056066 34.9651448 -25 37 C-26.37233628 56.55579202 -15.4466372 75.21839177 -4.96459961 90.92602539 C1.47274574 100.6099724 9.72867085 113.05364284 8.84375 125.1328125 C7.64169619 127.79291307 5.95040364 128.7146205 3.5 130.25 C2.6853125 130.77078125 1.870625 131.2915625 1.03125 131.828125 C-1 133 -1 133 -2 133 C-2.02578125 132.14019531 -2.0515625 131.28039062 -2.078125 130.39453125 C-2.89832433 113.30083153 -9.16209596 100.27833004 -18.4375 86.1875 C-30.17303502 68.29049665 -38.67117619 48.81210477 -37 27 C-35.98172827 22.85132085 -34.64359475 18.94022492 -33 15 C-30.73996439 17.26003561 -29.56719602 19.53556064 -28.09765625 22.34375 C-26.94357293 24.31721231 -26.94357293 24.31721231 -24 26 C-24.33 23.36 -24.66 20.72 -25 18 C-23.7625 18.474375 -22.525 18.94875 -21.25 19.4375 C-15.58541897 21.35279693 -9.93964157 21.70854551 -4 22 C-7.88004209 17.16716651 -11.06991645 13.31417894 -17 11 C-14.38102695 9.25401797 -11.89720091 7.96349035 -9.0625 6.625 C-5.42388 4.8349052 -2.60328845 3.19494492 0 0 Z " fill="#201E1F" transform="translate(142,49)"/>
<path d="M0 0 C0.66 0 1.32 0 2 0 C1.9685791 0.55236328 1.9371582 1.10472656 1.90478516 1.67382812 C1.02918787 19.51089013 4.64735475 31.33299585 13.30078125 46.67553711 C16.2058551 51.97373675 17.50201479 57.01172786 18 63 C16.88625 62.835 15.7725 62.67 14.625 62.5 C8.79783404 61.82655546 2.97730718 61.94808455 -2.87841797 62.03710938 C-8.79543394 62.10228303 -8.79543394 62.10228303 -11 61 C-12.87056791 60.7724985 -14.74685958 60.59037189 -16.625 60.4375 C-17.62789062 60.35371094 -18.63078125 60.26992187 -19.6640625 60.18359375 C-20.43492188 60.12300781 -21.20578125 60.06242187 -22 60 C-22 58.02 -22 56.04 -22 54 C-23.65 54 -25.3 54 -27 54 C-21.85862667 43.58115816 -16.55668412 33.25543625 -11.12597656 22.98413086 C-8.53340573 18.05442118 -6.13076575 13.14501974 -4 8 C-2.70884035 5.3097242 -1.35335919 2.66005083 0 0 Z " fill="#E9B321" transform="translate(97,91)"/>
<path d="M0 0 C0.47308594 0.38671875 0.94617188 0.7734375 1.43359375 1.171875 C6.33904287 5.03503571 11.19610545 7.71606001 17 10 C15.02 12.97 15.02 12.97 13 16 C14.43793392 15.68950274 15.8753318 15.3765224 17.3125 15.0625 C18.11300781 14.88847656 18.91351563 14.71445313 19.73828125 14.53515625 C22.145401 14.00113841 22.145401 14.00113841 25 13 C24.7834375 13.68320312 24.566875 14.36640625 24.34375 15.0703125 C16.03373345 45.15565021 26.79883799 71.4715979 41.38061523 97.31298828 C46.30199095 106.1392005 50.61409078 114.59409661 50.375 124.875 C50.36210937 126.10992187 50.34921875 127.34484375 50.3359375 128.6171875 C50.01460132 131.85296806 49.51352392 134.13530248 48 137 C45.08543662 138.56938028 43.32058331 139 40 139 C40.06960937 137.69289062 40.13921875 136.38578125 40.2109375 135.0390625 C41.06215209 111.99546759 31.83500347 93.90384614 21.32421875 73.90625 C18.07789874 66.78158308 16.53585324 60.64961989 16.75 52.8125 C16.7653479 51.58454712 16.7653479 51.58454712 16.78100586 50.33178711 C16.88812991 44.12524972 17.28235092 37.96429108 17.87890625 31.78515625 C17.99294632 29.16223463 18.06586942 27.39418909 17 25 C15.10846829 23.91610396 15.10846829 23.91610396 13 23 C11.47265625 21.44921875 11.47265625 21.44921875 10.0625 19.6875 C8.19096388 17.4084902 6.34469512 15.34469512 4.25 13.25 C0.10570825 9.10570825 0.10570825 9.10570825 -0.1953125 5.95703125 C-0.13020833 3.97135417 -0.06510417 1.98567708 0 0 Z " fill="#211F1F" transform="translate(81,50)"/>
<path d="M0 0 C-0.60930233 7.43348837 -0.60930233 7.43348837 -2.25 9.8125 C-4.44995141 11.30532417 -6.68787274 12.68771155 -9 14 C-6.525 13.505 -6.525 13.505 -4 13 C-9.88412674 24.76825349 -19.01794122 30.91076424 -31.31640625 35.140625 C-40.00629356 37.1679582 -51.65179147 37.91567141 -59.65625 33.46875 C-60.4296875 32.9840625 -61.203125 32.499375 -62 32 C-63.2170069 31.29904818 -64.43594925 30.60145164 -65.65625 29.90625 C-82.77760951 20.00045432 -82.77760951 20.00045432 -85 14 C-84.25234375 14.20496094 -83.5046875 14.40992188 -82.734375 14.62109375 C-81.74953125 14.89050781 -80.7646875 15.15992188 -79.75 15.4375 C-78.28820312 15.83775391 -78.28820312 15.83775391 -76.796875 16.24609375 C-75.87390625 16.49488281 -74.9509375 16.74367187 -74 17 C-73.28328125 17.21785156 -72.5665625 17.43570313 -71.828125 17.66015625 C-69.77583511 18.19432762 -69.77583511 18.19432762 -67 17 C-64.3125 17.4375 -64.3125 17.4375 -62 18 C-61.67 18.99 -61.34 19.98 -61 21 C-61.99 21.33 -62.98 21.66 -64 22 C-52.16743566 25.83178897 -41.2625151 24.90162617 -30 20 C-27.67987763 19.259189 -25.35382104 18.62768561 -23 18 C-23.66 17.67 -24.32 17.34 -25 17 C-24.55269531 16.62488281 -24.10539062 16.24976563 -23.64453125 15.86328125 C-20.85757929 13.50417693 -18.22244485 11.25422269 -15.8125 8.5 C-12.20721681 5.29530383 -5.04414859 0 0 0 Z " fill="#201F20" transform="translate(150,190)"/>
<path d="M0 0 C3.872492 5.81651409 2.78512212 15.27539093 2 22 C0.84901112 25.79230201 -0.7266473 28.77223683 -3 32 C-3.556875 32.9075 -4.11375 33.815 -4.6875 34.75 C-11.40688114 41.28777625 -19.14769298 44.45811972 -28.375 45.3125 C-38.46855875 44.44236563 -46.39349188 40.40100404 -53.38671875 33.09765625 C-59.29880137 25.41051735 -59.75618218 16.34690761 -59 7 C-58.69854654 5.32727327 -58.3761547 3.65752723 -58 2 C-57.67 2 -57.34 2 -57 2 C-56.98582031 2.66644531 -56.97164062 3.33289063 -56.95703125 4.01953125 C-56.4698392 13.43418835 -53.19836759 23.99374599 -46.203125 30.73046875 C-37.5634328 37.17567913 -29.28669986 37.88429499 -18.73046875 36.7578125 C-13.81040494 35.80679425 -10.52362078 33.46077261 -6.76171875 30.33984375 C-5 29 -5 29 -2 28 C-2 26.02 -2 24.04 -2 22 C-2.61746094 22.55429688 -3.23492187 23.10859375 -3.87109375 23.6796875 C-10.89140998 29.68488951 -16.64854353 32.60331977 -26 32 C-23.43387696 28.61738326 -21.10283093 27.60488341 -17.125 26.5625 C-10.08031391 24.61771148 -5.68451601 20.60719661 -1.96875 14.40234375 C-0.11252555 9.7992065 -0.09007067 4.9129455 0 0 Z " fill="#DD9B24" transform="translate(120,164)"/>
<path d="M0 0 C1 2 1 2 0.29296875 4.4765625 C-0.07183594 5.51554687 -0.43664062 6.55453125 -0.8125 7.625 C-7.91386811 30.03869309 -5.41545525 52.93699022 5 74 C12.0678157 86.86023608 22.21801006 97.34222312 34 106 C34.49996025 102.54888552 34.64335924 99.43969229 34 96 C32.3274196 93.86355731 30.5118258 92.46159146 28.3515625 90.82421875 C19.07044991 83.62441878 11.88896764 73.0528554 8 62 C7.875 59.1875 7.875 59.1875 8 57 C9.81365759 59.72048639 11.17671478 62.44309635 12.5625 65.39477539 C18.02732781 76.89946537 24.99226387 86.01017251 35 94 C35.20753906 93.11441406 35.41507813 92.22882813 35.62890625 91.31640625 C41.72110154 66.82017332 54.21081803 44.5986487 67 23 C67.495 23.99 67.495 23.99 68 25 C67.13891602 27.1003418 67.13891602 27.1003418 65.75390625 29.69921875 C65.25012451 30.65352783 64.74634277 31.60783691 64.22729492 32.59106445 C63.6779126 33.61288818 63.12853027 34.63471191 62.5625 35.6875 C62.00989502 36.73317139 61.45729004 37.77884277 60.88793945 38.85620117 C58.51712974 43.33378371 56.12421859 47.79740055 53.6640625 52.2265625 C50.0271944 58.79945754 46.87377307 65.38472837 44.125 72.375 C43.83842529 73.10050049 43.55185059 73.82600098 43.2565918 74.57348633 C38.7013412 86.57505688 36.5673041 99.25967484 41.6015625 111.48828125 C45.1161445 117.80078467 50.32590294 122.33036118 57 125 C52.21065724 126.59644759 48.5897179 124.35066987 44.046875 122.5234375 C40.24016159 120.6200808 38.67488074 118.90805506 37 115 C36.79375 114.030625 36.5875 113.06125 36.375 112.0625 C34.46829022 107.8157373 31.53456969 106.34903452 27.71484375 103.828125 C8.92036983 91.17227781 -1.53718769 70.73414809 -6 49 C-8.70320175 32.88964328 -7.7195357 14.64049874 0 0 Z " fill="#0E5F5A" transform="translate(23,81)"/>
<path d="M0 0 C3 1 3 1 5 3 C5.0679287 5.85891205 5.03843584 8.64684198 4.9375 11.5 C4.79055189 18.60861493 5.4035715 24.2925597 8 31 C10.97 31 13.94 31 17 31 C18.23921302 33.97411124 19.30058404 36.85262818 20 40 C20.66 40 21.32 40 22 40 C22 40.66 22 41.32 22 42 C20.35 42 18.7 42 17 42 C17.66 42.78375 18.32 43.5675 19 44.375 C21 47 21 47 21 49 C13.60851399 48.86560935 9.20447067 46.2147359 4 41 C2.40625 38.5703125 2.40625 38.5703125 1 36 C0.54238281 35.21882813 0.08476563 34.43765625 -0.38671875 33.6328125 C-4.82234836 25.0812383 -5.76139922 16.15355779 -3.08984375 6.8203125 C-2.16224585 4.4730576 -1.1761442 2.23152359 0 0 Z " fill="#F3DF79" transform="translate(67,152)"/>
<path d="M0 0 C-0.7842334 -0.02094727 -1.5684668 -0.04189453 -2.37646484 -0.06347656 C-22.52396199 -0.52962161 -40.52303986 -0.05264857 -59 9 C-59.8971875 9.42925781 -60.794375 9.85851563 -61.71875 10.30078125 C-83.69688676 21.51089411 -99.92829278 40.76923288 -108 64 C-116.12221241 90.10346252 -113.63177392 115.88554447 -101.29443359 140.19335938 C-89.8421171 161.60490255 -70.48458371 176.9958915 -47.76171875 185.1640625 C-45.51654665 185.84364783 -43.28510786 186.47266742 -41 187 C-41.33 187.66 -41.66 188.32 -42 189 C-67.71929133 182.05245117 -89.32853644 166.22775394 -102.89355469 143.02685547 C-115.99937147 119.01880363 -118.34913361 91.48651487 -110.96875 65.34765625 C-106.41611453 51.67436932 -99.73223195 39.64666985 -90 29 C-89.25234375 28.15953125 -88.5046875 27.3190625 -87.734375 26.453125 C-77.04306852 15.05378497 -63.64799752 7.2111016 -49 2 C-48.3699707 1.77554199 -47.73994141 1.55108398 -47.09082031 1.31982422 C-34.6795338 -2.84604552 -11.51146517 -6.91343049 0 0 Z " fill="#009989" transform="translate(122,20)"/>
<path d="M0 0 C2.61363105 4.63469798 2.98309996 8.78659112 2 14 C-1.82634769 21.52371737 -6.75075342 27.05865472 -14.8125 29.75 C-19.35832732 31.01083666 -23.30392081 31.26089329 -28 31 C-26.9161588 28.16533841 -25.78438676 25.6303773 -24.25 23 C-22.64211892 20.07525108 -22.64211892 20.07525108 -23.921875 17.3125 C-24.27765625 16.549375 -24.6334375 15.78625 -25 15 C-23.96552734 14.77957031 -23.96552734 14.77957031 -22.91015625 14.5546875 C-15.3301062 12.74545745 -8.86299961 10.01157652 -3.375 4.3125 C-2 3 -2 3 0 3 C0 2.01 0 1.02 0 0 Z " fill="#F6E355" transform="translate(118,162)"/>
<path d="M0 0 C4.52753203 0.61229481 8.21407999 2.41908392 12.1875 4.5625 C12.84951416 4.91820068 13.51152832 5.27390137 14.19360352 5.64038086 C19.99230996 8.84231511 25.01233547 12.64357287 30 17 C30.67160156 17.52851562 31.34320313 18.05703125 32.03515625 18.6015625 C49.63368252 32.80633718 60.03405484 55.99801318 63 78 C64.45382009 97.27836046 62.56408842 115.52021836 54 133 C53.57074219 133.8971875 53.14148438 134.794375 52.69921875 135.71875 C42.3348764 156.03870006 24.46944094 172.88671877 3 181 C2.01 180.67 1.02 180.34 0 180 C0.52319824 179.73896484 1.04639648 179.47792969 1.58544922 179.20898438 C16.15541059 171.91815259 16.15541059 171.91815259 29 162 C29.886875 161.20335937 30.77375 160.40671875 31.6875 159.5859375 C49.1246966 143.1659107 60.34088745 119.81992659 61.203125 95.72265625 C61.64278444 69.73544428 54.3227918 45.19999681 36.07836914 26.07202148 C34.73194201 24.70175551 33.36636579 23.35038491 32 22 C31.28328125 21.27296875 30.5665625 20.5459375 29.828125 19.796875 C21.36491569 11.71546461 10.5363912 5.94565301 0 1 C0 0.67 0 0.34 0 0 Z " fill="#009989" transform="translate(138,24)"/>
<path d="M0 0 C4.87612674 0.55089065 8.78262853 2.07088559 13.0625 4.375 C13.71226807 4.7244165 14.36203613 5.07383301 15.03149414 5.43383789 C35.93249928 17.14378933 50.28458469 36.98309891 56.75 59.875 C62.69108987 82.46495798 59.354807 106.69109975 48.15478516 127.04541016 C44.95553876 132.46045595 41.12084481 137.2645865 37 142 C36.29230469 142.81984375 35.58460938 143.6396875 34.85546875 144.484375 C30.55640843 149.11045104 25.82420688 152.68599342 20.5625 156.125 C19.94665039 156.5281543 19.33080078 156.93130859 18.69628906 157.34667969 C17.17230311 158.30076104 15.58961526 159.15980495 14 160 C13.34 159.67 12.68 159.34 12 159 C12.90621094 158.3709375 13.81242188 157.741875 14.74609375 157.09375 C36.29954404 142.01701069 50.50029968 124.28620206 56 98 C60.01719336 74.40568434 54.04686469 51.84459127 41 32 C38.9141191 29.44150894 36.77525822 27.03161033 34.46875 24.671875 C33 23 33 23 33 21 C32.40960938 20.73445313 31.81921875 20.46890625 31.2109375 20.1953125 C28.94283948 18.96909696 27.46647902 17.66648412 25.625 15.875 C18.23104948 9.24402749 9.12376939 4.76573412 0 1 C0 0.67 0 0.34 0 0 Z " fill="#03867E" transform="translate(133,32)"/>
<path d="M0 0 C3.872492 5.81651409 2.78512212 15.27539093 2 22 C0.84948418 25.79074336 -0.7214022 28.77693992 -3 32 C-3.598125 32.928125 -4.19625 33.85625 -4.8125 34.8125 C-7.85862742 37.85862742 -11.0244717 40.29075175 -15 42 C-20.18867925 41.81132075 -20.18867925 41.81132075 -22 40 C-23.51469448 39.76807135 -25.03754562 39.58784762 -26.5625 39.4375 C-27.38878906 39.35371094 -28.21507813 39.26992187 -29.06640625 39.18359375 C-30.02353516 39.09271484 -30.02353516 39.09271484 -31 39 C-31 38.67 -31 38.34 -31 38 C-29.42412109 37.88785156 -29.42412109 37.88785156 -27.81640625 37.7734375 C-20.09142707 37.09625972 -14.04847652 36.43878121 -7.796875 31.4375 C-5.9548692 29.96389536 -4.13700873 28.98340225 -2 28 C-2 26.02 -2 24.04 -2 22 C-2.92619141 22.83144531 -2.92619141 22.83144531 -3.87109375 23.6796875 C-10.89140998 29.68488951 -16.64854353 32.60331977 -26 32 C-23.43387696 28.61738326 -21.10283093 27.60488341 -17.125 26.5625 C-10.08031391 24.61771148 -5.68451601 20.60719661 -1.96875 14.40234375 C-0.11252555 9.7992065 -0.09007067 4.9129455 0 0 Z " fill="#E7AF23" transform="translate(120,164)"/>
<path d="M0 0 C13.95957567 4.92690906 24.68089001 17.83034418 31.11303711 30.78198242 C40.42671271 50.79113135 41.77882165 72.0515581 35 93 C34.71125 93.92039062 34.4225 94.84078125 34.125 95.7890625 C28.066292 112.82917874 14.90251799 125.51832081 0 135 C-0.99 135.33 -1.98 135.66 -3 136 C-1.73203738 132.19611214 -0.55237108 131.94185331 2.875 130 C19.61298603 119.61464339 30.0470722 103.1235497 34.96484375 84.30859375 C39.37481666 64.49419934 36.59975348 43.92684957 25.92578125 26.484375 C19.4625202 16.51976355 11.76943645 8.82099931 1.87109375 2.3125 C0.94490234 1.6628125 0.94490234 1.6628125 0 1 C0 0.67 0 0.34 0 0 Z " fill="#027574" transform="translate(143,48)"/>
<path d="M0 0 C-3.33289519 1.86512383 -6.61497134 2.71234587 -10.3125 3.625 C-30.18843261 9.22414526 -45.50549855 21.76113263 -56.0390625 39.41796875 C-65.11231625 56.50271251 -68.33386156 76.1777508 -63.43652344 95.12329102 C-62.89650959 97.44492774 -62.84688483 99.62671488 -63 102 C-70.97762 90.03357001 -68.63056788 71.55280445 -65.97265625 58.21875 C-61.66441222 38.50864496 -49.31341378 22.55505752 -33.109375 10.96875 C-23.37310841 4.80407869 -11.75859688 -0.76686501 0 0 Z " fill="#027776" transform="translate(94,38)"/>
<path d="M0 0 C3.46470949 0.72873963 6.76691126 1.53868671 10 3 C11.625 6.1875 11.625 6.1875 12 9 C13.22976562 9.14695312 13.22976562 9.14695312 14.484375 9.296875 C16.10085937 9.52117188 16.10085937 9.52117188 17.75 9.75 C18.81734375 9.88921875 19.8846875 10.0284375 20.984375 10.171875 C24.44311325 11.12168395 25.78537153 12.22259536 28 15 C29.06292002 18.35228621 29.12737713 19.61786861 28 23 C23.89041233 21.54955729 20.56741255 19.48889248 17 17 C17.33 16.34 17.66 15.68 18 15 C18.66 15 19.32 15 20 15 C20 14.01 20 13.02 20 12 C18.74896484 12.05220703 18.74896484 12.05220703 17.47265625 12.10546875 C10.23184082 12.27964644 4.71531509 11.7316536 -2 9 C-1.34 6.03 -0.68 3.06 0 0 Z " fill="#201E1F" transform="translate(127,31)"/>
<path d="M0 0 C0.66 0 1.32 0 2 0 C1.66905773 7.44620118 -1.80358051 14.13323166 -6.52734375 19.84765625 C-8 21 -8 21 -10.6875 20.6875 C-11.450625 20.460625 -12.21375 20.23375 -13 20 C-13.66 18.02 -14.32 16.04 -15 14 C-15.38671875 14.5053125 -15.7734375 15.010625 -16.171875 15.53125 C-16.69265625 16.1809375 -17.2134375 16.830625 -17.75 17.5 C-18.26046875 18.1496875 -18.7709375 18.799375 -19.296875 19.46875 C-21 21 -21 21 -25 21 C-25.58179863 13.40429561 -24.26889853 7.85884959 -21 1 C-20.34 1 -19.68 1 -19 1 C-19.13277344 1.56847656 -19.26554687 2.13695312 -19.40234375 2.72265625 C-19.66724609 3.88087891 -19.66724609 3.88087891 -19.9375 5.0625 C-20.11152344 5.81660156 -20.28554687 6.57070312 -20.46484375 7.34765625 C-21.11088811 10.54958413 -21.56033948 13.76394014 -22 17 C-21.37351562 16.14535156 -20.74703125 15.29070312 -20.1015625 14.41015625 C-19.27625386 13.29411389 -18.45072138 12.17823702 -17.625 11.0625 C-17.2125 10.49853516 -16.8 9.93457031 -16.375 9.35351562 C-13.2265625 5.11328125 -13.2265625 5.11328125 -11 4 C-10.67 8.62 -10.34 13.24 -10 18 C-5.93790988 12.18382552 -2.64520077 6.58188192 0 0 Z " fill="#017776" transform="translate(133,227)"/>
<path d="M0 0 C0.66 0 1.32 0 2 0 C2.5 2.625 2.5 2.625 2 6 C-0.39147692 8.42638899 -3.12895421 10.18614303 -6 12 C-7.299375 12.8971875 -7.299375 12.8971875 -8.625 13.8125 C-13.8355295 16.41776475 -19.31440455 16.09802751 -25 16 C-25.66 13.69 -26.32 11.38 -27 9 C-25.1875 7.9375 -25.1875 7.9375 -23 7 C-22.01 7.33 -21.02 7.66 -20 8 C-20.33 8.33 -20.66 8.66 -21 9 C-11.80981752 8.63017374 -6.5054301 6.74637196 0 0 Z " fill="#F2D243" transform="translate(116,186)"/>
<path d="M0 0 C0 0.66 0 1.32 0 2 C-1.02996094 2.1959375 -2.05992188 2.391875 -3.12109375 2.59375 C-20.01653415 6.04253478 -33.97019274 12.70385057 -47 24 C-47.73476563 24.62261719 -48.46953125 25.24523437 -49.2265625 25.88671875 C-57.44077046 33.43004518 -63.8964631 43.6813975 -68 54 C-68.66 54 -69.32 54 -70 54 C-66.24499226 41.81868302 -58.82811856 32.84037984 -50 24 C-49.195625 23.18402344 -48.39125 22.36804688 -47.5625 21.52734375 C-35.81033233 10.25840666 -16.79878996 0 0 0 Z " fill="#03877E" transform="translate(93,27)"/>
<path d="M0 0 C3 1 3 1 5 3 C5.22705078 5.24658203 5.22705078 5.24658203 5.1953125 8.0078125 C5.18564453 9.48701172 5.18564453 9.48701172 5.17578125 10.99609375 C5.15902344 12.02863281 5.14226562 13.06117188 5.125 14.125 C5.11597656 15.16527344 5.10695313 16.20554688 5.09765625 17.27734375 C5.07403747 19.85179092 5.04110149 22.42578212 5 25 C4.34 25 3.68 25 3 25 C3 24.34 3 23.68 3 23 C2.01 22.67 1.02 22.34 0 22 C-3.27338469 17.1505412 -3.76502793 12.66905311 -3 7 C-2.19905705 4.48669627 -1.2060428 2.36183382 0 0 Z " fill="#F6E67F" transform="translate(67,152)"/>
<path d="M0 0 C6.625 -0.125 6.625 -0.125 10 1 C12.6940312 1.02012617 15.37032363 0.99567777 18.0625 0.9375 C24.60646322 0.85416395 30.65010802 1.25260958 37 3 C37 4.65 37 6.3 37 8 C11.0298471 5.24390601 11.0298471 5.24390601 0 1 C0 0.67 0 0.34 0 0 Z " fill="#F3C932" transform="translate(79,151)"/>
<path d="M0 0 C0 3.63 0 7.26 0 11 C-9.57142857 16.42857143 -9.57142857 16.42857143 -14 18 C-13.0957237 11.8050325 -12.09800875 8.05523423 -7 4 C-1.37837838 0 -1.37837838 0 0 0 Z " fill="#201E1F" transform="translate(151,177)"/>
<path d="M0 0 C0.94875 0.04125 1.8975 0.0825 2.875 0.125 C3.48949978 7.34537237 1.29456842 12.92492564 -3.0625 18.6875 C-5.63980028 20.4838002 -7.04558092 20.61122406 -10.125 20.125 C-10.785 19.465 -11.445 18.805 -12.125 18.125 C-12.125 16.805 -12.125 15.485 -12.125 14.125 C-11.465 14.125 -10.805 14.125 -10.125 14.125 C-10.125 15.115 -10.125 16.105 -10.125 17.125 C-7.71622743 17.01158466 -7.71622743 17.01158466 -5.125 16.125 C-2.73216634 12.94073122 -2.73216634 12.94073122 -2.125 9.125 C-3.445 9.455 -4.765 9.785 -6.125 10.125 C-6.785 9.135 -7.445 8.145 -8.125 7.125 C-4.09482759 0.1637931 -4.09482759 0.1637931 0 0 Z " fill="#017776" transform="translate(80.125,236.875)"/>
<path d="M0 0 C1.81360751 2.72041127 3.17666447 5.44285554 4.56225586 8.39453125 C10.06460289 19.97672328 18.10438623 33.05219311 30 39 C30.46806645 41.33744294 30.82669794 43.69739079 31.125 46.0625 C31.29257812 47.35285156 31.46015625 48.64320313 31.6328125 49.97265625 C31.75398438 50.97167969 31.87515625 51.97070312 32 53 C29.51953125 51.828125 29.51953125 51.828125 27 50 C26.57421875 47.546875 26.57421875 47.546875 26.6875 44.75 C26.51826573 40.58079729 26.51826573 40.58079729 24.48828125 37.07421875 C23.12171548 35.94928544 21.72908082 34.85551808 20.31640625 33.7890625 C11.04215779 26.62615223 3.87771126 16.02086357 0 5 C-0.125 2.1875 -0.125 2.1875 0 0 Z " fill="#027775" transform="translate(31,138)"/>
<path d="M0 0 C0.33 0.99 0.66 1.98 1 3 C-1.64 3 -4.28 3 -7 3 C-7.33 3.99 -7.66 4.98 -8 6 C-7.01 6.721875 -6.02 7.44375 -5 8.1875 C-2.77205302 10.06088059 -2.08669988 10.67684592 -1.3125 13.5625 C-2.28426001 17.00783096 -4.05174138 18.08020369 -7 20 C-10.50147041 21.1671568 -13.32670036 21.13357453 -17 21 C-17.66 20.67 -18.32 20.34 -19 20 C-19 19.01 -19 18.02 -19 17 C-18.32453125 17.01160156 -17.6490625 17.02320313 -16.953125 17.03515625 C-16.06109375 17.04417969 -15.1690625 17.05320313 -14.25 17.0625 C-13.36828125 17.07410156 -12.4865625 17.08570313 -11.578125 17.09765625 C-9.2181162 17.00826198 -7.25501476 16.66912821 -5 16 C-5 14.68 -5 13.36 -5 12 C-5.969375 11.360625 -6.93875 10.72125 -7.9375 10.0625 C-11 8 -11 8 -11.875 5.25 C-11.936875 4.13625 -11.936875 4.13625 -12 3 C-7.74687289 -0.37316977 -5.33599971 -1.29794588 0 0 Z " fill="#017776" transform="translate(24,228)"/>
<path d="M0 0 C2.18666444 2.77451161 3.89808842 5.53940432 5.48046875 8.6953125 C5.92197266 9.57574219 6.36347656 10.45617187 6.81835938 11.36328125 C7.27017578 12.27464844 7.72199219 13.18601563 8.1875 14.125 C8.65091797 15.04410156 9.11433594 15.96320313 9.59179688 16.91015625 C10.02943359 17.78800781 10.46707031 18.66585937 10.91796875 19.5703125 C11.31781982 20.37227051 11.7176709 21.17422852 12.12963867 22.00048828 C13 24 13 24 13 26 C13.66 26 14.32 26 15 26 C14.67 26.99 14.34 27.98 14 29 C6.69850348 23.85452851 3.93481106 18.30060295 1 10 C0.67 9.34 0.34 8.68 0 8 C-0.13415472 5.3276379 -0.04318541 2.67749512 0 0 Z " fill="#F0CA53" transform="translate(63,169)"/>
<path d="M0 0 C0.33 0 0.66 0 1 0 C1.02578125 0.70125 1.0515625 1.4025 1.078125 2.125 C1.37329372 7.06236771 1.74670599 11.10425659 4.125 15.5 C4.74375 16.655 5.3625 17.81 6 19 C5.67 19.99 5.34 20.98 5 22 C5.309375 22.61875 5.61875 23.2375 5.9375 23.875 C7.20298687 26.40597375 7.15515144 28.20727405 7 31 C4.34613856 30.00201429 3.19570638 29.33161359 1.734375 26.85546875 C-1.5603299 17.92577253 -2.11268043 9.30953492 0 0 Z " fill="#E3A222" transform="translate(62,166)"/>
<path d="M0 0 C0.66 0.66 1.32 1.32 2 2 C1.76806641 3.97119141 1.76806641 3.97119141 1.1015625 6.3515625 C0.75351563 7.62773437 0.75351563 7.62773437 0.3984375 8.9296875 C0.14320312 9.81914062 -0.11203125 10.70859375 -0.375 11.625 C-0.6225 12.5221875 -0.87 13.419375 -1.125 14.34375 C-1.73956478 16.56563806 -2.36493319 18.78390118 -3 21 C-3.99 20.67 -4.98 20.34 -6 20 C-5.34 16.7 -4.68 13.4 -4 10 C-5.32 10.33 -6.64 10.66 -8 11 C-8.33 10.67 -8.66 10.34 -9 10 C-8.30232558 3.60465116 -8.30232558 3.60465116 -7 1 C-6.01 1.33 -5.02 1.66 -4 2 C-4 2.99 -4 3.98 -4 5 C-2.68 3.35 -1.36 1.7 0 0 Z " fill="#017776" transform="translate(96,236)"/>
<path d="M0 0 C0.66 0.66 1.32 1.32 2 2 C1.76806641 3.97119141 1.76806641 3.97119141 1.1015625 6.3515625 C0.75351562 7.62773437 0.75351562 7.62773437 0.3984375 8.9296875 C0.14320312 9.81914062 -0.11203125 10.70859375 -0.375 11.625 C-0.6225 12.5221875 -0.87 13.419375 -1.125 14.34375 C-1.73956478 16.56563806 -2.36493319 18.78390118 -3 21 C-3.99 20.67 -4.98 20.34 -6 20 C-5.34 16.7 -4.68 13.4 -4 10 C-5.32 10.33 -6.64 10.66 -8 11 C-8.33 10.67 -8.66 10.34 -9 10 C-8.30232558 3.60465116 -8.30232558 3.60465116 -7 1 C-6.01 1.33 -5.02 1.66 -4 2 C-4 2.99 -4 3.98 -4 5 C-2.68 3.35 -1.36 1.7 0 0 Z " fill="#017776" transform="translate(34,236)"/>
<path d="M0 0 C3.8063457 0.67170806 7.35206816 1.72746564 11 3 C11.125 8.75 11.125 8.75 10 11 C6.37 10.01 2.74 9.02 -1 8 C-0.67 5.36 -0.34 2.72 0 0 Z " fill="#201E1F" transform="translate(128,22)"/>
<path d="M0 0 C5.60122903 1.09292274 7.69473536 3.74881927 11.12109375 7.95703125 C13.96712916 11.05157703 17.32629691 13.01524612 21 15 C16.21213862 16.59595379 12.59330969 14.35142914 8.05078125 12.52734375 C3.97271825 10.48570146 2.73567731 9.16562554 1 5 C0.25 2.125 0.25 2.125 0 0 Z " fill="#221F1F" transform="translate(59,191)"/>
<path d="M0 0 C4.29 0 8.58 0 13 0 C12.01 2.97 11.02 5.94 10 9 C8.35 9 6.7 9 5 9 C3.35 6.03 1.7 3.06 0 0 Z " fill="#201F20" transform="translate(101,28)"/>
<path d="M0 0 C-4.9497067 5.39541489 -11.66645581 9.44845801 -19.0078125 10.3828125 C-21.37066516 10.37608073 -23.65498133 10.2801571 -26 10 C-25.67 9.01 -25.34 8.02 -25 7 C-22.5234375 6.19140625 -22.5234375 6.19140625 -19.375 5.5625 C-15.5674718 4.71437761 -12.41841669 3.91909987 -9.125 1.8125 C-5.72134343 -0.16162081 -3.86196591 -0.37677716 0 0 Z " fill="#232726" transform="translate(116,202)"/>
<path d="M0 0 C0.33 0 0.66 0 1 0 C1.20882812 1.07894531 1.41765625 2.15789062 1.6328125 3.26953125 C3.11383987 9.17932502 6.02238724 14.34141637 8.875 19.6875 C9.40480469 20.70650391 9.93460938 21.72550781 10.48046875 22.77539062 C13.47255167 28.46822219 13.47255167 28.46822219 17.18408203 33.70239258 C19 36 19 36 19 38 C17.68 37.34 16.36 36.68 15 36 C15 35.01 15 34.02 15 33 C14.34 33 13.68 33 13 33 C11.13029584 29.43463328 9.27973739 25.86002481 7.44580078 22.27612305 C6.82035929 21.06027384 6.18989759 19.84699265 5.55419922 18.63647461 C4.63729933 16.88831933 3.7403248 15.1297597 2.84375 13.37109375 C2.29912109 12.31849365 1.75449219 11.26589355 1.19335938 10.18139648 C-0.15256763 6.59326742 -0.21782438 3.8014544 0 0 Z " fill="#F0D468" transform="translate(63,162)"/>
<path d="M0 0 C-1.4646014 4.52694979 -3.59669713 7.67232608 -7 11 C-10.8125 11.875 -10.8125 11.875 -14 12 C-9.07730673 2.53865337 -9.07730673 2.53865337 -4.75 0.375 C-2 0 -2 0 0 0 Z " fill="#212020" transform="translate(127,189)"/>
<path d="M0 0 C1.65 0 3.3 0 5 0 C6.32 3.3 7.64 6.6 9 10 C4.05 9.67 -0.9 9.34 -6 9 C-5.67 8.34 -5.34 7.68 -5 7 C-2.4375 6.375 -2.4375 6.375 0 6 C0 4.02 0 2.04 0 0 Z " fill="#201F20" transform="translate(90,39)"/>
<path d="M0 0 C1 2 1 2 0.3125 5 C-1 8 -1 8 -2.875 9.4375 C-5.31555804 10.08353007 -6.64656559 9.84051229 -9 9 C-9.36337162 5.72965541 -9.28544288 4.39116247 -7.3125 1.6875 C-4.60883753 -0.28544288 -3.27034459 -0.36337162 0 0 Z " fill="#017776" transform="translate(181,237)"/>
<path d="M0 0 C2.64 0 5.28 0 8 0 C7.67 3.3 7.34 6.6 7 10 C6.01 9.67 5.02 9.34 4 9 C4 7.35 4 5.7 4 4 C2.35 5.98 0.7 7.96 -1 10 C-1.66 9.34 -2.32 8.68 -3 8 C-2.01 5.36 -1.02 2.72 0 0 Z " fill="#017776" transform="translate(161,237)"/>
<path d="M0 0 C1 2 1 2 0.3125 5 C-1 8 -1 8 -2.875 9.4375 C-5.31555804 10.08353007 -6.64656559 9.84051229 -9 9 C-9.36337162 5.72965541 -9.28544288 4.39116247 -7.3125 1.6875 C-4.60883753 -0.28544288 -3.27034459 -0.36337162 0 0 Z " fill="#017776" transform="translate(143,237)"/>
<path d="M0 0 C1 2 1 2 0.3125 5 C-1 8 -1 8 -2.875 9.4375 C-5.31555804 10.08353007 -6.64656559 9.84051229 -9 9 C-9.36337162 5.72965541 -9.28544288 4.39116247 -7.3125 1.6875 C-4.60883753 -0.28544288 -3.27034459 -0.36337162 0 0 Z " fill="#017776" transform="translate(60,237)"/>
<path d="M0 0 C2.64 0 5.28 0 8 0 C7.67 3.3 7.34 6.6 7 10 C6.01 9.67 5.02 9.34 4 9 C4 7.35 4 5.7 4 4 C2.35 5.98 0.7 7.96 -1 10 C-1.66 9.34 -2.32 8.68 -3 8 C-2.01 5.36 -1.02 2.72 0 0 Z " fill="#017776" transform="translate(40,237)"/>
<path d="M0 0 C1.23921302 2.97411124 2.30058404 5.85262818 3 9 C3.66 9 4.32 9 5 9 C5 9.66 5 10.32 5 11 C0.61537866 10.49890042 -1.8000997 9.01704885 -5 6 C-5 5.34 -5 4.68 -5 4 C-6.9600281 2.36323743 -6.9600281 2.36323743 -9 1 C-5.92677456 0.08941469 -3.19902639 -0.08886184 0 0 Z " fill="#F6E97D" transform="translate(84,183)"/>
<path d="M0 0 C5.625 -0.25 5.625 -0.25 9 2 C9.6875 5.125 9.6875 5.125 10 8 C6.7 7.34 3.4 6.68 0 6 C0 4.02 0 2.04 0 0 Z " fill="#211E1F" transform="translate(128,15)"/>
<path d="M0 0 C7.63133641 -0.76313364 7.63133641 -0.76313364 10.93359375 1.078125 C12.5625 2.4375 12.5625 2.4375 15 5 C15 5.33 15 5.66 15 6 C6.22421525 6.92017937 6.22421525 6.92017937 3.22265625 4.6640625 C1.875 3 1.875 3 0 0 Z " fill="#211E1F" transform="translate(94,21)"/>
<path d="M0 0 C1.65 0 3.3 0 5 0 C5 0.66 5 1.32 5 2 C4.01 2.33 3.02 2.66 2 3 C2.66 3.66 3.32 4.32 4 5 C3.625 7.125 3.625 7.125 3 9 C0.69 9.33 -1.62 9.66 -4 10 C-4.33 9.01 -4.66 8.02 -5 7 C-3.02 7 -1.04 7 1 7 C1 6.34 1 5.68 1 5 C0.34 5 -0.32 5 -1 5 C-0.67 3.35 -0.34 1.7 0 0 Z " fill="#017676" transform="translate(197,237)"/>
<path d="M0 0 C1.65 0 3.3 0 5 0 C5 0.66 5 1.32 5 2 C4.01 2.33 3.02 2.66 2 3 C2.66 3.66 3.32 4.32 4 5 C3.625 7.125 3.625 7.125 3 9 C0.69 9.33 -1.62 9.66 -4 10 C-4.33 9.01 -4.66 8.02 -5 7 C-3.02 7 -1.04 7 1 7 C1 6.34 1 5.68 1 5 C0.34 5 -0.32 5 -1 5 C-0.67 3.35 -0.34 1.7 0 0 Z " fill="#017676" transform="translate(187,237)"/>
<path d="M0 0 C0.66 0 1.32 0 2 0 C0.75971762 6.17222879 -0.89603589 12.06682122 -3 18 C-3.66 17.67 -4.32 17.34 -5 17 C-3.96232949 10.93267948 -2.66038099 5.5626148 0 0 Z " fill="#017776" transform="translate(157,229)"/>
<path d="M0 0 C0.66 0 1.32 0 2 0 C0.75971762 6.17222879 -0.89603589 12.06682122 -3 18 C-3.66 17.67 -4.32 17.34 -5 17 C-3.96232949 10.93267948 -2.66038099 5.5626148 0 0 Z " fill="#017776" transform="translate(151,229)"/>
<path d="M0 0 C2.90782884 3.59797809 5.06026742 7.50758448 7.25 11.5625 C7.62640625 12.23474609 8.0028125 12.90699219 8.390625 13.59960938 C9.34086467 15.35860082 10.17880187 17.177189 11 19 C10.67 19.99 10.34 20.98 10 22 C6.64356235 19.00854811 4.98887354 16.28156025 3.3125 12.125 C2.89613281 11.11695313 2.47976562 10.10890625 2.05078125 9.0703125 C1.01348826 6.0394118 0.43041967 3.16902394 0 0 Z " fill="#ECBB35" transform="translate(63,173)"/>
<path d="M0 0 C0.99 0.33 1.98 0.66 3 1 C-3.53333683 7.24989488 -10.21571334 12.39750351 -18 17 C-18 16.01 -18 15.02 -18 14 C-15.83984375 12.421875 -15.83984375 12.421875 -12.9375 10.75 C-7.89394036 7.69388957 -3.91213165 4.39280311 0 0 Z " fill="#06706F" transform="translate(159,167)"/>
<path d="M0 0 C0 0.99 0 1.98 0 3 C-0.763125 3.04125 -1.52625 3.0825 -2.3125 3.125 C-5.32405113 3.77823609 -5.32405113 3.77823609 -6.8125 7.0625 C-7.4003125 8.5165625 -7.4003125 8.5165625 -8 10 C-8.66 10 -9.32 10 -10 10 C-9.125 2.25 -9.125 2.25 -8 0 C-4.71585695 -0.95067299 -3.30306592 -1.10102197 0 0 Z " fill="#017776" transform="translate(72,237)"/>
<path d="M0 0 C4.455 0.99 4.455 0.99 9 2 C6.88613536 4.11386464 5.20732397 4.97008322 2.5 6.1875 C1.7059375 6.55230469 0.911875 6.91710938 0.09375 7.29296875 C-0.5971875 7.52628906 -1.288125 7.75960937 -2 8 C-2.66 7.67 -3.32 7.34 -4 7 C-2.68 4.69 -1.36 2.38 0 0 Z " fill="#202324" transform="translate(124,41)"/>
<path d="M0 0 C1.32 0.66 2.64 1.32 4 2 C2.68 2.33 1.36 2.66 0 3 C0.66 5.31 1.32 7.62 2 10 C0.125 9.75 0.125 9.75 -2 9 C-3.125 7.1875 -3.125 7.1875 -4 5 C-4.37125 4.2575 -4.7425 3.515 -5.125 2.75 C-5.41375 2.1725 -5.7025 1.595 -6 1 C-3.03 1.495 -3.03 1.495 0 2 C0 1.34 0 0.68 0 0 Z " fill="#F3D666" transform="translate(89,192)"/>
<path d="M0 0 C-0.825 0.45375 -1.65 0.9075 -2.5 1.375 C-3.325 1.91125 -4.15 2.4475 -5 3 C-5 3.66 -5 4.32 -5 5 C-8.63 5.33 -12.26 5.66 -16 6 C-12.84590626 1.84233097 -5.12920809 -2.56460404 0 0 Z " fill="#ECB82A" transform="translate(110,190)"/>
<path d="M0 0 C0.99 0.33 1.98 0.66 3 1 C3.66 4.96 4.32 8.92 5 13 C3.35 12.01 1.7 11.02 0 10 C-0.48828125 7.51953125 -0.48828125 7.51953125 -0.3125 4.8125 C-0.26738281 3.91144531 -0.22226562 3.01039063 -0.17578125 2.08203125 C-0.08876953 1.05142578 -0.08876953 1.05142578 0 0 Z " fill="#211E1F" transform="translate(58,178)"/>
<path d="M0 0 C3.27793027 2.38394929 3.83020599 5.32082398 4.765625 9.0625 C5 11 5 11 4 14 C3.12808053 12.61518672 2.27809616 11.21654754 1.4375 9.8125 C0.96183594 9.03519531 0.48617187 8.25789062 -0.00390625 7.45703125 C-1.19605797 4.51639033 -0.88855164 2.99553637 0 0 Z " fill="#F7ED8E" transform="translate(65,158)"/>
<path d="M0 0 C2.45254443 2.98662287 3.87415265 5.80944083 5.1875 9.4375 C5.53167969 10.36433594 5.87585938 11.29117188 6.23046875 12.24609375 C6.99365027 14.97727636 7.14832648 17.18179685 7 20 C6.71125 19.401875 6.4225 18.80375 6.125 18.1875 C4.95257974 15.80672208 4.95257974 15.80672208 3 13 C2.41311961 11.53818325 1.87388601 10.0566384 1.375 8.5625 C1.11460938 7.80066406 0.85421875 7.03882813 0.5859375 6.25390625 C0 4 0 4 0 0 Z " fill="#E7C44E" transform="translate(113,146)"/>
<path d="M0 0 C3.34708051 1.54841575 6.24667512 3.49105864 9.25 5.625 C10.14203125 6.25664062 11.0340625 6.88828125 11.953125 7.5390625 C12.96632813 8.26222656 12.96632813 8.26222656 14 9 C13.01 9.33 12.02 9.66 11 10 C6.20840762 7.39587371 3.27388701 4.23679495 0 0 Z " fill="#AD822C" transform="translate(70,193)"/>
<path d="M0 0 C3.63 1.98 7.26 3.96 11 6 C11 6.66 11 7.32 11 8 C9.55903414 7.57405412 8.12231288 7.13373367 6.6875 6.6875 C5.88699219 6.44386719 5.08648437 6.20023438 4.26171875 5.94921875 C1.90035427 4.95817977 0.66120007 3.91925057 -1 2 C-0.67 1.34 -0.34 0.68 0 0 Z " fill="#CB8E27" transform="translate(74,200)"/>
<path d="M0 0 C4.62 0.99 9.24 1.98 14 3 C12 5 12 5 9.6875 5.1171875 C8.3571875 4.99730469 8.3571875 4.99730469 7 4.875 C6.113125 4.81054688 5.22625 4.74609375 4.3125 4.6796875 C3.549375 4.45539063 2.78625 4.23109375 2 4 C1.34 2.68 0.68 1.36 0 0 Z " fill="#D09B2D" transform="translate(82,200)"/>
<path d="M0 0 C0.66 0 1.32 0 2 0 C2.4375 2.6875 2.4375 2.6875 2 6 C-0.11124923 8.04775301 -2.45859507 9.53480226 -5 11 C-4.33333333 9.33333333 -3.66666667 7.66666667 -3 6 C-2.4740625 4.63875 -2.4740625 4.63875 -1.9375 3.25 C-1 1 -1 1 0 0 Z " fill="#F0C630" transform="translate(116,186)"/>
<path d="M0 0 C3 1 3 1 5 3 C5.125 6.125 5.125 6.125 5 9 C2.48916886 7.74458443 2.12874554 6.49936512 1 4 C0.01 4.66 -0.98 5.32 -2 6 C-1.34 4.02 -0.68 2.04 0 0 Z " fill="#F3DE6D" transform="translate(67,152)"/>
<path d="M0 0 C0.99 0 1.98 0 3 0 C3.33 2.64 3.66 5.28 4 8 C2.68 8.33 1.36 8.66 0 9 C0 6.03 0 3.06 0 0 Z " fill="#211E1F" transform="translate(90,29)"/>
<path d="M0 0 C1.98 0.495 1.98 0.495 4 1 C3.67 2.98 3.34 4.96 3 7 C2.01 6.67 1.02 6.34 0 6 C-0.75 4.0625 -0.75 4.0625 -1 2 C-0.67 1.34 -0.34 0.68 0 0 Z " fill="#F2CA3D" transform="translate(72,144)"/>
<path d="M0 0 C0.66 0.33 1.32 0.66 2 1 C-0.97 3.475 -0.97 3.475 -4 6 C-4 5.01 -4 4.02 -4 3 C-2 1.3125 -2 1.3125 0 0 Z M-7 6 C-6.01 6.33 -5.02 6.66 -4 7 C-4.99 7.33 -5.98 7.66 -7 8 C-7 8.66 -7 9.32 -7 10 C-7.66 9.67 -8.32 9.34 -9 9 C-8.34 8.01 -7.68 7.02 -7 6 Z " fill="#1C575A" transform="translate(126,14)"/>
<path d="M0 0 C0.66 0.33 1.32 0.66 2 1 C-0.38957269 4.24299151 -2.2047869 6.50902342 -6 8 C-4.55746343 4.63408134 -2.66735273 2.48952921 0 0 Z " fill="#D8A123" transform="translate(115,195)"/>
<path d="M0 0 C1.9375 0.75 1.9375 0.75 4 2 C4.75 4.125 4.75 4.125 5 6 C2.53199953 4.84826645 0.95216435 3.95216435 -1 2 C-0.67 1.34 -0.34 0.68 0 0 Z " fill="#F2D65D" transform="translate(68,149)"/>
<path d="M0 0 C2 1 2 1 3.1875 3.375 C4 6 4 6 3 9 C0.9375 6.75 0.9375 6.75 -1 4 C-0.75 1.6875 -0.75 1.6875 0 0 Z " fill="#F1CF4F" transform="translate(70,145)"/>
<path d="" fill="#211E1F" transform="translate(0,0)"/>
<path d="" fill="#211E1F" transform="translate(0,0)"/>
<path d="" fill="#211E1F" transform="translate(0,0)"/>
<path d="" fill="#211E1F" transform="translate(0,0)"/>
<path d="" fill="#211E1F" transform="translate(0,0)"/>
<path d="" fill="#211E1F" transform="translate(0,0)"/>
<path d="" fill="#211E1F" transform="translate(0,0)"/>
<path d="" fill="#211E1F" transform="translate(0,0)"/>
<path d="" fill="#211E1F" transform="translate(0,0)"/>
<path d="" fill="#211E1F" transform="translate(0,0)"/>
<path d="" fill="#211E1F" transform="translate(0,0)"/>
<path d="" fill="#211E1F" transform="translate(0,0)"/>
<path d="" fill="#211E1F" transform="translate(0,0)"/>
<path d="" fill="#211E1F" transform="translate(0,0)"/>
</svg>
