<?xml version="1.0" encoding="UTF-8"?>
<svg version="1.1" xmlns="http://www.w3.org/2000/svg" width="418" height="209">
<path d="M0 0 C1.99267578 0.38989258 1.99267578 0.38989258 3.9375 1.25 C4.92016602 2.98803711 4.92016602 2.98803711 5.69140625 5.08984375 C7.97071326 10.03985952 10.88304596 11.20694486 15.8125 13.0625 C24.75733692 16.83871744 31.66397411 21.8832532 38.9375 28.25 C39.62070313 28.83265625 40.30390625 29.4153125 41.0078125 30.015625 C56.32199497 44.11891863 66.97664379 66.86373373 68.06201172 87.63256836 C68.83787432 114.351638 63.28217636 138.79860286 44.9375 159.25 C44.12539062 160.15621094 43.31328125 161.06242188 42.4765625 161.99609375 C34.95402687 169.94880371 26.6342518 175.47138586 17.140625 180.828125 C14.14455754 182.76175719 12.88404269 185.27293471 10.9375 188.25 C5.36605022 195.06466585 -1.81705083 200.26522359 -10.57104492 201.90869141 C-14.44386565 202.23607243 -18.2384953 202.33726542 -22.125 202.3125 C-22.80515167 202.31258057 -23.48530334 202.31266113 -24.18606567 202.31274414 C-38.55974161 202.21647912 -48.12633217 197.65378839 -58.56640625 187.9140625 C-59.83585724 186.61728477 -61.08141757 185.29634249 -62.29296875 183.9453125 C-64.97045392 181.38012803 -68.07484454 180.116277 -71.41796875 178.5859375 C-76.38170225 176.07840891 -80.68946838 172.65858658 -85.0625 169.25 C-85.75085938 168.72921875 -86.43921875 168.2084375 -87.1484375 167.671875 C-104.20432559 153.88793279 -114.94132267 131.7039348 -118.0625 110.25 C-119.80919196 81.73194112 -114.98942999 57.15589077 -95.6875 35.0625 C-94.16426331 33.44082284 -92.62258467 31.83626058 -91.0625 30.25 C-90.31484375 29.48945312 -89.5671875 28.72890625 -88.796875 27.9453125 C-71.27593773 11.17858776 -47.54800822 3.0472046 -23.4921875 3.1328125 C-21.65907735 3.22122617 -19.82993672 3.39815978 -18.0078125 3.6171875 C-11.78098027 4.65983287 -11.78098027 4.65983287 -6.3125 2.25 C-3.7938541 0.01120364 -3.23317074 -0.11821465 0 0 Z M-94.25 35.5 C-111.58959958 55.25780047 -118.76439202 79.73952867 -117.29443359 105.62841797 C-115.11953376 130.21165424 -102.14091134 151.97669479 -84.0625 168.25 C-75.32658514 175.59858006 -75.32658514 175.59858006 -65.0625 179.25 C-66.57335622 170.73426495 -71.00341415 167.56421029 -77.64453125 162.76953125 C-95.71201275 149.6948428 -104.87714468 129.91424314 -108.75 108.4375 C-111.0104765 85.11130628 -105.48346836 62.22200215 -90.8125 43.625 C-77.36569729 27.89604442 -60.93572217 19.05110673 -40.98828125 14.0234375 C-38.69672838 13.31383342 -38.69672838 13.31383342 -37.0625 10.25 C-37.0625 9.26 -37.0625 8.27 -37.0625 7.25 C-27.57828947 6.69210526 -27.57828947 6.69210526 -23.0625 10.25 C-22.0725 11.24 -22.0725 11.24 -21.0625 12.25 C-18.14809301 12.91721536 -18.14809301 12.91721536 -15.0625 12.25 C-12.63827814 9.36490087 -12.63827814 9.36490087 -11.0625 6.25 C-37.02833005 -6.73291503 -77.48556868 17.89094848 -94.25 35.5 Z M6.9375 11.25 C6.9375 13.56 6.9375 15.87 6.9375 18.25 C7.84371094 18.74628906 8.74992187 19.24257813 9.68359375 19.75390625 C16.90332515 23.75990408 23.60315729 27.91139677 29.9375 33.25 C31.39349609 34.40628906 31.39349609 34.40628906 32.87890625 35.5859375 C46.71502306 47.15658024 54.89875753 65.8582165 57.9375 83.25 C59.70136708 111.07530735 54.68981639 134.07982351 36.04296875 155.41796875 C32.35907215 159.29693931 28.52141421 162.23426868 24.0625 165.1875 C20.1800478 167.88856979 18.26775242 169.57126764 17.25 174.25 C16.96830514 176.45439074 16.96830514 176.45439074 16.9375 178.25 C34.9313033 171.65758003 49.6917038 153.9287568 58.02197266 137.24658203 C68.42453351 114.56067732 70.27755209 89.05885572 61.6875 65.5 C57.13807734 54.6221267 51.58809873 45.20987645 43.9375 36.25 C43.30070312 35.42113281 42.66390625 34.59226562 42.0078125 33.73828125 C33.3170611 23.29298193 20.0058945 14.79397139 6.9375 11.25 Z M-85.0625 39.25 C-86.3 40.48943359 -86.3 40.48943359 -87.5625 41.75390625 C-101.84784876 56.78730537 -109.45434571 77.76053777 -109.01513672 98.48486328 C-107.73483848 124.24047333 -96.71719022 144.81617008 -77.7734375 162.12109375 C-74.99908386 164.29980086 -72.26477794 165.7897237 -69.0625 167.25 C-68.49575605 163.77257106 -68.32338981 160.7110746 -69.0625 157.25 C-71.03300384 155.10970218 -73.14283532 153.69598142 -75.5546875 152.07421875 C-88.80579744 142.43517149 -95.42532715 124.81436493 -98.67578125 109.328125 C-101.36759804 87.90235093 -96.56111912 67.54349163 -83.5 50.1875 C-82.37401512 48.85793303 -81.22937606 47.54382786 -80.0625 46.25 C-79.5675 45.66347656 -79.0725 45.07695313 -78.5625 44.47265625 C-67.75398174 32.55626487 -53.09809287 27.48885867 -38.0625 23.25 C-38.5575 19.29 -38.5575 19.29 -39.0625 15.25 C-56.4884416 14.19587877 -73.55079655 27.59112989 -85.0625 39.25 Z M6.9375 20.25 C6.9375 21.9 6.9375 23.55 6.9375 25.25 C9.68828884 26.16692961 11.29698913 26.35886083 14.125 26.3125 C15.383125 26.291875 16.64125 26.27125 17.9375 26.25 C14.52733503 23.38546142 11.03055456 21.90296434 6.9375 20.25 Z M-39.0625 24.25 C-59.7811371 29.84672275 -76.41099588 39.45486757 -88.0625 58.25 C-92.83824446 66.58112766 -96.28329216 74.77038064 -98.0625 84.25 C-98.4028125 86.0134375 -98.4028125 86.0134375 -98.75 87.8125 C-100.63399727 108.53646995 -95.06361861 127.84829365 -81.7890625 144.01953125 C-78.12266799 148.17924462 -74.46292063 151.86090411 -70.0625 155.25 C-67.40085076 152.58835076 -67.27588373 150.41694941 -66.4375 146.75 C-60.26776214 122.14251272 -45.62556344 97.93697379 -32.36328125 76.50390625 C-29.88487762 72.20949516 -29.03015334 67.93202635 -29.125 63 C-30.33561696 59.44885692 -32.08321309 58.46714375 -35.0625 56.25 C-35.701875 55.280625 -36.34125 54.31125 -37 53.3125 C-38.73149718 50.74148903 -39.84564926 49.46786075 -42.1875 47.625 C-46.18395414 44.32358136 -46.89905542 42.80272348 -47.4375 37.6875 C-47.0625 34.25 -47.0625 34.25 -45.375 32.5 C-44.611875 32.0875 -43.84875 31.675 -43.0625 31.25 C-42.155 30.693125 -41.2475 30.13625 -40.3125 29.5625 C-39.57 29.129375 -38.8275 28.69625 -38.0625 28.25 C-38.5575 26.27 -38.5575 26.27 -39.0625 24.25 Z M22.9375 29.25 C22.44594728 33.02539799 22.27808055 36.48773089 22.9375 40.25 C24.65611556 42.41904153 26.50454231 43.81589074 28.71875 45.46875 C39.32921371 53.9870096 45.5641862 70.3011999 47.9375 83.25 C48.06769531 83.94351563 48.19789063 84.63703125 48.33203125 85.3515625 C48.63633263 87.32343543 48.81488717 89.25847033 48.9375 91.25 C48.99035156 92.1059375 49.04320312 92.961875 49.09765625 93.84375 C49.74683404 114.84324031 42.25439338 133.66589048 28.12890625 149.08203125 C26.2766461 150.91448113 24.521179 152.30399287 22.375 153.75 C19.48559132 156.71349608 19.57927542 157.56435802 19.5625 161.5625 C19.65842885 163.1270539 19.77403774 164.69105441 19.9375 166.25 C35.97090291 158.95870773 46.88667652 142.23582819 53.14013672 126.40576172 C61.15431554 104.73852383 59.6849614 82.04179019 50.33984375 61.05078125 C44.03163771 48.45194078 34.92472197 38.02996756 23.9375 29.25 C23.6075 29.25 23.2775 29.25 22.9375 29.25 Z M17.25 44.125 C14.97343548 46.42493787 13.97615906 47.49556251 13.80859375 50.765625 C14.05982077 52.49572447 14.34213248 54.22161284 14.65625 55.94140625 C14.9375 58.25 14.9375 58.25 13.6875 61.3125 C10.73453574 64.58185329 7.54586198 64.3966086 3.375 64.625 C-2.42884069 65.05622324 -7.58703922 66.32389765 -13.0625 68.25 C-15.07444476 89.3381617 -3.44006603 107.68274375 7.75 124.625 C13.84781351 133.86455029 17.34308753 143.53486557 19.9375 154.25 C34.77029262 145.72114424 42.57500484 129.1272356 46.9375 113.25 C51.4491368 93.44859002 46.97800607 74.40154684 36.9375 57.25 C33.07989672 51.4101315 28.36833889 45.70644036 22.9375 41.25 C20.16630417 41.25 19.31132018 42.31036926 17.25 44.125 Z " fill="#267177" transform="translate(124.0625,7.75)"/>
<path d="M0 0 C0.66 0.33 1.32 0.66 2 1 C1.95359375 2.14855469 1.9071875 3.29710938 1.859375 4.48046875 C1.41610798 19.76656491 4.97841464 30.17678688 11.875 43.6875 C19.94947823 59.51714754 28.37518812 76.38326665 22.95703125 94.484375 C19.24336765 102.84791992 13.47513501 108.18135773 5.1875 111.9375 C-2.78265638 114.47273861 -11.14047235 113.78312586 -18.68359375 110.3203125 C-25.92516845 106.19273704 -30.81991239 100.72501968 -34 93 C-39.83814383 68.71182471 -22.20678644 43.1501756 -11.25927734 22.79150391 C-10.87100266 22.06780106 -10.48272797 21.34409821 -10.08268738 20.59846497 C-9.35114365 19.23654668 -8.61704359 17.87599696 -7.87983704 16.51713562 C-5.6805905 12.42391234 -3.7879574 8.28919043 -2 4 C-1.34711373 2.65986503 -0.68774405 1.32258472 0 0 Z " fill="#F6E25E" transform="translate(92,82)"/>
<path d="M0 0 C0.99 0.99 0.99 0.99 2 2 C1.21052979 1.97905273 0.42105957 1.95810547 -0.39233398 1.93652344 C-30.64200389 1.24067313 -55.76781967 5.7621484 -79 27 C-96.10604945 43.63396692 -105.71350076 66.5158398 -106.47241211 90.24267578 C-106.72898122 116.46721713 -96.74303299 139.80256614 -78.625 158.6875 C-71.6356726 165.4966901 -63.60736386 170.48841073 -55 175 C-57.8316241 167.36556597 -61.34051232 163.61092517 -68.03125 159.10546875 C-86.36269133 146.1046176 -95.79094594 125.79566341 -99.6875 104.1875 C-101.94449907 80.89719045 -96.43792667 58.02560912 -81.8125 39.4375 C-68.3887599 23.73172409 -51.47410839 13.02169986 -31 9 C-28 8.875 -28 8.875 -26 9 C-29.32628166 11.21752111 -31.80250071 11.74148263 -35.6875 12.625 C-48.59200856 15.84677553 -60.2077798 21.97253723 -70 31 C-70.85207031 31.77214844 -71.70414063 32.54429688 -72.58203125 33.33984375 C-78.52272137 38.97771009 -82.99344934 44.87039447 -87 52 C-87.46148437 52.81210938 -87.92296875 53.62421875 -88.3984375 54.4609375 C-99.01365132 74.34033792 -100.24775938 96.86798882 -93.875 118.25 C-87.8328802 136.88906593 -74.59906758 154.89563248 -57 164 C-56.01 164.33 -55.02 164.66 -54 165 C-52.82421875 166.671875 -52.82421875 166.671875 -51.6875 168.75 C-47.2363012 176.12476725 -41.25643977 179.82541657 -33 182 C-23.32215875 183.26399246 -15.75143345 181.13773907 -7.6875 175.8125 C-5.22678035 173.23732827 -4.14540634 171.44363385 -2.625 168.3125 C-0.56154708 164.22592223 -0.56154708 164.22592223 2.01953125 163.1875 C3.09267578 163.001875 3.09267578 163.001875 4.1875 162.8125 C5.445625 162.544375 6.70375 162.27625 8 162 C11.28249001 156.52918332 10.71617632 149.12387548 9.33007812 143.07788086 C6.8703279 134.78922466 3.39143968 127.62183254 -0.875 120.125 C-9.82461512 103.92864906 -16.50691379 88.69407508 -17.8125 70 C-17.86575439 69.28150879 -17.91900879 68.56301758 -17.97387695 67.82275391 C-18.18870398 63.70564003 -17.86807198 60.69286817 -16 57 C-15.67 57 -15.34 57 -15 57 C-14.91363281 57.969375 -14.82726562 58.93875 -14.73828125 59.9375 C-12.36906713 83.61770563 -1.94949156 102.98094549 10.76171875 122.73828125 C17.72774158 133.7400352 19.65041954 144.20535518 20 157 C38.33376322 144.11496267 52.48054375 129.2547099 56.69091797 106.31542969 C59.52136885 85.11164127 55.47768383 65.28274511 42.5625 48.0625 C41.40300316 46.68427989 40.21435851 45.33013421 39 44 C38.2884375 43.22011719 37.576875 42.44023438 36.84375 41.63671875 C32.27196015 36.85356191 27.76173558 33.24752369 22 30 C22.66 29.34 23.32 28.68 24 28 C42.64107478 41.5414299 55.21813205 57.27533597 59.25 80.5 C61.90441966 100.65924119 57.87208732 120.27236235 46 137 C43.13210259 140.46685651 40.11397008 143.75388728 37 147 C36.46632812 147.57363281 35.93265625 148.14726562 35.3828125 148.73828125 C34.30270238 149.87271644 33.15903554 150.94633132 32 152 C31.34 152 30.68 152 30 152 C30 155.3 30 158.6 30 162 C31.37607531 160.93889304 32.75079832 159.87603232 34.125 158.8125 C34.89070312 158.22082031 35.65640625 157.62914062 36.4453125 157.01953125 C53.39733397 143.61862131 64.38058997 124.59648998 67 103 C68.96963308 80.18654893 63.47535946 58.33008135 48.83203125 40.3359375 C46.62054111 37.8161329 44.34984066 35.39092179 42 33 C41.38640625 32.37351563 40.7728125 31.74703125 40.140625 31.1015625 C32.69638607 24.0708924 23.11430405 19.4878944 14 15 C14.33 14.34 14.66 13.68 15 13 C24.03180847 17.26655983 32.41223162 21.39641915 40 28 C40.57492188 28.433125 41.14984375 28.86625 41.7421875 29.3125 C56.79724999 40.96803225 65.8015228 60.69399893 69 79 C70.68413823 105.56757102 66.41940671 128.20909521 49 149 C41.11708155 157.88437815 32.47643255 163.89656793 21.8125 168.9375 C15.41453672 171.96866014 11.11595284 175.11612111 7 181 C4.99475847 183.00524153 3.54044091 183.81903828 1 185 C-0.08861328 185.52980469 -0.08861328 185.52980469 -1.19921875 186.0703125 C-7.1429705 188.58964213 -12.42849088 189.37362102 -18.8125 189.375 C-19.88794067 189.37717529 -19.88794067 189.37717529 -20.98510742 189.37939453 C-25.33591799 189.28922754 -28.95442967 188.58774346 -33 187 C-33 186.34 -33 185.68 -33 185 C-33.79881592 184.79020508 -33.79881592 184.79020508 -34.61376953 184.57617188 C-50.5536679 180.3090676 -63.23530661 174.70171264 -76 164 C-76.56589844 163.57847656 -77.13179687 163.15695313 -77.71484375 162.72265625 C-94.61857578 149.63717898 -104.98101639 126.75148912 -108 106 C-109.74669196 77.48194112 -104.92692999 52.90589077 -85.625 30.8125 C-84.10176331 29.19082284 -82.56008467 27.58626058 -81 26 C-80.25234375 25.23945312 -79.5046875 24.47890625 -78.734375 23.6953125 C-58.41426077 4.24990517 -27.7721643 -5.03222122 0 0 Z " fill="#267177" transform="translate(114,12)"/>
<path d="M0 0 C3.17230063 0.36048871 5.23153527 1.67365145 7.75 3.5625 C8.67039062 4.24505859 8.67039062 4.24505859 9.609375 4.94140625 C10.29773438 5.46541016 10.29773438 5.46541016 11 6 C10.57847656 6.45890625 10.15695313 6.9178125 9.72265625 7.390625 C9.17480469 8.00421875 8.62695312 8.6178125 8.0625 9.25 C7.24458984 10.15492187 7.24458984 10.15492187 6.41015625 11.078125 C4.90004975 13.13622028 4.34230719 14.48478633 4 17 C4.20625 18.134375 4.4125 19.26875 4.625 20.4375 C5 24 5 24 3.8125 26.8125 C1.29800406 29.84723647 -0.75162796 30.83891974 -4.6640625 31.34375 C-5.64117187 31.3953125 -6.61828125 31.446875 -7.625 31.5 C-13.21648641 31.87780314 -18.54113773 32.75605572 -24 34 C-23.92493058 55.24464606 -13.58612041 73.1109298 -2.1875 90.375 C4.26472804 100.18316838 7.47834146 109.38006208 9 121 C5.7 123.31 2.4 125.62 -1 128 C-2.38281929 125.23436142 -2.15298 122.84078012 -2.25 119.75 C-3.29633708 105.04149015 -9.94328116 94.25643665 -17.6484375 82.13818359 C-27.05974228 67.24941783 -35.38503679 51.53711716 -35.3125 33.5625 C-35.32861328 32.76779297 -35.34472656 31.97308594 -35.36132812 31.15429688 C-35.36597928 25.43803039 -34.52026917 20.18766995 -32 15 C-31.34 14.67 -30.68 14.34 -30 14 C-29.74605469 14.62648438 -29.49210937 15.25296875 -29.23046875 15.8984375 C-28.88628906 16.71570313 -28.54210937 17.53296875 -28.1875 18.375 C-27.85105469 19.18710937 -27.51460938 19.99921875 -27.16796875 20.8359375 C-26.05560918 23.30147458 -26.05560918 23.30147458 -23 25 C-23 22.69 -23 20.38 -23 18 C-21.72125 18.309375 -20.4425 18.61875 -19.125 18.9375 C-14.11241278 20.06114833 -9.11489044 20.59422581 -4 21 C-6.98127544 15.87220625 -10.03353764 13.24730231 -15 10 C-11.50436954 7.66957969 -7.89910872 5.56482157 -4.27734375 3.4375 C-1.91875071 2.06575918 -1.91875071 2.06575918 0 0 Z " fill="#201E1F" transform="translate(135,42)"/>
<path d="M0 0 C0.66 0.33 1.32 0.66 2 1 C1.93039063 2.72283203 1.93039063 2.72283203 1.859375 4.48046875 C1.43370146 19.33567208 4.70190929 30.3600083 11.82592773 43.3828125 C14.7098572 48.79698775 16.08487256 53.94299044 17 60 C4.24223423 59.5261045 -8.34546802 58.70827889 -21 57 C-20.9175 56.236875 -20.835 55.47375 -20.75 54.6875 C-20.8325 53.800625 -20.915 52.91375 -21 52 C-22.96046559 50.32110423 -22.96046559 50.32110423 -25 49 C-22.98082438 45.10330535 -20.95963704 41.20765867 -18.9375 37.3125 C-18.34275879 36.16668457 -17.74801758 35.02086914 -17.13525391 33.84033203 C-14.09453789 27.9922901 -11.03077714 22.16172741 -7.875 16.375 C-5.66894187 12.31694246 -3.73033046 8.28029113 -2 4 C-1.34711373 2.65986503 -0.68774405 1.32258472 0 0 Z " fill="#EBB421" transform="translate(92,82)"/>
<path d="M0 0 C2.77730475 1.33607533 5.35396636 2.82198211 7.9375 4.5 C10.8731932 6.3601869 13.69709151 7.86462521 17 9 C16.01 10.485 16.01 10.485 15 12 C14.34 12 13.68 12 13 12 C13 12.66 13 13.32 13 14 C17.54805635 14.17835515 20.8794254 13.99785435 25 12 C24.79503906 12.53625 24.59007813 13.0725 24.37890625 13.625 C16.72825583 35.88143758 23.00727688 59.14573777 32.76708984 79.63525391 C35.22027475 84.63443454 37.94764526 89.44049852 40.75 94.25 C46.64014248 104.44165215 51.00178953 115.22340292 48.5625 127.13671875 C47.9375 129.0625 47.9375 129.0625 46 132 C42.37890625 132.68359375 42.37890625 132.68359375 39 133 C39.06960937 131.76507813 39.13921875 130.53015625 39.2109375 129.2578125 C39.97103458 109.9789866 33.90731284 96.49623002 25.27148438 79.53881836 C16.7607951 62.75549165 15.35689731 47.70454674 17.99365234 29.08129883 C18.21600978 26.716374 18.21600978 26.716374 15.9375 24.375 C14.968125 23.59125 13.99875 22.8075 13 22 C11.96985983 20.66861779 10.97127199 19.31241749 10 17.9375 C7.64682712 14.70491974 5.16354998 12.46053887 2 10 C-0.28871935 6.73040093 -0.17819397 3.92026737 0 0 Z " fill="#211F1F" transform="translate(76,43)"/>
<path d="M0 0 C2.475 0.99 2.475 0.99 5 2 C4.67 3.65 4.34 5.3 4 7 C5.25425781 6.979375 6.50851563 6.95875 7.80078125 6.9375 C13.30256102 6.9375 18.71760516 7.44891461 24.1875 8 C32.57538491 8.85559499 32.57538491 8.85559499 41 9 C40.505 5.535 40.505 5.535 40 2 C42.50276394 5.03496087 43.91612312 7.93195283 45.25 11.625 C45.60578125 12.58664063 45.9615625 13.54828125 46.328125 14.5390625 C47 17 47 17 46 19 C45.34 18.67 44.68 18.34 44 18 C43.91363281 18.58523437 43.82726562 19.17046875 43.73828125 19.7734375 C42.79594239 22.61541184 41.46457161 23.70702132 39.1875 25.625 C38.50042969 26.21539062 37.81335938 26.80578125 37.10546875 27.4140625 C34.29060403 29.53435021 32.20217955 31.0316363 28.625 30.9375 C25.75773605 29.91347716 23.92112832 28.4410724 21.72265625 26.3515625 C16.834359 22.5162998 12.76676922 21.63867634 6.625 21.8125 C5.37976563 21.83957031 4.13453125 21.86664063 2.8515625 21.89453125 C1.44003906 21.94673828 1.44003906 21.94673828 0 22 C-0.1953125 18.97265625 -0.1953125 18.97265625 -0.390625 15.9453125 C-0.83022612 13.79577869 -0.83022612 13.79577869 -3.046875 12.7421875 C-3.69140625 12.49726563 -4.3359375 12.25234375 -5 12 C-4.54738642 10.56068883 -4.08767021 9.12361001 -3.625 7.6875 C-3.24214844 6.48673828 -3.24214844 6.48673828 -2.8515625 5.26171875 C-2 3 -2 3 0 0 Z " fill="#F2D03D" transform="translate(67,132)"/>
<path d="M0 0 C1.17513573 4.03898504 0.99084572 6.17757623 -1 10 C-3.53437862 11.68270353 -6.17577437 12.88344568 -9 14 C-6.525 13.505 -6.525 13.505 -4 13 C-6.9672 21.51778309 -14.00772395 26.63749277 -21.77319336 30.73217773 C-27.75189938 33.08122974 -33.70343244 33.10263628 -40.0625 33.0625 C-41.0817305 33.06311935 -41.0817305 33.06311935 -42.12155151 33.06375122 C-54.73318523 32.98642247 -64.72078714 29.87003376 -74 21 C-76.09382341 18.73697874 -78.08200526 16.41342102 -80 14 C-79.31035156 14.19335938 -78.62070313 14.38671875 -77.91015625 14.5859375 C-71.96828666 16.23238147 -66.03029017 17.71485619 -60 19 C-60.33 19.99 -60.66 20.98 -61 22 C-48.30332049 24.42030453 -35.59172446 24.20985239 -24 18 C-21.18890743 15.49131284 -18.93842996 12.91974453 -16.64453125 9.9296875 C-13.58670911 6.54214451 -10.77980086 4.97938968 -6.6875 3.125 C-6.04232422 2.81820312 -5.39714844 2.51140625 -4.73242188 2.1953125 C-3.16111299 1.4503957 -1.58138289 0.72328473 0 0 Z " fill="#201F20" transform="translate(142,177)"/>
<path d="M0 0 C0.33 0 0.66 0 1 0 C1.07089844 1.13953125 1.14179687 2.2790625 1.21484375 3.453125 C1.84979585 8.53722114 4.02207231 12.36941566 6.5625 16.75 C7.40467957 18.21966085 8.23962819 19.69349498 9.06640625 21.171875 C9.43709229 21.8122168 9.80777832 22.45255859 10.18969727 23.11230469 C11 25 11 25 11 29 C11.66 29 12.32 29 13 29 C13.33 29.99 13.66 30.98 14 32 C20.79816469 36.72709591 28.4516932 36.91405384 36.37109375 35.609375 C39.72837734 34.84551598 42.11883444 33.92077704 45 32 C46.32 32 47.64 32 49 32 C49.495 30.515 49.495 30.515 50 29 C50.66 29 51.32 29 52 29 C51.505 26.03 51.505 26.03 51 23 C50.52691406 23.40992188 50.05382812 23.81984375 49.56640625 24.2421875 C44.71095055 28.19848474 40.34324542 30.60652801 34 31 C31.734375 30.53515625 31.734375 30.53515625 30 30 C30.33 29.34 30.66 28.68 31 28 C33.06389439 27.33244094 35.15240406 26.74011777 37.25 26.1875 C43.9702668 24.19494825 47.21337099 22.17622935 50.6875 16 C51.120625 15.01 51.55375 14.02 52 13 C52.37125 12.21625 52.7425 11.4325 53.125 10.625 C54.30255427 7.09233719 54.62333568 3.70386578 55 0 C58.72826821 5.77280238 57.85298116 14.40180715 57 21 C54.20317678 30.63468381 48.63135074 36.27572625 40.06640625 41.0859375 C32.76972775 44.39295603 24.19226225 44.09381514 16.75 41.4375 C8.31280996 37.56424743 2.53757948 31.59343341 -1 23 C-2.94582337 15.09355313 -2.06147825 7.78576162 0 0 Z " fill="#E4A822" transform="translate(59,152)"/>
<path d="M0 0 C0.99 0.33 1.98 0.66 3 1 C2.59311716 8.22943619 0.83279182 13.42211806 -2.5 19.8125 C-2.9441626 20.68181152 -3.3883252 21.55112305 -3.84594727 22.44677734 C-7.91760135 30.21750641 -12.55764858 39.03843239 -20 44 C-22.9174277 44.36467846 -24.36565787 44.47575659 -26.75 42.6875 C-29.58532342 38.85981338 -29.31926659 34.37811068 -29.5625 29.8125 C-29.60568359 29.06291016 -29.64886719 28.31332031 -29.69335938 27.54101562 C-29.79922685 25.69421625 -29.9000976 23.84713166 -30 22 C-30.96099609 23.50240234 -30.96099609 23.50240234 -31.94140625 25.03515625 C-43.74972626 43.27771695 -43.74972626 43.27771695 -49.8125 44.625 C-52 44 -52 44 -54 41 C-55.18867543 29.5094708 -51.41131973 11.61697959 -45 2 C-44.01 2.33 -43.02 2.66 -42 3 C-42.67258511 7.83656709 -43.97581781 12.35710315 -45.4375 17 C-47.77302812 24.62660648 -49.1563429 32.05451295 -50 40 C-44.44855057 36.36574943 -41.4530458 31.03154102 -37.9375 25.5625 C-29.60122901 12.72868344 -29.60122901 12.72868344 -27 10 C-26.01 10 -25.02 10 -24 10 C-24.03552979 10.589021 -24.07105957 11.17804199 -24.10766602 11.78491211 C-24.2670904 14.5020465 -24.41485298 17.21970118 -24.5625 19.9375 C-24.61857422 20.86369141 -24.67464844 21.78988281 -24.73242188 22.74414062 C-25.04292831 28.64376282 -24.81051594 34.1462738 -24 40 C-13.14617919 34.13856696 -6.86127173 19.09218774 -2.86328125 7.78515625 C-2.369488 6.10625919 -1.90042751 4.41957666 -1.47265625 2.72265625 C-1 1 -1 1 0 0 Z " fill="#017675" transform="translate(259,107)"/>
<path d="M0 0 C0.99 0.99 0.99 0.99 2 2 C1.21052979 1.97905273 0.42105957 1.95810547 -0.39233398 1.93652344 C-30.64200389 1.24067313 -55.76781967 5.7621484 -79 27 C-96.10604945 43.63396692 -105.71350076 66.5158398 -106.47241211 90.24267578 C-106.72898122 116.46721713 -96.74303299 139.80256614 -78.625 158.6875 C-67.7302836 169.23077393 -54.14734274 175.89561353 -40 181 C-46.67074449 182.96621704 -53.13862005 179.07299089 -59.00732422 175.92236328 C-83.27303462 162.09997695 -98.3274939 142.1757877 -106.08984375 115.5234375 C-112.17007754 91.98536506 -108.28729861 65.72547224 -96.15234375 44.81640625 C-91.74522721 37.93850071 -86.72308638 31.81911132 -81 26 C-80.25234375 25.23945312 -79.5046875 24.47890625 -78.734375 23.6953125 C-58.41426077 4.24990517 -27.7721643 -5.03222122 0 0 Z " fill="#009C8B" transform="translate(114,12)"/>
<path d="M0 0 C-2.9933211 1.68659209 -6.02953023 2.62638752 -9.32958984 3.54589844 C-29.00555879 9.11660724 -43.69377065 20.52247575 -53.9453125 38.390625 C-57.86355266 45.67615011 -60.47457116 52.87251514 -62 61 C-62.226875 62.175625 -62.45375 63.35125 -62.6875 64.5625 C-64.57252838 85.29781221 -58.99683978 104.64004913 -45.69140625 120.8046875 C-42.34727466 124.59360507 -39.14478143 128.08087628 -35 131 C-33.9891615 128.01668461 -33.01077946 125.03714544 -32.1328125 122.01171875 C-26.87211175 104.6595624 -18.03571925 88.51626883 -9.4375 72.625 C-8.93726318 71.6980835 -8.43702637 70.77116699 -7.92163086 69.81616211 C-7.45120361 68.96159424 -6.98077637 68.10702637 -6.49609375 67.2265625 C-6.08544678 66.47971191 -5.6747998 65.73286133 -5.25170898 64.96337891 C-4.01243824 63.01951011 -2.6920397 61.55587738 -1 60 C-2.39834547 64.64638706 -4.34257273 68.78588368 -6.66796875 73.0234375 C-7.40435539 74.38929137 -8.14068143 75.75517792 -8.87695312 77.12109375 C-10.02218437 79.2320453 -11.16944506 81.34186744 -12.31860352 83.45068359 C-28.42715647 113.04886283 -28.42715647 113.04886283 -30 146 C-31.32 145.67 -32.64 145.34 -34 145 C-34 141.37 -34 137.74 -34 134 C-35.32 133.34 -36.64 132.68 -38 132 C-52.89688179 121.16590415 -60.92372323 103.65640143 -64.61328125 86.078125 C-67.30134679 64.68220938 -62.50904391 44.35531488 -49.5 27 C-48.35524559 25.64780688 -47.18899773 24.31345852 -46 23 C-45.43152344 22.34 -44.86304687 21.68 -44.27734375 21 C-33.43959498 9.21883786 -16.26858988 -0.36974068 0 0 Z " fill="#0C5656" transform="translate(89,31)"/>
<path d="M0 0 C1.22589844 0.15275391 1.22589844 0.15275391 2.4765625 0.30859375 C3.41628906 0.43427734 3.41628906 0.43427734 4.375 0.5625 C5.33634424 12.33896693 1.10217414 24.96417461 -5.625 34.5625 C-8.66608246 37.94233595 -12.17257563 40.47654284 -16.625 41.5625 C-20.02360775 41.38670994 -22.5992875 41.158075 -25.5625 39.4375 C-27.20920065 36.53155769 -26.80962917 33.82428195 -26.625 30.5625 C-25.305 30.2325 -23.985 29.9025 -22.625 29.5625 C-22.625 31.8725 -22.625 34.1825 -22.625 36.5625 C-19.37298343 36.96070611 -16.73727511 37.15508631 -13.77734375 35.578125 C-6.46310601 29.85533679 -3.42601382 21.40384058 -1.625 12.5625 C-2.13289063 12.995625 -2.64078125 13.42875 -3.1640625 13.875 C-8.83387024 18.46181076 -8.83387024 18.46181076 -13.0625 19 C-15.625 18.5625 -15.625 18.5625 -16.625 17.5625 C-17.06169519 13.80692133 -16.78755127 11.86884662 -15 8.5 C-10.82198151 3.33245082 -6.93996602 -0.89228134 0 0 Z M-9.625 7.5625 C-11.24325147 9.83274264 -12.39107078 12.0452844 -13.625 14.5625 C-12.635 15.0575 -12.635 15.0575 -11.625 15.5625 C-10.35299029 14.45968873 -9.08244147 13.35519231 -7.8125 12.25 C-6.75095703 11.32767578 -6.75095703 11.32767578 -5.66796875 10.38671875 C-4.99378906 9.78472656 -4.31960938 9.18273437 -3.625 8.5625 C-3.04363281 8.05332031 -2.46226562 7.54414062 -1.86328125 7.01953125 C-0.30120544 5.50019519 -0.30120544 5.50019519 -0.625 2.5625 C-4.27018979 2.5625 -7.01854716 5.21727295 -9.625 7.5625 Z " fill="#017675" transform="translate(364.625,66.4375)"/>
<path d="M0 0 C2 1.25 2 1.25 4 3 C4 4.32 4 5.64 4 7 C4.99580078 6.89171875 4.99580078 6.89171875 6.01171875 6.78125 C6.89472656 6.6884375 7.77773437 6.595625 8.6875 6.5 C9.55761719 6.4071875 10.42773438 6.314375 11.32421875 6.21875 C13.89723339 6.00840136 16.41984364 5.96280856 19 6 C19 7.32 19 8.64 19 10 C20.03125 10.391875 21.0625 10.78375 22.125 11.1875 C28.96193866 14.15109236 32.96658218 18.94987328 37 25 C34.72589213 26.4318457 33.33669586 27.00886042 30.625 26.9375 C27.75773605 25.91347716 25.92112832 24.4410724 23.72265625 22.3515625 C18.834359 18.5162998 14.76676922 17.63867634 8.625 17.8125 C7.37976563 17.83957031 6.13453125 17.86664063 4.8515625 17.89453125 C3.44003906 17.94673828 3.44003906 17.94673828 2 18 C1.87625 16.081875 1.87625 16.081875 1.75 14.125 C1.54130069 11.94666582 1.54130069 11.94666582 1 10 C-0.92064793 8.4100567 -0.92064793 8.4100567 -3 8 C-1.125 2.25 -1.125 2.25 0 0 Z " fill="#F4D44A" transform="translate(65,136)"/>
<path d="M0 0 C1.76953125 1.36328125 1.76953125 1.36328125 3 3 C3 3.99 3 4.98 3 6 C-1.875 5.125 -1.875 5.125 -3 4 C-8.16796495 3.59466942 -11.68700747 4.02198135 -16 7 C-16.70036102 9.55761268 -16.70036102 9.55761268 -17 12 C-16.25234375 12.53109375 -15.5046875 13.0621875 -14.734375 13.609375 C-13.25710937 14.66898438 -13.25710937 14.66898438 -11.75 15.75 C-10.77546875 16.44609375 -9.8009375 17.1421875 -8.796875 17.859375 C-6.27441045 19.78997636 -4.04803807 21.57393621 -2 24 C-1.43959476 28.41319128 -1.35965464 30.74841588 -3.375 34.6875 C-9.8225636 40.36749651 -17.37441023 43.14217011 -25.875 43.25 C-27.08929688 43.27578125 -28.30359375 43.3015625 -29.5546875 43.328125 C-33.20672783 42.98031164 -35.05885669 42.12478034 -38 40 C-37.67 38.68 -37.34 37.36 -37 36 C-36.48953125 36.23976562 -35.9790625 36.47953125 -35.453125 36.7265625 C-28.62714225 39.51020795 -23.0091421 39.13693357 -16 37 C-12.71989886 35.40082296 -9.5961412 33.5961412 -7 31 C-6.74971238 27.93397667 -6.70126686 26.71694973 -8 24 C-10.64037518 21.66296889 -13.39383931 19.73757301 -16.3359375 17.796875 C-21.74472978 14.14871598 -21.74472978 14.14871598 -22.625 10.1875 C-21.81600308 6.06161569 -20.19124497 4.75297867 -16.921875 2.26171875 C-11.55969617 -1.25857345 -6.1257543 -1.73854741 0 0 Z " fill="#017675" transform="translate(241,47)"/>
<path d="M0 0 C14.21337613 1.64342161 26.54782166 10.85087838 37 20 C38.02480469 20.87398437 38.02480469 20.87398437 39.0703125 21.765625 C54.38449497 35.86891863 65.03914379 58.61373373 66.12451172 79.38256836 C66.90037432 106.101638 61.34467636 130.54860286 43 151 C42.18789062 151.90621094 41.37578125 152.81242188 40.5390625 153.74609375 C31.79044255 162.99500135 21.5900029 169.73181687 10 175 C9.0925 175.433125 8.185 175.86625 7.25 176.3125 C4.67665872 177.09879872 3.52785665 176.73817663 1 176 C2.52367187 175.38125 2.52367187 175.38125 4.078125 174.75 C29.33209527 164.2614062 47.29952624 147.29029284 58 122 C66.27708149 100.06696211 66.52548043 75.84152186 57.44140625 54.12109375 C51.98592429 42.30827509 45.59470173 31.90936589 36 23 C35.35160156 22.34644531 34.70320313 21.69289063 34.03515625 21.01953125 C24.48608263 11.78823047 12.53129588 5.30763296 0 1 C0 0.67 0 0.34 0 0 Z " fill="#009C8A" transform="translate(126,16)"/>
<path d="M0 0 C-3.32628166 2.21752111 -5.80250071 2.74148263 -9.6875 3.625 C-22.59200856 6.84677553 -34.2077798 12.97253723 -44 22 C-45.27810547 23.15822266 -45.27810547 23.15822266 -46.58203125 24.33984375 C-52.52272137 29.97771009 -56.99344934 35.87039447 -61 43 C-61.69222656 44.21816406 -61.69222656 44.21816406 -62.3984375 45.4609375 C-73.01365132 65.34033792 -74.24775938 87.86798882 -67.875 109.25 C-61.8328802 127.88906593 -48.59906758 145.89563248 -31 155 C-30.01 155.33 -29.02 155.66 -28 156 C-27.67 156.99 -27.34 157.98 -27 159 C-43.77858366 154.21674055 -56.82236265 137.69007032 -65 123 C-75.38174689 102.15864311 -76.83450564 78.60007294 -69.8984375 56.48828125 C-61.78780103 34.38025603 -47.13994508 17.40771419 -26 7 C-8.78841871 -0.54927617 -8.78841871 -0.54927617 0 0 Z " fill="#04877E" transform="translate(88,21)"/>
<path d="M0 0 C1.96875 1.0625 1.96875 1.0625 4 3 C4.46875 6.1875 4.46875 6.1875 4.5 10 C4.7153595 16.641461 5.41494366 23.24114759 9 29 C11.94528626 30.28671825 12.8705596 30.0431468 16 29 C16.32613281 29.49371094 16.65226562 29.98742187 16.98828125 30.49609375 C17.64376953 31.45708984 17.64376953 31.45708984 18.3125 32.4375 C18.74175781 33.07558594 19.17101562 33.71367187 19.61328125 34.37109375 C21.0034052 36.2885684 21.0034052 36.2885684 24 37 C24 37.66 24 38.32 24 39 C22.68 39 21.36 39 20 39 C20.33 40.98 20.66 42.96 21 45 C16.29761275 44.53898164 12.76737643 43.96823597 9 41 C9 40.01 9 39.02 9 38 C8.34 38 7.68 38 7 38 C6.78085938 37.40574219 6.56171875 36.81148437 6.3359375 36.19921875 C4.48484693 31.3607991 2.43437139 26.91047577 -0.1875 22.4375 C-3.17808948 17.05595701 -5.15031018 12.05274846 -3.41015625 5.921875 C-1.67525773 1.67525773 -1.67525773 1.67525773 0 0 Z " fill="#F3E07A" transform="translate(63,143)"/>
<path d="M0 0 C20.57393002 6.77896772 36.95949166 21.9740887 46.875 41 C56.16840624 60.61697779 58.71366173 84.39429808 52.390625 105.3671875 C45.16473524 124.24380964 33.85759806 141.63704154 16 152 C13.70703125 152.6875 13.70703125 152.6875 12 153 C14.64229389 150.26803551 17.34969551 147.86066991 20.375 145.5625 C37.8165808 132.28101356 49.30244578 114.18998847 52.71875 92.31884766 C55.43340555 69.93707822 50.40750558 48.32448658 37 30 C34.15387536 26.50259999 31.16008086 23.21532703 28 20 C27.07960937 19.06027344 27.07960937 19.06027344 26.140625 18.1015625 C18.69638607 11.0708924 9.11430405 6.4878944 0 2 C0 1.34 0 0.68 0 0 Z " fill="#03877E" transform="translate(128,25)"/>
<path d="M0 0 C0.99 0.33 1.98 0.66 3 1 C2.3465638 4.51841119 1.48482806 7.89421478 0.44140625 11.31640625 C-0.01395508 12.83524414 -0.01395508 12.83524414 -0.47851562 14.38476562 C-1.10995055 16.47711721 -1.74526889 18.56830141 -2.38476562 20.65820312 C-4.49157149 27.71800715 -5.9590709 34.70698542 -7 42 C-8.32 42 -9.64 42 -11 42 C-10.49451662 33.45907394 -8.93265709 25.32622708 -7 17 C-7.58394531 17.48984375 -8.16789062 17.9796875 -8.76953125 18.484375 C-11.89334712 20.60703798 -14.31108636 20.27840858 -18 20 C-19 19 -19 19 -19.01953125 17.21484375 C-18.48167008 11.29837092 -16.91616627 7.17384338 -14 2 C-12.68 2 -11.36 2 -10 2 C-10.55072183 4.75360915 -11.42121782 6.96037662 -12.5625 9.5625 C-14.19290307 12.84029583 -14.19290307 12.84029583 -14 16 C-8.07767135 11.32526851 -3.87428884 6.4718234 0 0 Z " fill="#017675" transform="translate(396,65)"/>
<path d="M0 0 C0.99 0.33 1.98 0.66 3 1 C2.3465638 4.51841119 1.48482806 7.89421478 0.44140625 11.31640625 C-0.01395508 12.83524414 -0.01395508 12.83524414 -0.47851562 14.38476562 C-1.10995055 16.47711721 -1.74526889 18.56830141 -2.38476562 20.65820312 C-4.49157149 27.71800715 -5.9590709 34.70698542 -7 42 C-8.32 42 -9.64 42 -11 42 C-10.49451662 33.45907394 -8.93265709 25.32622708 -7 17 C-7.58394531 17.48984375 -8.16789062 17.9796875 -8.76953125 18.484375 C-11.89334712 20.60703798 -14.31108636 20.27840858 -18 20 C-19 19 -19 19 -19.01953125 17.21484375 C-18.48167008 11.29837092 -16.91616627 7.17384338 -14 2 C-12.68 2 -11.36 2 -10 2 C-10.55072183 4.75360915 -11.42121782 6.96037662 -12.5625 9.5625 C-14.19290307 12.84029583 -14.19290307 12.84029583 -14 16 C-8.07767135 11.32526851 -3.87428884 6.4718234 0 0 Z " fill="#017675" transform="translate(265,65)"/>
<path d="M0 0 C17.14643525 10.56121012 29.73701748 25.62120314 34.875 45.375 C35.27699464 47.24439838 35.65527819 49.11919781 36 51 C36.13019531 51.69351563 36.26039063 52.38703125 36.39453125 53.1015625 C36.69883263 55.07343543 36.87738717 57.00847033 37 59 C37.05285156 59.8559375 37.10570312 60.711875 37.16015625 61.59375 C37.80244038 82.37024529 30.48676953 101.53230107 16.2890625 116.6796875 C10.36770612 122.68188151 4.55539722 127.20481204 -3 131 C-1.82201148 127.46603445 -1.14651295 127.22865981 1.9375 125.375 C18.23214171 114.85731393 28.67721962 99.19522792 33.30859375 80.3984375 C37.16587525 59.3829038 32.77613456 40.00018873 21.23828125 22.296875 C19.58288964 20.08968619 17.85995566 18.03728194 16 16 C14.93265625 14.83017578 14.93265625 14.83017578 13.84375 13.63671875 C9.27196015 8.85356191 4.76173558 5.24752369 -1 2 C-0.67 1.34 -0.34 0.68 0 0 Z " fill="#027373" transform="translate(137,40)"/>
<path d="M0 0 C0.66 1.32 1.32 2.64 2 4 C-1.00878324 9.06022636 -4.35169089 10.06773895 -9.7578125 11.51953125 C-12 12 -12 12 -14 12 C-14 12.99 -14 13.98 -14 15 C-10.59582817 14.60416607 -8.27032688 14.16345347 -5.3125 12.375 C-4.549375 11.92125 -3.78625 11.4675 -3 11 C-2.01 11.33 -1.02 11.66 0 12 C-1.46748366 15.86882056 -3.25807955 17.29173197 -7 19 C-9.75486586 19.65643288 -12.13156468 19.86120474 -15 20 C-15.99 19.34 -16.98 18.68 -18 18 C-18.63642385 14.46431197 -18.58025627 12.05606642 -16.828125 8.8671875 C-12.06880138 2.21885399 -8.43037798 -0.49590459 0 0 Z M-4 3 C-6.62387135 4.39092892 -6.62387135 4.39092892 -9 6 C-8.01 6.495 -8.01 6.495 -7 7 C-4.37612865 5.60907108 -4.37612865 5.60907108 -2 4 C-2.66 3.67 -3.32 3.34 -4 3 Z " fill="#017675" transform="translate(359,128)"/>
<path d="M0 0 C0.66 1.32 1.32 2.64 2 4 C-1.00878324 9.06022636 -4.35169089 10.06773895 -9.7578125 11.51953125 C-12 12 -12 12 -14 12 C-14 12.99 -14 13.98 -14 15 C-10.59582817 14.60416607 -8.27032688 14.16345347 -5.3125 12.375 C-4.549375 11.92125 -3.78625 11.4675 -3 11 C-2.01 11.33 -1.02 11.66 0 12 C-1.46748366 15.86882056 -3.25807955 17.29173197 -7 19 C-9.75486586 19.65643288 -12.13156468 19.86120474 -15 20 C-15.99 19.34 -16.98 18.68 -18 18 C-18.63642385 14.46431197 -18.58025627 12.05606642 -16.828125 8.8671875 C-12.06880138 2.21885399 -8.43037798 -0.49590459 0 0 Z M-4 3 C-6.62387135 4.39092892 -6.62387135 4.39092892 -9 6 C-8.01 6.495 -8.01 6.495 -7 7 C-4.37612865 5.60907108 -4.37612865 5.60907108 -2 4 C-2.66 3.67 -3.32 3.34 -4 3 Z " fill="#017675" transform="translate(278,128)"/>
<path d="M0 0 C0.66 1.32 1.32 2.64 2 4 C-1.00878324 9.06022636 -4.35169089 10.06773895 -9.7578125 11.51953125 C-12 12 -12 12 -14 12 C-14 12.99 -14 13.98 -14 15 C-10.59582817 14.60416607 -8.27032688 14.16345347 -5.3125 12.375 C-4.549375 11.92125 -3.78625 11.4675 -3 11 C-2.01 11.33 -1.02 11.66 0 12 C-1.46748366 15.86882056 -3.25807955 17.29173197 -7 19 C-9.75486586 19.65643288 -12.13156468 19.86120474 -15 20 C-15.99 19.34 -16.98 18.68 -18 18 C-18.63642385 14.46431197 -18.58025627 12.05606642 -16.828125 8.8671875 C-12.06880138 2.21885399 -8.43037798 -0.49590459 0 0 Z M-4 3 C-6.62387135 4.39092892 -6.62387135 4.39092892 -9 6 C-8.01 6.495 -8.01 6.495 -7 7 C-4.37612865 5.60907108 -4.37612865 5.60907108 -2 4 C-2.66 3.67 -3.32 3.34 -4 3 Z " fill="#017675" transform="translate(318,66)"/>
<path d="M0 0 C1.31052767 4.30422506 0.45785552 7.9370534 -0.4375 12.25 C-0.65889648 13.36761719 -0.65889648 13.36761719 -0.88476562 14.5078125 C-1.2488694 16.34007665 -1.62341409 18.17026053 -2 20 C-3.32 19.67 -4.64 19.34 -6 19 C-5.47462276 13.9697924 -4.89405214 8.98114761 -4 4 C-9.28583304 7.83222896 -12.59787362 12.38874095 -16.265625 17.76953125 C-16.83796875 18.50558594 -17.4103125 19.24164063 -18 20 C-18.66 20 -19.32 20 -20 20 C-19.5464821 12.97047248 -17.87940913 7.4150557 -15 1 C-13.68 1 -12.36 1 -11 1 C-11 1.99 -11 2.98 -11 4 C-10.29875 3.34 -9.5975 2.68 -8.875 2 C-5.56539771 -0.30233203 -3.93774177 -0.36630156 0 0 Z " fill="#017675" transform="translate(334,128)"/>
<path d="M0 0 C1.31052767 4.30422506 0.45785552 7.9370534 -0.4375 12.25 C-0.65889648 13.36761719 -0.65889648 13.36761719 -0.88476562 14.5078125 C-1.2488694 16.34007665 -1.62341409 18.17026053 -2 20 C-3.32 19.67 -4.64 19.34 -6 19 C-5.47462276 13.9697924 -4.89405214 8.98114761 -4 4 C-9.28583304 7.83222896 -12.59787362 12.38874095 -16.265625 17.76953125 C-16.83796875 18.50558594 -17.4103125 19.24164063 -18 20 C-18.66 20 -19.32 20 -20 20 C-19.5464821 12.97047248 -17.87940913 7.4150557 -15 1 C-13.68 1 -12.36 1 -11 1 C-11 1.99 -11 2.98 -11 4 C-10.29875 3.34 -9.5975 2.68 -8.875 2 C-5.56539771 -0.30233203 -3.93774177 -0.36630156 0 0 Z " fill="#017675" transform="translate(293,66)"/>
<path d="M0 0 C3.73669693 0.41518855 6.73738338 1.11772118 10 3 C10 4.65 10 6.3 10 8 C10.80824219 8.01417969 11.61648437 8.02835938 12.44921875 8.04296875 C21.12877922 8.43035565 21.12877922 8.43035565 25.25 11.125 C27.40154979 14.65968895 27.39887592 16.93146558 27 21 C23.60406522 21 22.93380119 20.47834052 20.3125 18.5 C19.68988281 18.0359375 19.06726563 17.571875 18.42578125 17.09375 C17.95527344 16.7328125 17.48476562 16.371875 17 16 C17.66 14.35 18.32 12.7 19 11 C18.23816406 11.03480469 17.47632813 11.06960937 16.69140625 11.10546875 C9.82799861 11.28540828 4.33464945 10.68742704 -2 8 C-1.125 1.125 -1.125 1.125 0 0 Z " fill="#201E1F" transform="translate(121,25)"/>
<path d="M0 0 C0.33 0 0.66 0 1 0 C1.07089844 1.13953125 1.14179687 2.2790625 1.21484375 3.453125 C1.84979585 8.53722114 4.02207231 12.36941566 6.5625 16.75 C7.40467957 18.21966085 8.23962819 19.69349498 9.06640625 21.171875 C9.43709229 21.8122168 9.80777832 22.45255859 10.18969727 23.11230469 C11 25 11 25 11 29 C11.66 29 12.32 29 13 29 C12.67 29.99 12.34 30.98 12 32 C9.69 29.36 7.38 26.72 5 24 C5.33 26.64 5.66 29.28 6 32 C3 31 3 31 1.8671875 29.328125 C-2.90234247 19.33840082 -2.81424737 10.62880926 0 0 Z " fill="#E2A424" transform="translate(59,152)"/>
<path d="M0 0 C0.33 0 0.66 0 1 0 C1.36243655 6.40304569 1.36243655 6.40304569 -0.0625 8.75 C-8.76991771 14.36768884 -17.8925978 15.3344361 -28 15 C-27.67 12.69 -27.34 10.38 -27 8 C-24.69 7.34 -22.38 6.68 -20 6 C-20 6.66 -20 7.32 -20 8 C-11.8910061 7.96614199 -5.83066955 5.83066955 0 0 Z " fill="#F1D03B" transform="translate(110,174)"/>
<path d="M0 0 C3.1590583 5.21876431 2.59035591 11.11017006 2 17 C0.98745063 20.21374365 -0.31382516 23.08683186 -2 26 C-2.66 25.01 -3.32 24.02 -4 23 C-4.47308594 23.40992188 -4.94617188 23.81984375 -5.43359375 24.2421875 C-10.28904945 28.19848474 -14.65675458 30.60652801 -21 31 C-23.265625 30.53515625 -23.265625 30.53515625 -25 30 C-24.67 29.34 -24.34 28.68 -24 28 C-21.93610561 27.33244094 -19.84759594 26.74011777 -17.75 26.1875 C-11.0297332 24.19494825 -7.78662901 22.17622935 -4.3125 16 C-3.879375 15.01 -3.44625 14.02 -3 13 C-2.443125 11.824375 -2.443125 11.824375 -1.875 10.625 C-0.69744573 7.09233719 -0.37666432 3.70386578 0 0 Z " fill="#E9A523" transform="translate(114,152)"/>
<path d="M0 0 C0 1.32 0 2.64 0 4 C-2.31 4.33 -4.62 4.66 -7 5 C-6.175 5.886875 -5.35 6.77375 -4.5 7.6875 C-2.71876169 9.84534299 -2.02265089 10.90260117 -1.375 13.6875 C-2 16 -2 16 -4.25 17.75 C-9.02853324 19.92206056 -12.71903198 20.10155708 -18 20 C-18.33 18.68 -18.66 17.36 -19 16 C-15.04 15.34 -11.08 14.68 -7 14 C-8.59783096 10.15288202 -8.59783096 10.15288202 -10.6875 8.5625 C-12 7 -12 7 -11.9375 4.4375 C-11 2 -11 2 -9.375 0.6875 C-6.20198632 -0.23100396 -3.28355254 -0.12629048 0 0 Z " fill="#017675" transform="translate(403,128)"/>
<path d="M0 0 C0 1.32 0 2.64 0 4 C-2.31 4.33 -4.62 4.66 -7 5 C-6.175 5.886875 -5.35 6.77375 -4.5 7.6875 C-2.71876169 9.84534299 -2.02265089 10.90260117 -1.375 13.6875 C-2 16 -2 16 -4.25 17.75 C-9.02853324 19.92206056 -12.71903198 20.10155708 -18 20 C-18.33 18.68 -18.66 17.36 -19 16 C-15.04 15.34 -11.08 14.68 -7 14 C-8.59783096 10.15288202 -8.59783096 10.15288202 -10.6875 8.5625 C-12 7 -12 7 -11.9375 4.4375 C-11 2 -11 2 -9.375 0.6875 C-6.20198632 -0.23100396 -3.28355254 -0.12629048 0 0 Z " fill="#017675" transform="translate(381,128)"/>
<path d="M0 0 C0.66 0 1.32 0 2 0 C1.43053278 6.14462159 0.03094714 11.54084271 -1.9375 17.375 C-4.06956018 23.88163362 -5.88983338 30.22798359 -7 37 C-8.32 36.67 -9.64 36.34 -11 36 C-10.40127561 29.6987909 -8.99087877 23.97657593 -7.125 17.9375 C-6.86847656 17.07833984 -6.61195313 16.21917969 -6.34765625 15.33398438 C-2.42168633 2.42168633 -2.42168633 2.42168633 0 0 Z " fill="#017675" transform="translate(311,111)"/>
<path d="M0 0 C0.66 0 1.32 0 2 0 C1.43053278 6.14462159 0.03094714 11.54084271 -1.9375 17.375 C-4.06956018 23.88163362 -5.88983338 30.22798359 -7 37 C-8.32 36.67 -9.64 36.34 -11 36 C-10.40127561 29.6987909 -8.99087877 23.97657593 -7.125 17.9375 C-6.86847656 17.07833984 -6.61195313 16.21917969 -6.34765625 15.33398438 C-2.42168633 2.42168633 -2.42168633 2.42168633 0 0 Z " fill="#017675" transform="translate(297,111)"/>
<path d="M0 0 C2.25 0.75 2.25 0.75 3.25 1.75 C3.29063832 3.41617115 3.292721 5.08388095 3.25 6.75 C2.26 6.75 1.27 6.75 0.25 6.75 C0.25 5.76 0.25 4.77 0.25 3.75 C-5.4147571 6.17775304 -10.07135731 9.26068655 -12.79296875 14.91796875 C-13.51631102 16.83669354 -14.1422205 18.79159939 -14.75 20.75 C-15.74 20.42 -16.73 20.09 -17.75 19.75 C-16.50971762 13.57777121 -14.85396411 7.68317878 -12.75 1.75 C-12.028125 1.976875 -11.30625 2.20375 -10.5625 2.4375 C-7.67148268 3.0463141 -7.67148268 3.0463141 -5.25 1.25 C-2.75 -0.25 -2.75 -0.25 0 0 Z " fill="#017675" transform="translate(342.75,65.25)"/>
<path d="M0 0 C2.475 0.99 2.475 0.99 5 2 C4.67 3.65 4.34 5.3 4 7 C5.17433594 6.9690625 6.34867188 6.938125 7.55859375 6.90625 C14.43549747 6.90625 21.23434312 7.75290743 28.0625 8.5 C29.41857365 8.64496351 30.77469324 8.78949803 32.13085938 8.93359375 C35.421048 9.28485944 38.71070945 9.64043805 42 10 C42.495 11.98 42.495 11.98 43 14 C41.783125 13.690625 40.56625 13.38125 39.3125 13.0625 C27.07385145 10.3870745 14.45509969 10.88163052 2 11 C1.71125 10.236875 1.4225 9.47375 1.125 8.6875 C0.03730987 5.84970692 0.03730987 5.84970692 -2 3 C-1.34 2.01 -0.68 1.02 0 0 Z " fill="#F1C631" transform="translate(67,132)"/>
<path d="M0 0 C1.0828125 1.11375 1.0828125 1.11375 2.1875 2.25 C6.74380579 6.70505455 10.97156493 9.65402886 16.8125 12.25 C17.97394531 12.77078125 19.13539062 13.2915625 20.33203125 13.828125 C21.21246094 14.21484375 22.09289062 14.6015625 23 15 C23 15.33 23 15.66 23 16 C22.36191406 15.9278125 21.72382812 15.855625 21.06640625 15.78125 C20.24011719 15.6884375 19.41382812 15.595625 18.5625 15.5 C17.73878906 15.4071875 16.91507813 15.314375 16.06640625 15.21875 C14.5360501 15.05543721 14.5360501 15.05543721 13 15 C15.475 16.98 15.475 16.98 18 19 C11.54052691 18.51553952 6.77957637 15.51058511 2.0625 11.25 C0.3725278 7.67123534 0.24261066 3.91523402 0 0 Z " fill="#D19227" transform="translate(63,175)"/>
<path d="M0 0 C0 3.3 0 6.6 0 10 C-6.93 13.465 -6.93 13.465 -14 17 C-12.31619057 7.1376876 -12.31619057 7.1376876 -8.609375 3.93359375 C-1.97439759 0 -1.97439759 0 0 0 Z " fill="#201E1F" transform="translate(144,165)"/>
<path d="M0 0 C0.66 0 1.32 0 2 0 C2.4125 0.82242188 2.825 1.64484375 3.25 2.4921875 C8.44932293 12.54266441 14.03166364 20.61330474 22.875 27.875 C28.08163953 32.39750294 29.37621184 35.93600304 29.94921875 42.7265625 C29.96597656 43.47679687 29.98273437 44.22703125 30 45 C28.68 44.67 27.36 44.34 26 44 C26 40.37 26 36.74 26 33 C24.68 32.34 23.36 31.68 22 31 C12.5879468 24.1548704 2.1792492 11.6410527 0 0 Z " fill="#017675" transform="translate(29,132)"/>
<path d="M0 0 C1.984375 1.01953125 1.984375 1.01953125 4 3 C4.29642569 5.71229503 4.38061189 7.99739732 4.25 10.6875 C4.23195313 11.38939453 4.21390625 12.09128906 4.1953125 12.81445312 C4.14826213 14.54355436 4.07651873 16.27195205 4 18 C0.15625 16.328125 0.15625 16.328125 -1.25 13.375 C-2.14469 9.34889499 -2.27462843 6.1194265 -2 2 C-1.34 1.34 -0.68 0.68 0 0 Z " fill="#F7EC8C" transform="translate(63,143)"/>
<path d="M0 0 C3.46941546 0.45822468 6.67395049 0.89131683 10 2 C11.125 7.75 11.125 7.75 10 10 C6.7 9.01 3.4 8.02 0 7 C0 4.69 0 2.38 0 0 Z " fill="#211E1F" transform="translate(121,16)"/>
<path d="M0 0 C0.33 0 0.66 0 1 0 C1.07089844 1.13953125 1.14179687 2.2790625 1.21484375 3.453125 C1.84979585 8.53722114 4.02207231 12.36941566 6.5625 16.75 C7.40467957 18.21966085 8.23962819 19.69349498 9.06640625 21.171875 C9.43709229 21.8122168 9.80777832 22.45255859 10.18969727 23.11230469 C11 25 11 25 11 29 C11.66 29 12.32 29 13 29 C12.67 29.99 12.34 30.98 12 32 C6.05753184 27.30130425 4.24372038 21.95870682 1.98046875 14.94921875 C1.29191488 12.14260673 1.29191488 12.14260673 0 11 C-0.07226502 9.14712498 -0.0838122 7.29166122 -0.0625 5.4375 C-0.05347656 4.42558594 -0.04445312 3.41367188 -0.03515625 2.37109375 C-0.02355469 1.58863281 -0.01195312 0.80617187 0 0 Z " fill="#F1C94F" transform="translate(59,152)"/>
<path d="M0 0 C1.4025 -0.020625 2.805 -0.04125 4.25 -0.0625 C5.43335937 -0.07990234 5.43335937 -0.07990234 6.640625 -0.09765625 C8.90691002 -0.00385306 10.8288895 0.36758937 13 1 C12.34 3.31 11.68 5.62 11 8 C9.35 8.33 7.7 8.66 6 9 C4.02 6.03 2.04 3.06 0 0 Z " fill="#201E1F" transform="translate(95,21)"/>
<path d="M0 0 C5.21871939 2.03657342 7.85075061 4.93068518 11.3203125 9.125 C13.29185432 11.32579087 15.34636767 12.71339038 18 14 C13.74853932 15.41715356 11.3990519 14.00251465 7.3828125 12.3046875 C4.02610099 10.46675038 2.61160661 8.43342278 1 5 C0.25 2.125 0.25 2.125 0 0 Z " fill="#201E1F" transform="translate(56,178)"/>
<path d="M0 0 C5.07419161 6.34273951 8.54326195 13.86039181 12.31640625 21.01171875 C13.88808856 23.95695352 13.88808856 23.95695352 15.71484375 26.26953125 C17 28 17 28 17 30 C14.525 29.01 14.525 29.01 12 28 C12 27.01 12 26.02 12 25 C11.34 25 10.68 25 10 25 C9.67128906 24.10861328 9.67128906 24.10861328 9.3359375 23.19921875 C7.07622625 17.29273772 4.38129654 11.89497382 1.171875 6.4453125 C0 4 0 4 0 0 Z " fill="#F0D366" transform="translate(60,156)"/>
<path d="M0 0 C-3.49612068 4.25614691 -7.70369139 6.67212893 -13 8 C-17.39411488 8.03456045 -21.65289676 7.61813524 -26 7 C-26 6.67 -26 6.34 -26 6 C-24.71416016 5.85304687 -24.71416016 5.85304687 -23.40234375 5.703125 C-15.88615949 4.86424818 -15.88615949 4.86424818 -9.0625 1.875 C-5.68410641 -0.19340424 -3.88340718 -0.37886899 0 0 Z " fill="#211F20" transform="translate(110,189)"/>
<path d="M0 0 C3.1590583 5.21876431 2.59035591 11.11017006 2 17 C0.98745063 20.21374365 -0.31382516 23.08683186 -2 26 C-2.66 24.68 -3.32 23.36 -4 22 C-3.34 21.67 -2.68 21.34 -2 21 C-1.59270772 18.67843403 -1.25561323 16.3431213 -1 14 C-1.99 14.495 -1.99 14.495 -3 15 C-2.690625 14.01 -2.38125 13.02 -2.0625 12 C-0.91566793 8.02268878 -0.43287644 4.11232621 0 0 Z " fill="#E7B92E" transform="translate(114,152)"/>
<path d="M0 0 C1.859375 0.21484375 1.859375 0.21484375 4 1 C5.7534633 3.86290766 6.76220486 6.86130519 8 10 C0.575 9.01 0.575 9.01 -7 8 C-5 6 -5 6 -2.9375 5.125 C-0.79948083 4.16352629 -0.79948083 4.16352629 -0.25 1.875 C-0.1675 1.25625 -0.085 0.6375 0 0 Z " fill="#211E1F" transform="translate(86,32)"/>
<path d="M0 0 C-6.89715536 8.66520788 -6.89715536 8.66520788 -11.5 10.0625 C-12.325 10.041875 -13.15 10.02125 -14 10 C-13.09522263 8.53426066 -12.17565859 7.07764244 -11.25 5.625 C-10.73953125 4.81289062 -10.2290625 4.00078125 -9.703125 3.1640625 C-6.79705556 -0.52851198 -4.48567059 -1.60202521 0 0 Z " fill="#222020" transform="translate(121,178)"/>
<path d="M0 0 C2.5625 0.875 2.5625 0.875 4.4375 3.25 C5.5625 5.875 5.5625 5.875 4.5625 8.875 C1.5925 7.885 -1.3775 6.895 -4.4375 5.875 C-4.4375 4.225 -4.4375 2.575 -4.4375 0.875 C-2.4375 -0.125 -2.4375 -0.125 0 0 Z " fill="#211E1F" transform="translate(125.4375,8.125)"/>
<path d="M0 0 C1.1446875 0.2784375 1.1446875 0.2784375 2.3125 0.5625 C5.08967375 1.22819173 5.08967375 1.22819173 8 0 C9.98 2.97 11.96 5.94 14 9 C8.71224656 9 8.03198743 8.74904451 4.1875 5.625 C3.39730469 4.99851563 2.60710937 4.37203125 1.79296875 3.7265625 C1.20128906 3.15679687 0.60960938 2.58703125 0 2 C0 1.34 0 0.68 0 0 Z " fill="#F6E97F" transform="translate(71,172)"/>
<path d="M0 0 C6.50961698 0.49008573 6.50961698 0.49008573 9.63671875 3.6171875 C10.11109375 4.4215625 10.58546875 5.2259375 11.07421875 6.0546875 C3.03920781 6.84243367 3.03920781 6.84243367 -0.98828125 3.5546875 C-1.62765625 2.7296875 -2.26703125 1.9046875 -2.92578125 1.0546875 C-1.92578125 0.0546875 -1.92578125 0.0546875 0 0 Z " fill="#211E1F" transform="translate(91.92578125,13.9453125)"/>
<path d="M0 0 C0.81984375 0.41765625 0.81984375 0.41765625 1.65625 0.84375 C4.24634147 2.12152846 6.86682267 3.3136234 9.5 4.5 C12.69977129 5.94165519 15.87267265 7.40683324 19 9 C19 9.33 19 9.66 19 10 C11.75243743 9.96644647 7.23003669 8.04190587 2 3 C1.34 2.01 0.68 1.02 0 0 Z " fill="#B6892D" transform="translate(67,181)"/>
<path d="M0 0 C2.015625 1.17578125 2.015625 1.17578125 4 3 C4.171875 5.48046875 4.171875 5.48046875 3.75 8.1875 C3.62109375 9.08855469 3.4921875 9.98960937 3.359375 10.91796875 C3.24078125 11.60503906 3.1221875 12.29210937 3 13 C-1.875 8.25 -1.875 8.25 -3 6 C-2.06553465 3.96855359 -1.06775224 1.96466413 0 0 Z " fill="#F3D961" transform="translate(65,136)"/>
<path d="M0 0 C1.15904779 2.83625813 1.02282362 3.93684892 -0.0390625 6.875 C-0.56242187 7.90625 -1.08578125 8.9375 -1.625 10 C-2.13289063 11.03125 -2.64078125 12.0625 -3.1640625 13.125 C-5.10611384 16.16616976 -7.07485696 17.92344794 -10 20 C-10 17 -10 17 -9 15 C-8.34 15 -7.68 15 -7 15 C-6.67 14.01 -6.34 13.02 -6 12 C-5.34 12 -4.68 12 -4 12 C-3.896875 11.319375 -3.79375 10.63875 -3.6875 9.9375 C-2.85274981 6.37084011 -1.50527246 3.33777806 0 0 Z " fill="#DAA121" transform="translate(115,169)"/>
<path d="M0 0 C5.75 0.75 5.75 0.75 8 3 C6.38007835 3.86375896 4.75388139 4.71575854 3.125 5.5625 C1.76761719 6.27599609 1.76761719 6.27599609 0.3828125 7.00390625 C-0.40351562 7.33261719 -1.18984375 7.66132812 -2 8 C-2.66 7.67 -3.32 7.34 -4 7 C-2.68 4.69 -1.36 2.38 0 0 Z " fill="#202223" transform="translate(118,34)"/>
<path d="M0 0 C0.6290625 0.20496094 1.258125 0.40992188 1.90625 0.62109375 C7.30281819 2.31971235 12.36659614 3.47838853 18 4 C18 4.66 18 5.32 18 6 C14.7 6 11.4 6 8 6 C8 5.34 8 4.68 8 4 C5.03 3.67 2.06 3.34 -1 3 C-0.67 2.01 -0.34 1.02 0 0 Z " fill="#184E49" transform="translate(74,192)"/>
<path d="M0 0 C0 0.66 0 1.32 0 2 C-0.99 2.495 -0.99 2.495 -2 3 C-1.67 4.98 -1.34 6.96 -1 9 C-3.31 9 -5.62 9 -8 9 C-7.67 6.69 -7.34 4.38 -7 2 C-2.25 0 -2.25 0 0 0 Z " fill="#F1CF57" transform="translate(90,180)"/>
<path d="M0 0 C-0.66 1.65 -1.32 3.3 -2 5 C-5.63 5.33 -9.26 5.66 -13 6 C-12.67 5.01 -12.34 4.02 -12 3 C-9.78515625 2.05078125 -9.78515625 2.05078125 -7.0625 1.3125 C-6.16660156 1.06113281 -5.27070312 0.80976563 -4.34765625 0.55078125 C-2 0 -2 0 0 0 Z " fill="#EBB224" transform="translate(102,177)"/>
<path d="M0 0 C2.15178156 2.76387192 3.98370421 5.56533069 5.6875 8.625 C6.34298828 9.78902344 6.34298828 9.78902344 7.01171875 10.9765625 C8 13 8 13 8 15 C8.66 15 9.32 15 10 15 C9.67 15.99 9.34 16.98 9 18 C3.8538724 13.54002275 1.45135489 9.68387122 0 3 C0 2.01 0 1.02 0 0 Z " fill="#ECBE3A" transform="translate(62,166)"/>
<path d="M0 0 C1.984375 1.14453125 1.984375 1.14453125 4 3 C4.390625 5.69921875 4.390625 5.69921875 4.25 8.6875 C4.21390625 9.68136719 4.1778125 10.67523438 4.140625 11.69921875 C4.09421875 12.45847656 4.0478125 13.21773437 4 14 C2.2175082 10.66688525 1.51207144 7.75519057 1 4 C0.01 4.33 -0.98 4.66 -2 5 C-1.125 1.125 -1.125 1.125 0 0 Z " fill="#F5E57D" transform="translate(63,143)"/>
<path d="M0 0 C2.475 0.99 2.475 0.99 5 2 C4.34 4.64 3.68 7.28 3 10 C-0.875 5.25 -0.875 5.25 -2 3 C-1.34 2.01 -0.68 1.02 0 0 Z " fill="#EFC83E" transform="translate(67,132)"/>
<path d="M0 0 C0.66 0.33 1.32 0.66 2 1 C1.67 5.62 1.34 10.24 1 15 C0.67 15 0.34 15 0 15 C-0.33 12.69 -0.66 10.38 -1 8 C-1.99 8.33 -2.98 8.66 -4 9 C-2.80100302 5.9168649 -1.52299523 2.93720508 0 0 Z " fill="#BD8D23" transform="translate(92,82)"/>
<path d="M0 0 C2.64 0 5.28 0 8 0 C8 0.66 8 1.32 8 2 C6.68 2 5.36 2 4 2 C4.33 3.98 4.66 5.96 5 8 C3.35 8 1.7 8 0 8 C0.66 7.01 1.32 6.02 2 5 C1.19838209 2.32854463 1.19838209 2.32854463 0 0 Z " fill="#F0D66A" transform="translate(79,180)"/>
<path d="M0 0 C0.99 0.495 0.99 0.495 2 1 C2.6328125 3.28515625 2.6328125 3.28515625 3.125 6.0625 C3.29257812 6.98160156 3.46015625 7.90070313 3.6328125 8.84765625 C3.75398438 9.55792969 3.87515625 10.26820313 4 11 C2.68 10.67 1.36 10.34 0 10 C0 6.7 0 3.4 0 0 Z " fill="#211E1F" transform="translate(55,166)"/>
<path d="M0 0 C0.99 0 1.98 0 3 0 C3.33 2.64 3.66 5.28 4 8 C2.68 8 1.36 8 0 8 C0 5.36 0 2.72 0 0 Z " fill="#211E1F" transform="translate(85,22)"/>
<path d="M0 0 C0 0.99 0 1.98 0 3 C-2 4.6875 -2 4.6875 -4 6 C-4 5.01 -4 4.02 -4 3 C-2 1.3125 -2 1.3125 0 0 Z M-7 6 C-6.01 6.33 -5.02 6.66 -4 7 C-5.65 8.32 -7.3 9.64 -9 11 C-9 8 -9 8 -7 6 Z " fill="#225255" transform="translate(120,8)"/>
<path d="M0 0 C0.99 0.33 1.98 0.66 3 1 C3.33 2.98 3.66 4.96 4 7 C2.68 6.67 1.36 6.34 0 6 C-0.38218767 4.34385343 -0.71395102 2.67542976 -1 1 C-0.67 0.67 -0.34 0.34 0 0 Z " fill="#F1CB47" transform="translate(88,182)"/>
<path d="M0 0 C-1.75 1.5625 -1.75 1.5625 -4 3 C-6.25 2.6875 -6.25 2.6875 -8 2 C-7 0 -7 0 -5.125 -0.6875 C-3 -1 -3 -1 0 0 Z " fill="#EDBD31" transform="translate(97,180)"/>
<path d="M0 0 C1 3 1 3 -0.4375 6.1875 C-1.2109375 7.5796875 -1.2109375 7.5796875 -2 9 C-2.66 7.68 -3.32 6.36 -4 5 C-3.34 4.67 -2.68 4.34 -2 4 C-0.86649466 1.98330173 -0.86649466 1.98330173 0 0 Z " fill="#EEBE28" transform="translate(114,169)"/>
<path d="M0 0 C0.33 1.32 0.66 2.64 1 4 C-0.32 4.99 -1.64 5.98 -3 7 C-3.66 6.67 -4.32 6.34 -5 6 C-3.35 4.02 -1.7 2.04 0 0 Z " fill="#EBB322" transform="translate(113,165)"/>
<path d="" fill="#211E1F" transform="translate(0,0)"/>
<path d="" fill="#211E1F" transform="translate(0,0)"/>
<path d="" fill="#211E1F" transform="translate(0,0)"/>
<path d="" fill="#211E1F" transform="translate(0,0)"/>
<path d="" fill="#211E1F" transform="translate(0,0)"/>
<path d="" fill="#211E1F" transform="translate(0,0)"/>
<path d="" fill="#211E1F" transform="translate(0,0)"/>
<path d="" fill="#211E1F" transform="translate(0,0)"/>
<path d="" fill="#211E1F" transform="translate(0,0)"/>
<path d="" fill="#211E1F" transform="translate(0,0)"/>
</svg>
